<?xml version="1.0" encoding="iso-8859-1"?>
<!-- Generator: Adobe Illustrator 19.1.0, SVG Export Plug-In . SVG Version: 6.00 Build 0)  -->
<svg version="1.1" id="Capa_1" xmlns="http://www.w3.org/2000/svg" xmlns:xlink="http://www.w3.org/1999/xlink" x="0px" y="0px"
	 viewBox="0 0 63 63" style="enable-background:new 0 0 63 63;" xml:space="preserve">
<g>
	<g id="group-43svg">
		<path id="path-1_36_" d="M11.36,47.567C5.096,47.567,0,43.661,0,38.86s5.096-8.708,11.36-8.708c2.428,0,4.774,0.591,6.714,1.678
			c1.939-1.087,4.285-1.678,6.713-1.678s4.773,0.591,6.713,1.678c1.94-1.087,4.286-1.678,6.714-1.678
			c2.427,0,4.773,0.591,6.713,1.678c1.94-1.087,4.286-1.678,6.713-1.678c6.371,0,11.36,3.758,11.36,8.554
			c0,4.797-4.989,8.555-11.36,8.555c-1.293,0-10.868,0.078-20.127,0.153C22.247,47.489,12.665,47.567,11.36,47.567z M11.36,33.152
			C6.828,33.152,3,35.766,3,38.86c0,3.094,3.828,5.707,8.36,5.707c1.293,0,10.868-0.078,20.128-0.153
			c9.266-0.075,18.848-0.153,20.152-0.153c4.61,0,8.36-2.492,8.36-5.555c0-3.062-3.75-5.554-8.36-5.554
			c-2.195,0-4.28,0.596-5.869,1.679l-0.844,0.575l-0.845-0.575c-1.589-1.083-3.673-1.679-5.868-1.679
			c-2.196,0-4.281,0.596-5.87,1.679L31.5,35.406l-0.845-0.575c-1.589-1.083-3.673-1.679-5.868-1.679s-4.279,0.596-5.868,1.679
			l-0.845,0.575l-0.845-0.575C15.64,33.748,13.555,33.152,11.36,33.152z"/>
		<path id="path-2_36_" d="M39.526,40.36c-0.092,0-0.183-0.008-0.276-0.026c-0.815-0.151-1.352-0.934-1.2-1.749
			c0.492-2.647,4.787-5.469,6.09-6.272c0.707-0.433,1.63-0.212,2.064,0.492c0.433,0.706,0.214,1.629-0.491,2.064
			c-2.094,1.29-4.545,3.359-4.714,4.265C40.865,39.856,40.234,40.36,39.526,40.36z"/>
		<path id="path-3_36_" d="M26.287,40.36c-0.092,0-0.184-0.008-0.276-0.026c-0.815-0.151-1.352-0.934-1.201-1.749
			c0.493-2.647,4.787-5.469,6.091-6.272c0.707-0.433,1.63-0.212,2.064,0.492c0.433,0.706,0.213,1.629-0.492,2.064
			c-2.093,1.29-4.545,3.359-4.713,4.265C27.626,39.856,26.995,40.36,26.287,40.36z"/>
		<path id="path-4_32_" d="M13.048,40.36c-0.092,0-0.184-0.008-0.277-0.026c-0.814-0.151-1.351-0.934-1.2-1.749
			c0.493-2.647,4.788-5.469,6.093-6.272c0.703-0.433,1.629-0.212,2.062,0.492c0.434,0.706,0.214,1.63-0.491,2.064
			c-2.095,1.29-4.546,3.359-4.715,4.265C14.386,39.856,13.756,40.36,13.048,40.36z"/>
		<path id="path-5_25_" d="M41.495,54.574H21.378c-3.569,0-6.666-1.06-8.958-3.065l-5.855-4.823
			c-0.638-0.527-0.73-1.473-0.203-2.112c0.525-0.64,1.472-0.73,2.111-0.204l5.888,4.852c1.796,1.57,4.146,2.352,7.017,2.352h20.117
			c2.872,0,5.222-0.782,6.982-2.323l5.907-5.017c0.63-0.536,1.578-0.458,2.114,0.172c0.536,0.632,0.459,1.578-0.173,2.114
			l-5.889,5.003C48.162,53.514,45.064,54.574,41.495,54.574z"/>
		<path id="path-6_17_" d="M55.656,36.162c0,0.843-0.684,1.527-1.527,1.527c-0.844,0-1.528-0.684-1.528-1.527
			c0-0.844,0.684-1.528,1.528-1.528C54.972,34.634,55.656,35.318,55.656,36.162z"/>
		<path id="path-7_10_" d="M34.27,39.217c0,0.844-0.684,1.527-1.528,1.527c-0.843,0-1.527-0.683-1.527-1.527
			c0-0.844,0.684-1.528,1.527-1.528C33.586,37.689,34.27,38.373,34.27,39.217z"/>
		<path id="path-8_8_" d="M8.81,38.198c0,0.844-0.684,1.528-1.527,1.528c-0.844,0-1.528-0.684-1.528-1.528
			c0-0.843,0.684-1.527,1.528-1.527C8.126,36.671,8.81,37.355,8.81,38.198z"/>
		<path id="path-9_7_" d="M44.189,29.928c-0.135,0-0.271-0.019-0.407-0.057c-2.304-0.649-6.47-3.455-5.747-9.432
			c0.114-0.941,0.232-1.818,0.343-2.632c0.651-4.8,0.663-6.061-0.48-6.467c-0.78-0.277-1.188-1.134-0.912-1.915
			c0.278-0.781,1.137-1.191,1.916-0.912c3.591,1.275,3.112,4.807,2.449,9.697c-0.109,0.801-0.225,1.663-0.338,2.59
			c-0.598,4.948,3.411,6.135,3.581,6.183c0.798,0.225,1.262,1.054,1.038,1.851C45.446,29.495,44.844,29.928,44.189,29.928z"/>
		<path id="path-10_6_" d="M30.95,29.928c-0.135,0-0.271-0.019-0.407-0.057c-2.304-0.649-6.47-3.455-5.747-9.432
			c0.114-0.941,0.232-1.818,0.342-2.632c0.652-4.8,0.664-6.061-0.479-6.467c-0.78-0.277-1.189-1.134-0.912-1.915
			c0.278-0.781,1.137-1.191,1.916-0.912c3.591,1.275,3.111,4.807,2.449,9.697c-0.109,0.801-0.226,1.663-0.338,2.59
			c-0.598,4.948,3.41,6.135,3.581,6.183c0.798,0.225,1.262,1.054,1.038,1.851C32.207,29.495,31.604,29.928,30.95,29.928z"/>
	</g>
</g>
<g>
</g>
<g>
</g>
<g>
</g>
<g>
</g>
<g>
</g>
<g>
</g>
<g>
</g>
<g>
</g>
<g>
</g>
<g>
</g>
<g>
</g>
<g>
</g>
<g>
</g>
<g>
</g>
<g>
</g>
</svg>
