<?xml version="1.0" encoding="iso-8859-1"?>
<!-- Generator: Adobe Illustrator 19.1.0, SVG Export Plug-In . SVG Version: 6.00 Build 0)  -->
<svg version="1.1" id="Capa_1" xmlns="http://www.w3.org/2000/svg" xmlns:xlink="http://www.w3.org/1999/xlink" x="0px" y="0px"
	 viewBox="0 0 63.001 63.001" style="enable-background:new 0 0 63.001 63.001;" xml:space="preserve">
<g>
	<g id="group-39svg">
		<path id="path-1_31_" d="M24.746,46.791c-4.581,0-6.638-3.661-8.63-7.203c-2.096-3.729-3.491-6.612-2.327-9.767
			c1.101-2.983,4.417-5.812,11.448-9.766c6.091-3.425,9.958-4.886,12.928-4.886c4.32,0,6.404,3.095,8.679,7.141
			c2.021,3.595,3.469,6.601,2.231,9.835c-1.148,3.001-4.489,5.84-11.531,9.8C31.502,45.342,27.675,46.791,24.746,46.791z
			 M38.165,18.169c-2.388,0-5.921,1.388-11.458,4.502c-6.18,3.474-9.296,6-10.103,8.189c-0.667,1.806,0.081,3.619,2.128,7.258
			c2.216,3.945,3.456,5.673,6.014,5.673c2.347,0,5.84-1.376,11.327-4.462c6.205-3.488,9.35-6.034,10.201-8.256
			c0.712-1.861-0.056-3.754-2.045-7.292C41.9,19.639,40.634,18.169,38.165,18.169z"/>
		<path id="path-2_31_" d="M58.303,28.139c-1.33,0-2.583-0.566-3.461-1.523l-5.884,0.793c-0.153,0.022-0.31,0.033-0.466,0.033
			c-0.001,0-0.001,0-0.001,0c-1.265,0-2.413-0.697-3.068-1.862l-1.626-2.892c-0.735-1.306-0.628-2.865,0.274-3.973l3.728-4.62
			c-0.294-1.003-0.245-2.081,0.157-3.075c0.538-1.331,1.65-2.333,3.048-2.749c1.669-0.496,3.573,0.038,4.74,1.317
			c0.63,0.69,1.035,1.525,1.185,2.409c1.681,0.43,3.147,1.529,4.011,3.065c0.862,1.533,1.048,3.311,0.558,4.955
			c0.639,0.597,1.108,1.368,1.345,2.241c0.451,1.664-0.084,3.485-1.36,4.642C60.6,27.699,59.47,28.139,58.303,28.139z
			 M56.327,23.388l0.499,0.888c0.299,0.532,0.866,0.863,1.477,0.863c0.299,0,0.743-0.081,1.166-0.463
			c0.442-0.401,0.635-1.057,0.478-1.633c-0.137-0.509-0.467-0.909-0.928-1.125l-1.445-0.677l0.765-1.4
			c0.569-1.043,0.563-2.28-0.015-3.309c-0.595-1.059-1.68-1.707-2.904-1.733l-1.727-0.037l0.279-1.706
			c0.05-0.304,0.058-0.896-0.443-1.445c-0.402-0.44-1.098-0.634-1.669-0.465c-0.71,0.212-1.008,0.717-1.123,1
			c-0.195,0.48-0.161,1.015,0.093,1.466l0.498,0.886l-4.926,6.106c-0.179,0.22-0.053,0.501,0.009,0.612l1.627,2.894
			c0.044,0.077,0.206,0.332,0.453,0.332L56.327,23.388z"/>
		<path id="path-3_31_" d="M10.694,54.914c-1.276,0-2.505-0.524-3.373-1.437c-0.622-0.654-1.039-1.457-1.215-2.313
			c-1.661-0.435-3.082-1.518-3.945-3.052c-0.863-1.536-1.041-3.361-0.535-5.019c-0.678-0.588-1.181-1.367-1.442-2.264
			c-0.496-1.693,0.029-3.552,1.337-4.734c0.882-0.798,2.01-1.238,3.176-1.238c1.326,0,2.573,0.561,3.451,1.511l6.169-0.93
			c1.688-0.234,3.17,0.467,3.843,1.665l1.626,2.892c0.788,1.401,0.26,3.127-0.565,4.139l-4.013,4.787
			c0.288,0.998,0.237,2.069-0.164,3.057c-0.54,1.331-1.651,2.333-3.051,2.748C11.574,54.851,11.137,54.914,10.694,54.914z
			 M4.697,37.857c-0.297,0-0.742,0.081-1.165,0.463c-0.453,0.409-0.641,1.079-0.469,1.667c0.209,0.715,0.718,1.014,1.004,1.13
			l1.604,0.646l-0.867,1.496c-0.613,1.059-0.623,2.323-0.027,3.383c0.578,1.029,1.631,1.676,2.819,1.731l1.595,0.074l-0.173,1.587
			c-0.056,0.505,0.115,0.994,0.478,1.377c0.402,0.422,1.081,0.607,1.644,0.439c0.711-0.211,1.01-0.716,1.124-0.999
			c0.194-0.481,0.161-1.015-0.093-1.467l-0.508-0.904l5.246-6.258c0.226-0.277,0.299-0.655,0.259-0.763l-1.623-2.886
			c-0.046-0.055-0.411-0.217-0.801-0.166l-8.061,1.216L6.175,38.72C5.876,38.188,5.31,37.857,4.697,37.857z"/>
	</g>
</g>
<g>
</g>
<g>
</g>
<g>
</g>
<g>
</g>
<g>
</g>
<g>
</g>
<g>
</g>
<g>
</g>
<g>
</g>
<g>
</g>
<g>
</g>
<g>
</g>
<g>
</g>
<g>
</g>
<g>
</g>
</svg>
