<?xml version="1.0" encoding="iso-8859-1"?>
<!-- Generator: Adobe Illustrator 19.1.0, SVG Export Plug-In . SVG Version: 6.00 Build 0)  -->
<svg version="1.1" id="Capa_1" xmlns="http://www.w3.org/2000/svg" xmlns:xlink="http://www.w3.org/1999/xlink" x="0px" y="0px"
	 viewBox="0 0 63 63" style="enable-background:new 0 0 63 63;" xml:space="preserve">
<g>
	<g id="group-4svg">
		<path id="path-1_32_" d="M48.91,37.966c-0.742,0-1.386-0.551-1.485-1.307c-0.036-0.274-3.737-27.495-16.703-29.397
			c-0.819-0.121-1.387-0.882-1.267-1.702c0.12-0.819,0.88-1.388,1.702-1.266C46.36,6.524,50.242,35.058,50.4,36.272
			c0.107,0.822-0.473,1.574-1.294,1.681C49.04,37.961,48.975,37.966,48.91,37.966z"/>
		<path id="path-2_32_" d="M53.858,58.723c-1.719,0-3.411-0.394-4.946-1.146c-1.534,0.752-3.226,1.146-4.945,1.146
			c-6.08,0-9.844-7.193-9.844-13.858c0-6.202,5.045-11.248,11.247-11.248c1.726,0,2.473,0.394,3.479,1.04
			c0.02-0.018,0.04-0.037,0.06-0.055c0.735-0.667,1.347-0.985,2.843-0.985C57.954,33.617,63,38.663,63,44.865
			C63,51.752,59.86,58.723,53.858,58.723z M48.912,54.374c0.264,0,0.528,0.07,0.763,0.208c1.264,0.746,2.71,1.141,4.183,1.141
			c4.474,0,6.142-6.66,6.142-10.858c0-4.548-3.7-8.248-8.248-8.248c-0.504,0-0.642,0.046-0.656,0.051
			c-0.047,0.034-0.101,0.092-0.169,0.154c-0.246,0.224-0.617,0.561-1.253,0.936c-0.469,0.277-1.055,0.277-1.523,0
			c-0.324-0.191-0.592-0.364-0.833-0.519c-0.777-0.502-0.961-0.622-1.948-0.622c-4.547,0-8.247,3.7-8.247,8.248
			c0,4.438,2.438,10.858,6.844,10.858c1.473,0,2.919-0.395,4.183-1.141C48.385,54.444,48.649,54.374,48.912,54.374z"/>
		<path id="path-3_32_" d="M17.681,54.757c-1.585,0-3.147-0.359-4.564-1.044c-1.419,0.685-2.98,1.044-4.564,1.044
			C2.938,54.757,0,48.265,0,41.852c0-5.788,4.709-10.497,10.496-10.497c1.411,0,1.995,0.3,2.691,0.93
			c0.795-0.509,1.551-0.93,3.199-0.93c5.787,0,10.496,4.709,10.496,10.497C26.882,48.058,23.365,54.757,17.681,54.757z
			 M13.117,50.512c0.264,0,0.528,0.07,0.763,0.209c1.149,0.677,2.463,1.036,3.801,1.036c3.993,0,6.201-5.857,6.201-9.905
			c0-4.134-3.362-7.497-7.496-7.497c-0.876,0-1.023,0.096-1.733,0.554c-0.224,0.145-0.473,0.306-0.773,0.483
			c-0.471,0.277-1.055,0.277-1.524,0c-0.598-0.352-0.946-0.669-1.176-0.878c-0.057-0.051-0.104-0.1-0.157-0.138
			c0.009,0.011-0.131-0.021-0.527-0.021C6.363,34.355,3,37.718,3,41.852c0,3.829,1.508,9.905,5.553,9.905
			c1.338,0,2.653-0.359,3.803-1.036C12.59,50.582,12.854,50.512,13.117,50.512z"/>
		<path id="path-4_28_" d="M13.118,35.6c-0.106,0-0.214-0.011-0.323-0.035c-0.809-0.179-1.32-0.979-1.142-1.787
			c0.204-0.929,5.144-22.817,17.345-29.324c0.729-0.39,1.64-0.113,2.03,0.618c0.389,0.731,0.113,1.639-0.618,2.029
			c-10.98,5.855-15.781,27.108-15.828,27.322C14.428,35.123,13.808,35.6,13.118,35.6z"/>
		<path id="path-5_22_" d="M50.948,52.15c-0.761,0-1.414-0.577-1.491-1.351c-0.083-0.824,0.519-1.559,1.343-1.642
			c0.963-0.096,1.675-0.455,2.174-1.098c1.097-1.409,1.006-3.926,0.879-4.777c-0.123-0.817,0.439-1.582,1.256-1.707
			c0.826-0.124,1.582,0.434,1.709,1.25c0.068,0.441,0.609,4.382-1.466,7.063c-1.002,1.297-2.474,2.076-4.253,2.254
			C51.048,52.147,50.997,52.15,50.948,52.15z"/>
		<path id="path-6_14_" d="M5.997,44.556c-0.123,0-0.248-0.015-0.373-0.047c-0.802-0.205-1.287-1.023-1.081-1.826
			c1.007-3.926,7.432-5.875,8.16-6.084c0.795-0.228,1.626,0.23,1.855,1.027c0.229,0.796-0.231,1.626-1.026,1.856
			c-2.274,0.657-5.665,2.316-6.083,3.946C7.276,44.106,6.666,44.556,5.997,44.556z"/>
	</g>
</g>
<g>
</g>
<g>
</g>
<g>
</g>
<g>
</g>
<g>
</g>
<g>
</g>
<g>
</g>
<g>
</g>
<g>
</g>
<g>
</g>
<g>
</g>
<g>
</g>
<g>
</g>
<g>
</g>
<g>
</g>
</svg>
