<?xml version="1.0" encoding="iso-8859-1"?>
<!-- Generator: Adobe Illustrator 19.1.0, SVG Export Plug-In . SVG Version: 6.00 Build 0)  -->
<svg version="1.1" id="Capa_1" xmlns="http://www.w3.org/2000/svg" xmlns:xlink="http://www.w3.org/1999/xlink" x="0px" y="0px"
	 viewBox="0 0 63.043 63.043" style="enable-background:new 0 0 63.043 63.043;" xml:space="preserve">
<g>
	<g id="group-70svg">
		<path id="path-1_66_" d="M31.872,63.043H20.283c-10.489,0-19.262-7.743-19.262-16.569V26.543c0-7.196,13.198-9.75,24.5-9.75
			s24.5,2.554,24.5,9.75v2.5h2.351c5.257,0,9.649,4.549,9.649,10.582v4.981c0,6.048-4.306,10.437-9.649,10.437h-4.906
			C44.249,59.017,38.616,63.043,31.872,63.043z M25.521,19.793c-12.056,0-21.5,2.965-21.5,6.75v19.931
			c0,7.101,7.527,13.569,16.262,13.569h11.589c5.984,0,11.1-3.986,13.664-7.4l0.449-0.6h6.387c3.664,0,6.649-3.058,6.649-7.437
			v-4.981c0-4.392-3.044-7.582-6.649-7.582h-5.351v-5.5C47.021,22.758,37.577,19.793,25.521,19.793z"/>
		<path id="path-2_66_" d="M47.021,50.464V34.043h4.314c2.962,0,5.686,3.485,5.686,6.483v3.998c0,3.159-2.525,5.93-5.405,5.93
			L47.021,50.464z M50.021,37.043v10.415l1.592-0.004c1.086,0,2.408-1.352,2.408-2.93v-3.998c0-1.728-1.741-3.483-2.686-3.483
			H50.021z"/>
		<path id="path-3_66_" d="M25.875,35.409c-8.389,0-17.865-1.76-19.299-6.705l-0.121-0.418l0.121-0.418
			c1.434-4.944,10.91-6.705,19.299-6.705s17.865,1.761,19.298,6.705l0.121,0.418l-0.121,0.418
			C43.739,33.649,34.264,35.409,25.875,35.409z M9.642,28.286c1.262,2.093,7.369,4.123,16.232,4.123
			c8.862,0,14.969-2.03,16.231-4.123c-1.262-2.092-7.369-4.123-16.231-4.123C17.011,24.163,10.904,26.194,9.642,28.286z"/>
		<path id="path-4_59_" d="M33.938,30.029c-0.648,0-1.244-0.422-1.438-1.075c-0.675-2.284-6.407-22.487,0.443-28.575
			c0.618-0.551,1.567-0.494,2.117,0.124c0.551,0.62,0.494,1.568-0.125,2.118c-4.607,4.095-1.243,19.783,0.442,25.482
			c0.235,0.795-0.218,1.629-1.012,1.864C34.222,30.009,34.08,30.029,33.938,30.029z"/>
		<path id="path-5_47_" d="M15.991,30.029c-0.648,0-1.244-0.422-1.438-1.075C13.877,26.67,8.147,6.467,14.996,0.379
			c0.619-0.551,1.568-0.494,2.117,0.124c0.551,0.62,0.495,1.568-0.125,2.118c-4.607,4.095-1.242,19.783,0.442,25.483
			c0.235,0.794-0.219,1.628-1.013,1.863C16.275,30.009,16.132,30.029,15.991,30.029z"/>
		<path id="path-6_34_" d="M25.493,30.029c-0.616,0-1.193-0.381-1.412-0.995c-0.687-1.918-6.508-18.881,0.524-24.047
			c0.667-0.491,1.605-0.347,2.097,0.32c0.49,0.668,0.346,1.607-0.322,2.097c-4.427,3.252-1.018,16.303,0.525,20.62
			c0.279,0.779-0.127,1.637-0.906,1.917C25.831,30,25.661,30.029,25.493,30.029z"/>
	</g>
</g>
<g>
</g>
<g>
</g>
<g>
</g>
<g>
</g>
<g>
</g>
<g>
</g>
<g>
</g>
<g>
</g>
<g>
</g>
<g>
</g>
<g>
</g>
<g>
</g>
<g>
</g>
<g>
</g>
<g>
</g>
</svg>
