<?xml version="1.0" encoding="iso-8859-1"?>
<!-- Generator: Adobe Illustrator 19.1.0, SVG Export Plug-In . SVG Version: 6.00 Build 0)  -->
<svg version="1.1" id="Capa_1" xmlns="http://www.w3.org/2000/svg" xmlns:xlink="http://www.w3.org/1999/xlink" x="0px" y="0px"
	 viewBox="0 0 62.992 62.992" style="enable-background:new 0 0 62.992 62.992;" xml:space="preserve">
<g>
	<g id="group-50svg">
		<path id="path-1_44_" d="M31.132,53.97c-12.346,0-22.39-10.044-22.39-22.39c0-12.345,10.044-22.389,22.39-22.389
			c12.345,0,22.388,10.044,22.388,22.389C53.52,43.926,43.477,53.97,31.132,53.97z M31.132,12.191
			c-10.692,0-19.39,8.698-19.39,19.389c0,10.692,8.698,19.39,19.39,19.39c10.691,0,19.388-8.698,19.388-19.39
			C50.52,20.889,41.823,12.191,31.132,12.191z"/>
		<path id="path-2_44_" d="M31.503,62.982c-1.191,0-2.374-0.321-3.421-0.93l-3.655-2.257c-0.544-0.315-1.265-0.734-1.784-0.734
			h-3.689c-2.517,0-4.602-1.104-5.721-3.029l-1.888-2.995c-0.347-0.593-0.798-1.047-1.334-1.358l-3.083-1.922
			c-2.013-1.17-3.052-3.363-3.052-5.722v-3.689c0-0.613-0.391-1.242-0.727-1.818L0.92,34.912c-1.193-2.054-1.243-4.603-0.05-6.656
			l2.306-3.626c0.335-0.577,0.7-1.205,0.7-1.814v-3.69c0-2.379,1.039-4.584,3.055-5.755l3.159-1.944
			c0.513-0.298,0.926-0.786,1.272-1.384l1.883-3.412c1.264-2.177,3.483-3.57,5.709-3.57h3.689c0.795,0,1.391-0.019,1.819-0.267
			l3.683-1.915c1.925-1.122,4.597-1.186,6.587-0.03l3.587,1.958c0.411,0.237,0.956,0.254,1.685,0.254h3.857
			c2.227,0,4.474,1.393,5.726,3.549l1.946,3.601c0.29,0.5,0.745,0.953,1.292,1.271l3.526,1.92c2.043,1.187,3.525,3.38,3.525,5.724
			v3.69c0,0.653-0.049,1.282,0.262,1.818l1.986,3.625c1.191,2.05,1.14,4.598-0.051,6.647l-1.908,3.619
			c-0.311,0.537-0.289,1.165-0.289,1.821v3.689c0,2.323-1.482,4.503-3.523,5.69l-3.441,1.895c-0.585,0.34-1.067,0.747-1.352,1.238
			l-1.962,3.197c-1.105,1.902-3.217,3.006-5.737,3.006h-3.688c-0.532,0-1.218,0.373-1.819,0.722l-3.561,2.299
			C33.761,62.683,32.644,62.982,31.503,62.982z M18.954,6.061c-1.158,0-2.416,0.827-3.13,2.056l-1.909,3.413
			c-0.627,1.077-1.456,1.928-2.411,2.483l-3.052,1.944c-1.109,0.644-1.576,1.855-1.576,3.169v3.69c0,1.138-0.533,2.288-1.136,3.325
			l-2.225,3.625c-0.652,1.121-0.706,2.514-0.057,3.633l2.31,3.616c0.604,1.04,1.108,2.189,1.108,3.331v3.689
			c0,1.294,0.467,2.493,1.562,3.129l3.189,1.922c0.983,0.572,1.757,1.401,2.337,2.397l1.861,2.996
			c0.805,1.383,2.294,1.582,3.129,1.582h3.689c1.327,0,2.482,0.671,3.325,1.161l3.656,2.257c1.067,0.62,2.528,0.667,3.603,0.046
			l3.56-2.299c1-0.583,2.108-1.165,3.386-1.165h3.688c0.836,0,2.354-0.199,3.13-1.536l1.935-3.197
			c0.541-0.932,1.326-1.694,2.386-2.31l3.545-1.894c1.125-0.654,2.019-1.812,2.019-3.089v-3.689c0-1.184,0.092-2.334,0.668-3.326
			l1.987-3.619c0.652-1.122,0.597-2.515-0.055-3.638l-1.907-3.626c-0.575-0.991-0.693-2.14-0.693-3.321v-3.69
			c0-1.279-0.91-2.478-2.029-3.129l-3.42-1.92c-0.999-0.58-1.883-1.41-2.457-2.4l-1.974-3.601c-0.69-1.188-1.975-2.015-3.135-2.015
			h-3.688l0.703-1.5v1.5c-1,0-2.488,0-3.592-0.641l-3.806-1.958c-1.146-0.665-2.647-0.613-3.779,0.045l-3.738,1.915
			c-1.098,0.639-2.404,0.639-3.318,0.639H18.954z"/>
		<path id="path-3_44_" d="M30.942,27.032c-3.317,0-6.015-2.699-6.015-6.015c0-3.317,2.698-6.016,6.015-6.016
			c3.318,0,6.016,2.699,6.016,6.016C36.958,24.333,34.26,27.032,30.942,27.032z M30.942,18.001c-1.663,0-3.015,1.353-3.015,3.016
			c0,1.662,1.352,3.015,3.015,3.015c1.663,0,3.016-1.353,3.016-3.015C33.958,19.354,32.605,18.001,30.942,18.001z"/>
		<path id="path-4_39_" d="M30.942,48.38c-3.317,0-6.015-2.698-6.015-6.015c0-3.318,2.698-6.016,6.015-6.016
			c3.318,0,6.016,2.698,6.016,6.016C36.958,45.682,34.26,48.38,30.942,48.38z M30.942,39.349c-1.663,0-3.015,1.353-3.015,3.016
			c0,1.662,1.352,3.015,3.015,3.015c1.663,0,3.016-1.353,3.016-3.015C33.958,40.702,32.605,39.349,30.942,39.349z"/>
		<path id="path-5_31_" d="M42.684,37.706c-3.318,0-6.016-2.699-6.016-6.016s2.698-6.015,6.016-6.015
			c3.317,0,6.015,2.698,6.015,6.015S46.001,37.706,42.684,37.706z M42.684,28.675c-1.663,0-3.016,1.353-3.016,3.015
			c0,1.663,1.353,3.016,3.016,3.016c1.663,0,3.015-1.353,3.015-3.016C45.699,30.028,44.347,28.675,42.684,28.675z"/>
		<path id="path-6_23_" d="M19.201,37.706c-3.317,0-6.015-2.699-6.015-6.016s2.698-6.015,6.015-6.015
			c3.318,0,6.016,2.698,6.016,6.015S22.519,37.706,19.201,37.706z M19.201,28.675c-1.663,0-3.015,1.353-3.015,3.015
			c0,1.663,1.352,3.016,3.015,3.016s3.016-1.353,3.016-3.016C22.217,30.028,20.864,28.675,19.201,28.675z"/>
	</g>
</g>
<g>
</g>
<g>
</g>
<g>
</g>
<g>
</g>
<g>
</g>
<g>
</g>
<g>
</g>
<g>
</g>
<g>
</g>
<g>
</g>
<g>
</g>
<g>
</g>
<g>
</g>
<g>
</g>
<g>
</g>
</svg>
