<?xml version="1.0" encoding="iso-8859-1"?>
<!-- Generator: Adobe Illustrator 19.1.0, SVG Export Plug-In . SVG Version: 6.00 Build 0)  -->
<svg version="1.1" id="Capa_1" xmlns="http://www.w3.org/2000/svg" xmlns:xlink="http://www.w3.org/1999/xlink" x="0px" y="0px"
	 viewBox="0 0 62.613 62.613" style="enable-background:new 0 0 62.613 62.613;" xml:space="preserve">
<g>
	<g id="group-65svg">
		<path id="path-1_60_" d="M43.882,62.613H32.301c-0.828,0-1.073-0.672-1.073-1.5V35.224c0-0.594,0.137-1.132,0.681-1.372
			c1.572-0.692,3.056-2.146,3.056-3.581c0-0.938-0.276-3.997-3.146-3.997c-0.05,0.002-0.139,0.011-0.2,0.018l-0.24,0.024
			c-0.13,0.011-0.268,0.005-0.396-0.018c-0.117-0.012-0.333-0.024-0.424-0.024c-2.275,0-4.274,1.867-4.274,3.997
			c0,1.652,1.638,3.153,2.251,3.722c0.306,0.284,0.692,0.682,0.692,1.099v26.021c0,0.828-1.098,1.5-1.927,1.5h-8.682
			c-0.639,0-1.207-0.405-1.417-1.007c-0.209-0.603-0.015-1.273,0.485-1.669c0.031-0.03,6.229-5.983-8.664-27.785
			c-4.321-6.325-5.41-12.114-3.236-17.203C10.664,3.531,30.275,0.158,31.108,0.019c0.162-0.025,0.327-0.026,0.491,0.001
			c0.829,0.138,20.361,3.506,25.226,14.905c2.176,5.096,1.084,10.892-3.244,17.227c-14.894,21.802-8.79,27.762-8.727,27.819
			c0.459,0.417,0.632,1.089,0.408,1.667C45.039,62.216,44.502,62.613,43.882,62.613z M34.228,59.613h6.96
			c-1.434-3.842-1.572-12.337,9.916-29.153c3.712-5.435,4.709-10.265,2.962-14.357c-3.961-9.28-20.49-12.664-22.713-13.08
			C29.127,3.44,12.507,6.844,8.545,16.131C6.801,20.217,7.796,25.037,11.5,30.46c11.484,16.812,11.303,25.308,9.837,29.153h4.891
			V35.72c-2-1.148-2.731-3.08-2.731-5.449c0-3.793,3.224-6.997,7.167-6.997c0.157,0,0.356,0,0.633,0.038
			c0.177-0.02,0.338-0.038,0.495-0.038c3.645,0,6.293,2.811,6.293,6.997c0,2.664-1.857,4.724-3.857,5.875V59.613z"/>
		<path id="path-2_60_" d="M31.728,26.113c-0.828,0-1.5-0.672-1.5-1.5v-23c0-0.828,0.672-1.5,1.5-1.5s1.5,0.672,1.5,1.5v23
			C33.228,25.441,32.556,26.113,31.728,26.113z"/>
		<path id="path-3_60_" d="M51.801,12.613h-41c-0.828,0-1.5-0.672-1.5-1.5s0.672-1.5,1.5-1.5h41c0.829,0,1.5,0.672,1.5,1.5
			S52.63,12.613,51.801,12.613z"/>
		<path id="path-4_53_" d="M54.801,18.613h-48c-0.828,0-1.5-0.672-1.5-1.5c0-0.828,0.672-1.5,1.5-1.5h48c0.829,0,1.5,0.672,1.5,1.5
			C56.301,17.941,55.63,18.613,54.801,18.613z"/>
		<path id="path-5_43_" d="M41.801,51.613h-9c-0.828,0-1.5-0.672-1.5-1.5c0-0.828,0.672-1.5,1.5-1.5h9c0.829,0,1.5,0.672,1.5,1.5
			C43.301,50.941,42.63,51.613,41.801,51.613z"/>
		<path id="path-6_31_" d="M43.801,45.613h-11c-0.828,0-1.5-0.672-1.5-1.5c0-0.828,0.672-1.5,1.5-1.5h11c0.829,0,1.5,0.672,1.5,1.5
			C45.301,44.941,44.63,45.613,43.801,45.613z"/>
		<path id="path-7_20_" d="M26.801,51.613h-7c-0.828,0-1.5-0.672-1.5-1.5c0-0.828,0.672-1.5,1.5-1.5h7c0.829,0,1.5,0.672,1.5,1.5
			C28.301,50.941,27.63,51.613,26.801,51.613z"/>
		<path id="path-8_17_" d="M26.801,45.613h-9c-0.828,0-1.5-0.672-1.5-1.5c0-0.828,0.672-1.5,1.5-1.5h9c0.829,0,1.5,0.672,1.5,1.5
			C28.301,44.941,27.63,45.613,26.801,45.613z"/>
	</g>
</g>
<g>
</g>
<g>
</g>
<g>
</g>
<g>
</g>
<g>
</g>
<g>
</g>
<g>
</g>
<g>
</g>
<g>
</g>
<g>
</g>
<g>
</g>
<g>
</g>
<g>
</g>
<g>
</g>
<g>
</g>
</svg>
