<?xml version="1.0" encoding="iso-8859-1"?>
<!-- Generator: Adobe Illustrator 19.1.0, SVG Export Plug-In . SVG Version: 6.00 Build 0)  -->
<svg version="1.1" id="Capa_1" xmlns="http://www.w3.org/2000/svg" xmlns:xlink="http://www.w3.org/1999/xlink" x="0px" y="0px"
	 viewBox="0 0 63 63" style="enable-background:new 0 0 63 63;" xml:space="preserve">
<g>
	<g id="group-62svg">
		<path id="path-1_57_" d="M31.5,55.966C13.837,55.966,0,49.085,0,40.299c0-4.773,4.016-9.079,11.11-12.02
			c-1.461-1.696-2.221-3.556-2.221-5.472c0-5.247,5.743-9.886,14.987-12.105c0.813-0.196,1.615,0.303,1.81,1.108
			c0.193,0.805-0.304,1.615-1.109,1.808c-7.708,1.851-12.688,5.457-12.688,9.189c0,2.088,1.583,3.799,2.912,4.867
			c0.425,0.343,0.631,0.889,0.537,1.428c-0.094,0.538-0.473,0.982-0.989,1.16C7.242,32.706,3,36.458,3,40.299
			c0,6.866,13.052,12.667,28.5,12.667S60,47.165,60,40.299c0-2.851-2.355-5.692-6.63-8c-0.492-0.265-0.795-0.782-0.787-1.342
			c0.009-0.559,0.327-1.067,0.826-1.317c3.892-1.955,6.035-4.382,6.035-6.833c0-2.818-2.975-5.697-7.961-7.701
			c-0.768-0.309-1.141-1.183-0.832-1.951c0.309-0.769,1.181-1.141,1.951-0.832c6.255,2.514,9.842,6.336,9.842,10.484
			c0,3.042-1.902,5.898-5.415,8.208C60.9,33.663,63,36.899,63,40.299C63,49.085,49.163,55.966,31.5,55.966z"/>
		<path id="path-2_57_" d="M31.5,43.696c-6.428,0-12.935-2.033-12.935-5.919c0-3.966,8.736-7.997,15.014-7.997
			c7.083,0,10.856,4.645,10.856,7.997C44.435,41.663,37.928,43.696,31.5,43.696z M33.579,32.78c-6.01,0-11.81,3.828-12.015,5.022
			c0.001,0.822,3.483,2.894,9.936,2.894s9.935-2.072,9.935-2.919C41.435,36.307,39.174,32.78,33.579,32.78z"/>
		<path id="path-3_57_" d="M38.728,18.174c-4.829,0-10.027-1.501-10.027-4.794c0-3.209,6.629-6.346,11.577-6.346
			c5.532,0,8.478,3.686,8.478,6.346C48.756,16.673,43.558,18.174,38.728,18.174z M31.721,13.419
			c0.298,0.504,2.669,1.755,7.007,1.755c4.458,0,6.838-1.32,7.035-1.845c-0.007-0.934-1.583-3.295-5.485-3.295
			C36.294,10.034,32.251,12.395,31.721,13.419z"/>
		<path id="path-4_50_" d="M42.167,14.325h-5c-0.828,0-1.5-0.672-1.5-1.5s0.672-1.5,1.5-1.5h5c0.828,0,1.5,0.672,1.5,1.5
			S42.995,14.325,42.167,14.325z"/>
		<path id="path-5_40_" d="M35.167,38.325h-6c-0.828,0-1.5-0.672-1.5-1.5c0-0.828,0.672-1.5,1.5-1.5h6c0.828,0,1.5,0.672,1.5,1.5
			C36.667,37.653,35.995,38.325,35.167,38.325z"/>
	</g>
</g>
<g>
</g>
<g>
</g>
<g>
</g>
<g>
</g>
<g>
</g>
<g>
</g>
<g>
</g>
<g>
</g>
<g>
</g>
<g>
</g>
<g>
</g>
<g>
</g>
<g>
</g>
<g>
</g>
<g>
</g>
</svg>
