<?xml version="1.0" encoding="iso-8859-1"?>
<!-- Generator: Adobe Illustrator 19.1.0, SVG Export Plug-In . SVG Version: 6.00 Build 0)  -->
<svg version="1.1" id="Capa_1" xmlns="http://www.w3.org/2000/svg" xmlns:xlink="http://www.w3.org/1999/xlink" x="0px" y="0px"
	 viewBox="0 0 63.002 63.002" style="enable-background:new 0 0 63.002 63.002;" xml:space="preserve">
<g>
	<g id="group-6svg">
		<path id="path-1_54_" d="M19.212,41.419c-4.124,0-7.479-3.355-7.479-7.479c0-4.124,3.355-7.48,7.479-7.48s7.479,3.356,7.479,7.48
			C26.691,38.064,23.336,41.419,19.212,41.419z M19.212,29.46c-2.47,0-4.479,2.009-4.479,4.48c0,2.47,2.009,4.479,4.479,4.479
			s4.479-2.009,4.479-4.479C23.691,31.469,21.682,29.46,19.212,29.46z"/>
		<path id="path-2_54_" d="M31.5,41.419c-4.124,0-7.479-3.355-7.479-7.479c0-4.124,3.355-7.48,7.479-7.48s7.48,3.356,7.48,7.48
			C38.98,38.064,35.624,41.419,31.5,41.419z M31.5,29.46c-2.469,0-4.479,2.009-4.479,4.48c0,2.47,2.01,4.479,4.479,4.479
			c2.47,0,4.48-2.009,4.48-4.479C35.98,31.469,33.97,29.46,31.5,29.46z"/>
		<path id="path-3_54_" d="M43.788,41.419c-4.124,0-7.479-3.355-7.479-7.479c0-4.124,3.355-7.48,7.479-7.48s7.48,3.356,7.48,7.48
			C51.268,38.064,47.912,41.419,43.788,41.419z M43.788,29.46c-2.469,0-4.479,2.009-4.479,4.48c0,2.47,2.01,4.479,4.479,4.479
			c2.47,0,4.48-2.009,4.48-4.479C48.268,31.469,46.258,29.46,43.788,29.46z"/>
		<path id="path-4_48_" d="M25.356,52.171c-4.124,0-7.48-3.355-7.48-7.479s3.356-7.48,7.48-7.48s7.479,3.356,7.479,7.48
			S29.48,52.171,25.356,52.171z M25.356,40.213c-2.47,0-4.48,2.009-4.48,4.479c0,2.47,2.01,4.479,4.48,4.479
			c2.469,0,4.479-2.009,4.479-4.479C29.835,42.222,27.825,40.213,25.356,40.213z"/>
		<path id="path-5_38_" d="M37.645,52.171c-4.124,0-7.48-3.355-7.48-7.479s3.356-7.48,7.48-7.48s7.478,3.356,7.478,7.48
			S41.769,52.171,37.645,52.171z M37.645,40.213c-2.47,0-4.48,2.009-4.48,4.479c0,2.47,2.01,4.479,4.48,4.479
			c2.469,0,4.478-2.009,4.478-4.479C42.123,42.222,40.114,40.213,37.645,40.213z"/>
		<path id="path-6_27_" d="M25.356,29.428c-4.124,0-7.48-3.356-7.48-7.48s3.356-7.479,7.48-7.479s7.479,3.355,7.479,7.479
			S29.48,29.428,25.356,29.428z M25.356,17.469c-2.47,0-4.48,2.009-4.48,4.479s2.01,4.48,4.48,4.48c2.469,0,4.479-2.01,4.479-4.48
			S27.825,17.469,25.356,17.469z"/>
		<path id="path-7_18_" d="M37.645,29.428c-4.124,0-7.48-3.356-7.48-7.48s3.356-7.479,7.48-7.479s7.478,3.355,7.478,7.479
			S41.769,29.428,37.645,29.428z M37.645,17.469c-2.47,0-4.48,2.009-4.48,4.479s2.01,4.48,4.48,4.48c2.469,0,4.478-2.01,4.478-4.48
			S40.114,17.469,37.645,17.469z"/>
		<path id="path-8_15_" d="M31.146,63.002c-4.124,0-7.48-3.356-7.48-7.48s3.356-7.479,7.48-7.479s7.479,3.355,7.479,7.479
			S35.27,63.002,31.146,63.002z M31.146,51.043c-2.47,0-4.48,2.009-4.48,4.479c0,2.47,2.01,4.48,4.48,4.48
			c2.469,0,4.479-2.01,4.479-4.48C35.625,53.052,33.615,51.043,31.146,51.043z"/>
		<path id="path-9_13_" d="M31.663,23.448c-0.691,0-1.313-0.481-1.464-1.184c-0.168-0.781-3.99-19.158,7.046-22.208
			c0.795-0.223,1.623,0.246,1.846,1.046c0.22,0.798-0.248,1.625-1.047,1.845c-8.319,2.299-4.947,18.523-4.912,18.686
			c0.173,0.81-0.343,1.608-1.152,1.782C31.874,23.437,31.768,23.448,31.663,23.448z"/>
	</g>
</g>
<g>
</g>
<g>
</g>
<g>
</g>
<g>
</g>
<g>
</g>
<g>
</g>
<g>
</g>
<g>
</g>
<g>
</g>
<g>
</g>
<g>
</g>
<g>
</g>
<g>
</g>
<g>
</g>
<g>
</g>
</svg>
