<?xml version="1.0" encoding="iso-8859-1"?>
<!-- Generator: Adobe Illustrator 19.1.0, SVG Export Plug-In . SVG Version: 6.00 Build 0)  -->
<svg version="1.1" id="Capa_1" xmlns="http://www.w3.org/2000/svg" xmlns:xlink="http://www.w3.org/1999/xlink" x="0px" y="0px"
	 viewBox="0 0 63.001 63.001" style="enable-background:new 0 0 63.001 63.001;" xml:space="preserve">
<g>
	<g id="group-20svg">
		<path id="path-1_11_" d="M14.356,63.001c-3.718,0-7.509-0.513-11.267-1.526c-0.643-0.173-1.094-0.749-1.109-1.414
			c-0.014-0.666,0.411-1.262,1.045-1.464c0.303-0.096,30.358-9.99,36.593-40.181c0.034-0.166,0.096-0.324,0.183-0.469
			c0.158-0.264,3.954-6.471,10.117-6.471c1.5,0,3.011,0.375,4.49,1.114c3.123,1.562,5.166,3.765,6.072,6.548
			c1.325,4.063,0.225,9.407-3.36,16.338C53.161,43.132,37.76,63.001,14.356,63.001z M8.564,59.563
			c1.943,0.291,3.879,0.438,5.792,0.438c21.906,0,36.373-18.698,40.1-25.903c3.196-6.181,4.234-10.771,3.172-14.031
			c-0.657-2.02-2.15-3.588-4.562-4.793c-1.058-0.529-2.118-0.798-3.148-0.798c-3.971,0-6.803,3.894-7.419,4.819
			C37.35,43.6,17.646,55.35,8.564,59.563z"/>
		<path id="path-2_11_" d="M56.669,30.411c-0.079,0-0.16-0.006-0.241-0.019c-0.818-0.133-1.374-0.903-1.242-1.721
			c0.203-1.257-1.172-4.121-2.479-6.272l-3.433,2.156c-0.49,0.308-1.114,0.307-1.604-0.006c-0.488-0.311-0.754-0.877-0.682-1.452
			c0.079-0.631,0.157-1.306,0.225-1.956c-2.57,0.796-5.973-0.281-6.388-0.418c-0.786-0.261-1.212-1.11-0.951-1.896
			c0.261-0.786,1.109-1.213,1.894-0.952c1.643,0.54,4.875,1.029,5.284-0.217c0.168-0.507,0.673-2.047,2.12-1.725
			c1.196,0.27,1.494,0.914,1.153,4.42l2.042-1.283c0.683-0.426,1.579-0.242,2.034,0.421c0.718,1.044,4.27,6.417,3.746,9.659
			C58.029,29.887,57.391,30.411,56.669,30.411z"/>
		<path id="path-3_11_" d="M28.282,54.449c-0.493,0-0.977-0.243-1.263-0.689c-0.448-0.697-0.246-1.625,0.452-2.073
			c11.231-7.217,13.686-16.455,13.71-16.547c0.204-0.804,1.021-1.291,1.823-1.085c0.802,0.204,1.289,1.02,1.085,1.823
			c-0.109,0.424-2.781,10.483-14.997,18.333C28.841,54.373,28.56,54.449,28.282,54.449z"/>
		<path id="path-4_11_" d="M54.881,14.72c-0.597,0-1.162-0.359-1.395-0.949c-0.303-0.765,0.068-1.629,0.827-1.939
			c0.22-0.096,4.454-2.051,2.941-10.052c-0.155-0.814,0.381-1.599,1.194-1.753c0.816-0.156,1.6,0.381,1.753,1.195
			c2.003,10.584-4.491,13.283-4.769,13.393C55.252,14.686,55.064,14.72,54.881,14.72z"/>
	</g>
</g>
<g>
</g>
<g>
</g>
<g>
</g>
<g>
</g>
<g>
</g>
<g>
</g>
<g>
</g>
<g>
</g>
<g>
</g>
<g>
</g>
<g>
</g>
<g>
</g>
<g>
</g>
<g>
</g>
<g>
</g>
</svg>
