<?xml version="1.0" encoding="iso-8859-1"?>
<!-- Generator: Adobe Illustrator 19.1.0, SVG Export Plug-In . SVG Version: 6.00 Build 0)  -->
<svg version="1.1" id="Capa_1" xmlns="http://www.w3.org/2000/svg" xmlns:xlink="http://www.w3.org/1999/xlink" x="0px" y="0px"
	 viewBox="0 0 63 63" style="enable-background:new 0 0 63 63;" xml:space="preserve">
<g>
	<g id="group-7svg">
		<path id="path-1_65_" d="M30.838,41.194c-3.564,0-6.928-1.751-8.993-4.628c-0.094,0.003-0.073,0.006-0.17,0.006
			c-6.104,0-10.953-4.956-10.953-11.047c0-0.016,0-0.032,0-0.048c-2-2.098-3.827-5.033-3.827-8.169c0-1.49,1.378-1.517,2.236-1.533
			c0.526-0.01,1.249-0.018,2.153-0.026c1.794-0.015,4.173-0.027,6.566-0.034c3.681-0.013,7.354-0.018,8.854-0.02
			c0.427-0.424,1.041-0.845,1.818-0.845c0.414,0,1.198,0.129,1.823,0.995c0.059,0.051,0.209,0.097,0.761,0.097l0.526-0.003
			c0.153,0,0.299,0.004,0.443,0.007l0.335,0.007c0.265,0,0.342-0.024,0.355-0.028c0.44-0.528,1.097-0.836,1.802-0.836
			c0.909,0,1.678,0.506,2.19,0.968c2.475-0.021,11.629-0.096,16.041-0.096c3.116,0,3.953,0,3.953,1.53
			c0,3.526-1.646,6.571-4.658,8.658c-0.347,5.794-5.17,10.401-11.049,10.401c-0.388,0-0.776-0.019-1.161-0.06
			C37.82,39.415,34.442,41.194,30.838,41.194z M22.611,33.5c0.526,0,1.018,0.276,1.29,0.735c1.471,2.479,4.065,3.959,6.937,3.959
			c2.881,0,5.564-1.562,7.003-4.077c0.32-0.56,0.961-0.854,1.597-0.726c0.525,0.106,1.065,0.159,1.606,0.159
			c4.449,0,8.068-3.619,8.068-8.068c-0.005-0.03-0.007-0.093-0.007-0.157c0-0.525,0.275-1.025,0.726-1.296
			c1.519-0.915,3.284-2.09,3.782-5.09c-0.233,0-0.503,0-0.815,0c-5.095,0-16.541,0.111-16.655,0.112
			c-0.465-0.003-0.882-0.193-1.17-0.539c-0.09-0.107-0.198-0.208-0.294-0.289c-0.848,0.727-1.86,0.728-2.269,0.728
			c-0.136,0-0.275-0.003-0.417-0.006l-0.357-0.007l-0.531,0.004c-0.588,0-1.696,0-2.608-0.724c-0.282,0.3-0.679,0.477-1.096,0.477
			c-5.813,0.004-14.122,0.025-17.491,0.067c0.352,1.907,1.398,3.595,3.033,4.852c0.402,0.308,0.62,0.799,0.581,1.304
			c-0.019,0.257-0.033,0.415-0.033,0.607c0,4.437,3.619,8.047,8.069,8.047c0.299,0,0.595-0.031,0.887-0.064
			C22.502,33.503,22.557,33.5,22.611,33.5z"/>
		<path id="path-2_65_" d="M50.604,26.826c-0.191,0-0.385-0.037-0.573-0.114l-15.513-6.413c-0.766-0.317-1.13-1.194-0.813-1.96
			c0.316-0.765,1.191-1.131,1.959-0.813l15.514,6.413c0.765,0.317,1.13,1.194,0.812,1.96C51.752,26.477,51.193,26.826,50.604,26.826
			z"/>
		<path id="path-3_65_" d="M39.143,36.363c-0.618,0-1.197-0.384-1.414-0.999l-5.297-14.948c-0.277-0.781,0.132-1.638,0.913-1.915
			c0.784-0.276,1.638,0.132,1.915,0.913l5.297,14.948c0.276,0.78-0.132,1.638-0.913,1.915
			C39.478,36.335,39.309,36.363,39.143,36.363z"/>
		<path id="path-4_58_" d="M22.61,36.504c-0.22,0-0.444-0.049-0.655-0.152c-0.745-0.363-1.055-1.261-0.692-2.006l7.452-15.309
			c0.362-0.745,1.263-1.055,2.005-0.692c0.745,0.363,1.054,1.261,0.692,2.006L23.96,35.66C23.7,36.193,23.166,36.504,22.61,36.504z"
			/>
		<path id="path-5_46_" d="M12.029,26.331c-0.631,0-1.219-0.403-1.425-1.036c-0.257-0.788,0.173-1.634,0.961-1.891l16.837-5.487
			c0.789-0.258,1.635,0.175,1.891,0.962c0.257,0.787-0.174,1.634-0.961,1.891l-16.838,5.487
			C12.34,26.307,12.183,26.331,12.029,26.331z"/>
		<path id="path-6_33_" d="M31.5,48.15C14.131,48.15,0,34.019,0,16.65c0-0.828,0.672-1.5,1.5-1.5S3,15.822,3,16.65
			c0,15.715,12.785,28.5,28.5,28.5S60,32.365,60,16.65c0-0.828,0.672-1.5,1.5-1.5c0.828,0,1.5,0.672,1.5,1.5
			C63,34.019,48.869,48.15,31.5,48.15z"/>
	</g>
</g>
<g>
</g>
<g>
</g>
<g>
</g>
<g>
</g>
<g>
</g>
<g>
</g>
<g>
</g>
<g>
</g>
<g>
</g>
<g>
</g>
<g>
</g>
<g>
</g>
<g>
</g>
<g>
</g>
<g>
</g>
</svg>
