<?xml version="1.0" encoding="iso-8859-1"?>
<!-- Generator: Adobe Illustrator 19.1.0, SVG Export Plug-In . SVG Version: 6.00 Build 0)  -->
<svg version="1.1" id="Capa_1" xmlns="http://www.w3.org/2000/svg" xmlns:xlink="http://www.w3.org/1999/xlink" x="0px" y="0px"
	 viewBox="0 0 63.02 63.02" style="enable-background:new 0 0 63.02 63.02;" xml:space="preserve">
<g>
	<g id="group-58svg">
		<path id="path-1_52_" d="M20.466,61.512c-0.287,0-0.569-0.005-0.851-0.016l-2.757-0.106c-12.11-0.46-15.765-0.599-16.692-2.994
			c-0.71-1.831,0.96-3.678,3.046-5.729c0.178-0.174,0.397-0.301,0.636-0.371c0.077-0.025,9.616-3.329,7.829-25.888
			c-0.47-5.929,1.421-11.379,5.469-15.759c5.209-5.638,13.849-9.141,22.548-9.141c10.467,0,18.627,4.827,21.823,12.914
			c3.003,7.596,1.488,16.172-4.38,24.802C48.639,51.722,32.531,61.512,20.466,61.512z M3.121,57.29
			c1.477,0.632,6.996,0.842,13.851,1.102l2.76,0.105c11.249,0.437,26.75-8.938,34.924-20.959c3.685-5.419,7.382-13.637,4.072-22.013
			C56,8.626,48.884,4.508,39.694,4.508c-7.889,0-15.685,3.133-20.345,8.177c-3.464,3.75-5.083,8.413-4.682,13.486
			c1.814,22.88-7.46,27.996-9.579,28.861C3.842,56.274,3.326,56.938,3.121,57.29z"/>
		<path id="path-2_52_" d="M28.013,47.702c-0.188,0-0.374-0.004-0.56-0.011l-1.743-0.067c-8.129-0.309-10.314-0.392-11.031-2.244
			c-0.615-1.59,0.863-3.043,2.052-4.211c0.178-0.173,0.396-0.302,0.636-0.371c0.025-0.009,5.63-2.067,4.545-15.77
			c-0.309-3.902,0.935-7.488,3.598-10.37c3.391-3.669,9.001-5.949,14.644-5.949c6.844,0,12.187,3.179,14.292,8.504
			c1.938,4.903,0.936,10.647-2.823,16.174C46.166,41.414,35.795,47.702,28.013,47.702z M18.022,44.149
			c1.457,0.236,4.45,0.349,7.803,0.476l1.746,0.068c6.785,0.262,16.59-5.666,21.572-12.993c2.252-3.311,4.516-8.321,2.514-13.385
			c-1.636-4.136-5.936-6.606-11.503-6.606c-4.832,0-9.599,1.91-12.441,4.985c-2.109,2.283-3.054,5.008-2.81,8.097
			c1.137,14.369-4.624,17.991-6.28,18.728C18.37,43.772,18.174,43.98,18.022,44.149z"/>
		<path id="path-3_52_" d="M32.181,36.937c-0.088,0-0.174-0.002-0.26-0.006l-0.697-0.026c-3.638-0.138-4.736-0.18-5.237-1.475
			c-0.46-1.188,0.51-2.143,1.032-2.656c0.224-0.22,0.323-0.323,0.633-0.371c-0.005-0.01,1.545-0.853,1.184-5.404
			c-0.144-1.823,0.437-3.5,1.681-4.846c1.55-1.677,3.995-2.679,6.543-2.679c3.132,0,5.591,1.489,6.577,3.984
			c0.892,2.255,0.456,4.859-1.226,7.333C40.03,34.294,35.631,36.937,32.181,36.937z M30.376,33.869
			c0.31,0.013,0.633,0.025,0.962,0.038l0.843,0.03c2.42,0,5.969-2.213,7.749-4.832c0.783-1.151,1.578-2.874,0.918-4.544
			c-0.767-1.937-3.094-2.087-3.788-2.087c-1.7,0-3.362,0.657-4.34,1.715c-0.671,0.726-0.972,1.592-0.893,2.573
			C32.126,30.554,31.291,32.685,30.376,33.869z"/>
	</g>
</g>
<g>
</g>
<g>
</g>
<g>
</g>
<g>
</g>
<g>
</g>
<g>
</g>
<g>
</g>
<g>
</g>
<g>
</g>
<g>
</g>
<g>
</g>
<g>
</g>
<g>
</g>
<g>
</g>
<g>
</g>
</svg>
