<?xml version="1.0" encoding="iso-8859-1"?>
<!-- Generator: Adobe Illustrator 19.1.0, SVG Export Plug-In . SVG Version: 6.00 Build 0)  -->
<svg version="1.1" id="Capa_1" xmlns="http://www.w3.org/2000/svg" xmlns:xlink="http://www.w3.org/1999/xlink" x="0px" y="0px"
	 viewBox="0 0 63 63" style="enable-background:new 0 0 63 63;" xml:space="preserve">
<g>
	<g id="group-3svg">
		<path id="path-1_21_" d="M36.157,63L36.157,63c-2.887,0-5.129-0.908-6.279-1.498C28.728,62.092,26.485,63,23.599,63
			c-0.933,0-1.872-0.095-2.795-0.283c-7.873-1.609-12.21-6.744-12.21-14.459c0-4.415,2.055-8.528,5.785-11.582
			c0.92-0.753,3.171-2.612,3.171-2.612c0.051-0.042,0.103-0.08,0.159-0.115c2.857-1.788,3.431-4.908,3.438-9.687
			c-0.118-0.975-0.785-7.663,2.547-11.483c1.525-1.748,3.605-2.635,6.184-2.635c2.477,0,4.496,0.859,6.003,2.552
			c3.391,3.813,2.822,10.63,2.727,11.552c0.006,4.787,0.579,7.912,3.438,9.701c0.056,0.035,0.108,0.073,0.159,0.115
			c0,0,2.252,1.859,3.172,2.612c3.73,3.055,5.784,7.168,5.784,11.582c0,7.715-4.336,12.85-12.21,14.459
			C38.029,62.905,37.089,63,36.157,63z M29.88,58.279c0.297,0,0.593,0.086,0.847,0.26c0.014,0.01,2.216,1.461,5.43,1.461l0,0
			c0.731,0,1.469-0.074,2.195-0.223c6.508-1.33,9.809-5.205,9.809-11.519c0-3.498-1.664-6.787-4.684-9.261
			c-0.826-0.675-2.714-2.234-3.109-2.56c-4.39-2.807-4.76-7.802-4.76-12.269c0-0.057,0.004-0.116,0.01-0.173
			c0.008-0.063,0.69-6.314-1.983-9.31c-0.924-1.037-2.154-1.541-3.757-1.541c-1.697,0-2.981,0.526-3.923,1.607
			c-2.187,2.508-2.057,7.501-1.821,9.213c0.009,0.068,0.014,0.135,0.014,0.204c0,4.466-0.37,9.461-4.761,12.269
			c-0.395,0.326-2.283,1.885-3.108,2.56c-3.021,2.474-4.685,5.763-4.685,9.261c0,6.314,3.301,10.189,9.81,11.519
			C22.13,59.926,22.867,60,23.599,60c3.213,0,5.416-1.451,5.437-1.466C29.29,58.364,29.586,58.279,29.88,58.279z"/>
		<path id="path-2_21_" d="M32.9,48.629l-0.055-7.473l3.902,6.374c0.598,0.978,0.291,2.256-0.687,2.854
			c-0.978,0.599-2.256,0.291-2.854-0.687C33.003,49.366,32.904,48.991,32.9,48.629z"/>
		<path id="path-3_21_" d="M23.998,47.53l3.901-6.374l-0.055,7.473c-0.009,1.147-0.945,2.069-2.091,2.06
			c-1.147-0.008-2.069-0.944-2.06-2.091C23.695,48.21,23.81,47.84,23.998,47.53z"/>
		<path id="path-4_19_" d="M44.296,12.244c-2.264,0-4.632-0.56-7.039-1.664c-0.159-0.077-3.189-1.555-5.693-3.007
			c-0.488-0.283-0.776-0.817-0.745-1.382C30.94,4.05,32.372,0,36.925,0c0.977,0,2.056,0.198,3.204,0.586
			c6.913,2.342,13.267,4.858,13.329,4.883c0.438,0.173,0.768,0.541,0.893,0.993c0.126,0.453,0.032,0.938-0.253,1.312
			C53.958,7.956,50.61,12.244,44.296,12.244z M33.959,5.483c2.204,1.226,4.553,2.372,4.58,2.385
			c1.981,0.908,3.929,1.376,5.757,1.376c2.637,0,4.593-0.964,5.832-1.849c-2.438-0.933-6.587-2.486-10.962-3.967
			C38.329,3.144,37.575,3,36.925,3C34.939,3,34.219,4.478,33.959,5.483z"/>
		<path id="path-5_15_" d="M29.876,13.144c-0.783,0-1.442-0.608-1.495-1.401c-0.128-1.937,0.859-4.863,1.047-5.4
			c0.173-0.605,1.265-3.921,5.041-5.971c0.727-0.396,1.639-0.126,2.034,0.602s0.125,1.639-0.603,2.035
			c-2.873,1.559-3.558,4.048-3.586,4.153c-0.01,0.04-0.027,0.094-0.041,0.133c-0.384,1.083-0.968,3.194-0.898,4.25
			c0.055,0.827-0.571,1.541-1.397,1.596C29.943,13.143,29.91,13.144,29.876,13.144z"/>
	</g>
</g>
<g>
</g>
<g>
</g>
<g>
</g>
<g>
</g>
<g>
</g>
<g>
</g>
<g>
</g>
<g>
</g>
<g>
</g>
<g>
</g>
<g>
</g>
<g>
</g>
<g>
</g>
<g>
</g>
<g>
</g>
</svg>
