<?xml version="1.0" encoding="iso-8859-1"?>
<!-- Generator: Adobe Illustrator 19.1.0, SVG Export Plug-In . SVG Version: 6.00 Build 0)  -->
<svg version="1.1" id="Capa_1" xmlns="http://www.w3.org/2000/svg" xmlns:xlink="http://www.w3.org/1999/xlink" x="0px" y="0px"
	 viewBox="0 0 63.009 63.009" style="enable-background:new 0 0 63.009 63.009;" xml:space="preserve">
<g>
	<g id="group-11svg">
		<path id="path-1_1_" d="M31.505,63.009c-11.829,0-23.849-20.804-23.849-32.428c0-11.786,12.379-19.082,23.849-19.082
			c11.469,0,23.848,7.296,23.848,19.082C55.353,42.205,43.333,63.009,31.505,63.009z M31.505,14.499
			c-10.027,0-20.849,6.149-20.849,16.082c0,10.231,11.045,29.428,20.849,29.428c9.803,0,20.848-19.197,20.848-29.428
			C52.353,20.648,41.531,14.499,31.505,14.499z"/>
		<path id="path-2_1_" d="M15.711,15.865c-0.51,0-0.986-0.227-1.262-0.657c-0.282-0.438-0.317-0.976-0.09-1.446
			c2.104-4.374,6.679-5.68,9.522-6.069c-0.982-1.394-2.549-3.37-3.98-5.043c-0.321-0.376-0.438-0.884-0.31-1.362
			c0.129-0.477,0.484-0.86,0.951-1.025C21.038,0.088,21.583,0,22.16,0c3.408,0,7.624,3.193,9.55,4.819
			c1.946-1.621,6.109-4.724,9.485-4.724c0.581,0,1.129,0.09,1.628,0.266c0.469,0.166,0.825,0.553,0.952,1.034
			c0.126,0.481,0.006,0.993-0.322,1.368c-1.313,1.502-2.742,3.261-3.726,4.596c2.865,0.144,7.282,1.267,9.322,6.457
			c0.181,0.462,0.122,0.984-0.157,1.394s-0.743,0.655-1.239,0.655H40.17c-0.11,0-0.218-0.012-0.325-0.035l-7.927-1.754
			c-0.156,0.008-0.371,0.015-0.687,0.017l-7.554,1.641c-0.094,0.021-0.19,0-0.287,0.002l-7.648,0.129
			C15.731,15.865,15.721,15.865,15.711,15.865z M40.334,12.865h4.741c-1.673-2.035-4.102-2.524-6.045-2.524
			c-0.992,0-1.676,0.136-1.683,0.138c-0.465,0.092-0.945-0.036-1.298-0.35c-0.352-0.313-0.539-0.774-0.5-1.245
			c0.075-0.882,1.118-2.585,3.11-5.078c-1.965,0.915-4.164,2.715-5.602,3.983c-0.231,0.531-0.761,1.076-1.375,1.076
			c-0.001,0-0.002,0-0.003,0c-0.637,0-1.184-0.577-1.399-1.142c-1.451-1.288-3.667-3.024-5.635-3.94
			c2.031,2.585,3.095,4.293,3.169,5.182c0.035,0.429-0.115,0.831-0.413,1.141c-0.3,0.31-0.713,0.47-1.147,0.448l-0.18-0.008
			c-0.901,0-4.705,0.134-7.288,2.321l4.396-0.094l7.565-1.644c0.102-0.022,0.206-0.034,0.31-0.034
			c0.445-0.003,0.647-0.01,0.738-0.017c0.18-0.026,0.368-0.021,0.546,0.019L40.334,12.865z"/>
		<path id="path-3_1_" d="M18.477,29.21c0,0.918-0.744,1.662-1.661,1.662c-0.918,0-1.661-0.744-1.661-1.662
			c0-0.917,0.743-1.661,1.661-1.661C17.733,27.549,18.477,28.293,18.477,29.21z"/>
		<path id="path-4_1_" d="M28.445,29.21c0,0.918-0.743,1.662-1.661,1.662c-0.918,0-1.661-0.744-1.661-1.662
			c0-0.917,0.743-1.661,1.661-1.661C27.702,27.549,28.445,28.293,28.445,29.21z"/>
		<path id="path-5_1_" d="M38.413,29.21c0,0.918-0.743,1.662-1.661,1.662c-0.917,0-1.662-0.744-1.662-1.662
			c0-0.917,0.745-1.661,1.662-1.661C37.67,27.549,38.413,28.293,38.413,29.21z"/>
		<path id="path-6" d="M48.381,29.21c0,0.918-0.744,1.662-1.662,1.662c-0.917,0-1.661-0.744-1.661-1.662
			c0-0.917,0.744-1.661,1.661-1.661C47.637,27.549,48.381,28.293,48.381,29.21z"/>
		<path id="path-7" d="M22.907,36.963c0,0.918-0.743,1.662-1.661,1.662c-0.917,0-1.661-0.744-1.661-1.662
			c0-0.917,0.744-1.661,1.661-1.661C22.164,35.302,22.907,36.046,22.907,36.963z"/>
		<path id="path-8" d="M32.876,36.963c0,0.918-0.745,1.662-1.662,1.662s-1.662-0.744-1.662-1.662c0-0.917,0.745-1.661,1.662-1.661
			S32.876,36.046,32.876,36.963z"/>
		<path id="path-9" d="M42.843,36.963c0,0.918-0.744,1.662-1.661,1.662c-0.918,0-1.661-0.744-1.661-1.662
			c0-0.917,0.743-1.661,1.661-1.661C42.099,35.302,42.843,36.046,42.843,36.963z"/>
		<path id="path-10" d="M22.907,21.934c0,0.917-0.743,1.661-1.661,1.661c-0.917,0-1.661-0.744-1.661-1.661
			c0-0.918,0.744-1.661,1.661-1.661C22.164,20.273,22.907,21.016,22.907,21.934z"/>
		<path id="path-11" d="M32.876,21.934c0,0.917-0.745,1.661-1.662,1.661s-1.662-0.744-1.662-1.661c0-0.918,0.745-1.661,1.662-1.661
			S32.876,21.016,32.876,21.934z"/>
		<path id="path-12" d="M42.843,21.934c0,0.917-0.744,1.661-1.661,1.661c-0.918,0-1.661-0.744-1.661-1.661
			c0-0.918,0.743-1.661,1.661-1.661C42.099,20.273,42.843,21.016,42.843,21.934z"/>
		<path id="path-13" d="M27.337,46.931c0,0.918-0.744,1.661-1.661,1.661c-0.918,0-1.661-0.743-1.661-1.661
			c0-0.917,0.743-1.661,1.661-1.661C26.593,45.27,27.337,46.014,27.337,46.931z"/>
		<path id="path-14" d="M37.305,46.931c0,0.918-0.743,1.661-1.661,1.661c-0.917,0-1.661-0.743-1.661-1.661
			c0-0.917,0.744-1.661,1.661-1.661C36.562,45.27,37.305,46.014,37.305,46.931z"/>
		<path id="path-15" d="M32.876,54.684c0,0.918-0.745,1.661-1.662,1.661s-1.662-0.743-1.662-1.661c0-0.917,0.745-1.661,1.662-1.661
			S32.876,53.767,32.876,54.684z"/>
	</g>
</g>
<g>
</g>
<g>
</g>
<g>
</g>
<g>
</g>
<g>
</g>
<g>
</g>
<g>
</g>
<g>
</g>
<g>
</g>
<g>
</g>
<g>
</g>
<g>
</g>
<g>
</g>
<g>
</g>
<g>
</g>
</svg>
