<?xml version="1.0" encoding="iso-8859-1"?>
<!-- Generator: Adobe Illustrator 19.1.0, SVG Export Plug-In . SVG Version: 6.00 Build 0)  -->
<svg version="1.1" id="Capa_1" xmlns="http://www.w3.org/2000/svg" xmlns:xlink="http://www.w3.org/1999/xlink" x="0px" y="0px"
	 viewBox="0 0 63.5 63.5" style="enable-background:new 0 0 63.5 63.5;" xml:space="preserve">
<g>
	<g id="group-90svg">
		<path id="path-1_88_" d="M49.148,63.5H14.351c-0.431,0-0.841-0.186-1.127-0.51c-0.284-0.324-0.416-0.755-0.36-1.182l4.604-35.636
			c0.035-0.275,0.146-0.534,0.32-0.75c4.22-5.223,5.786-12.65,5.802-12.725C23.733,12,24.346,11.5,25.058,11.5h13.383
			c0.711,0,1.324,0.5,1.469,1.196c0.016,0.075,1.596,7.52,5.802,12.726c0.173,0.216,0.285,0.475,0.32,0.75l4.604,35.636
			c0.055,0.427-0.077,0.858-0.361,1.182C49.99,63.314,49.58,63.5,49.148,63.5z M16.057,60.5h31.385L43.11,26.97
			c-3.474-4.47-5.216-10.052-5.851-12.47H26.24c-0.635,2.418-2.377,8-5.851,12.47L16.057,60.5z"/>
		<path id="path-2_88_" d="M38.741,42c0,0.828-0.672,1.5-1.5,1.5h-10c-0.828,0-1.5-0.672-1.5-1.5V31c0-0.828,0.672-1.5,1.5-1.5h10
			c0.828,0,1.5,0.672,1.5,1.5V42z M28.741,40.5h7v-8h-7V40.5z"/>
		<path id="path-3_87_" d="M38.241,15c-0.828,0-1.5-0.672-1.5-1.5v-12c0-0.828,0.672-1.5,1.5-1.5s1.5,0.672,1.5,1.5v12
			C39.741,14.328,39.069,15,38.241,15z"/>
		<path id="path-4_77_" d="M26.241,15c-0.828,0-1.5-0.672-1.5-1.5v-12c0-0.828,0.672-1.5,1.5-1.5c0.828,0,1.5,0.672,1.5,1.5v12
			C27.741,14.328,27.069,15,26.241,15z"/>
	</g>
</g>
<g>
</g>
<g>
</g>
<g>
</g>
<g>
</g>
<g>
</g>
<g>
</g>
<g>
</g>
<g>
</g>
<g>
</g>
<g>
</g>
<g>
</g>
<g>
</g>
<g>
</g>
<g>
</g>
<g>
</g>
</svg>
