<?xml version="1.0" encoding="iso-8859-1"?>
<!-- Generator: Adobe Illustrator 19.1.0, SVG Export Plug-In . SVG Version: 6.00 Build 0)  -->
<svg version="1.1" id="Capa_1" xmlns="http://www.w3.org/2000/svg" xmlns:xlink="http://www.w3.org/1999/xlink" x="0px" y="0px"
	 viewBox="0 0 63.001 63.001" style="enable-background:new 0 0 63.001 63.001;" xml:space="preserve">
<g>
	<g id="group-25svg">
		<path id="path-1_16_" d="M31.5,63.001c-6.308,0-9.608-13.85-9.608-27.53s3.3-27.529,9.608-27.529
			c6.307,0,9.608,13.849,9.608,27.529S37.807,63.001,31.5,63.001z M31.5,10.941c-2.695,0-6.608,9.556-6.608,24.53S28.805,60,31.5,60
			c2.694,0,6.608-9.555,6.608-24.529S34.194,10.941,31.5,10.941z"/>
		<path id="path-2_16_" d="M31.499,10.942c-0.245,0-0.493-0.06-0.724-0.187c-0.724-0.399-0.988-1.31-0.591-2.035
			c0.045-0.083,2.099-3.96,0.168-6.254c-0.533-0.633-0.452-1.58,0.182-2.113c0.634-0.534,1.58-0.452,2.113,0.182
			c3.272,3.886,0.294,9.398,0.166,9.631C32.54,10.662,32.027,10.942,31.499,10.942z"/>
		<path id="path-3_16_" d="M34.15,41.296c-0.802,0-1.467-0.642-1.498-1.45c-0.031-0.829,0.614-1.529,1.442-1.561
			c2.34-0.088,3.968-0.004,4.036,0c0.827,0.045,1.46,0.751,1.415,1.578c-0.045,0.827-0.754,1.479-1.578,1.424
			c-0.016,0-1.566,0.009-3.759,0.009C34.189,41.296,34.17,41.296,34.15,41.296z"/>
		<path id="path-4_14_" d="M30.473,25.296c-0.801,0-1.466-0.856-1.498-1.665c-0.031-0.828,0.615-1.635,1.443-1.667
			c2.339-0.087,3.968-0.056,4.035-0.053c0.827,0.045,1.46,0.724,1.415,1.551c-0.045,0.827-0.76,1.682-1.578,1.625
			c-0.016-0.001-1.566-0.791-3.759,0.209C30.512,25.296,30.493,25.296,30.473,25.296z"/>
		<path id="path-5_10_" d="M30.574,32.296h-6c-0.828,0-1.5-0.671-1.5-1.5c0-0.828,0.672-1.5,1.5-1.5h6c0.828,0,1.5,0.672,1.5,1.5
			C32.074,31.625,31.402,32.296,30.574,32.296z"/>
		<path id="path-6_7_" d="M29.574,45.296h-6c-0.828,0-1.5-0.671-1.5-1.5c0-0.828,0.672-1.5,1.5-1.5h6c0.828,0,1.5,0.672,1.5,1.5
			C31.074,44.625,30.402,45.296,29.574,45.296z"/>
	</g>
</g>
<g>
</g>
<g>
</g>
<g>
</g>
<g>
</g>
<g>
</g>
<g>
</g>
<g>
</g>
<g>
</g>
<g>
</g>
<g>
</g>
<g>
</g>
<g>
</g>
<g>
</g>
<g>
</g>
<g>
</g>
</svg>
