<?xml version="1.0" encoding="iso-8859-1"?>
<!-- Generator: Adobe Illustrator 19.1.0, SVG Export Plug-In . SVG Version: 6.00 Build 0)  -->
<svg version="1.1" id="Capa_1" xmlns="http://www.w3.org/2000/svg" xmlns:xlink="http://www.w3.org/1999/xlink" x="0px" y="0px"
	 viewBox="0 0 62.995 62.995" style="enable-background:new 0 0 62.995 62.995;" xml:space="preserve">
<g>
	<g id="group-5svg">
		<path id="path-1_43_" d="M28.683,57.463c-12.923,0-24.86-7.01-28.383-16.668c-0.521-1.449-0.354-2.88,0.432-3.999
			c1.125-1.599,3.367-2.094,5.126-1.073c5.315,3.089,11.945,4.86,18.189,4.86c3.663,0,7.16-0.597,10.392-1.777
			c10.556-3.85,17.309-13.589,19.883-20.759c0.57-1.586,1.988-2.611,3.611-2.611c1.72,0,3.244,1.115,3.881,2.839
			c2.216,6.075,1.217,13.879-2.645,20.949c-4.116,7.534-10.75,13.276-18.681,16.168C36.722,56.766,32.75,57.463,28.683,57.463z
			 M3.838,38.161c-0.253,0-0.49,0.132-0.651,0.36c-0.128,0.181-0.309,0.577-0.09,1.184c3.077,8.44,14.068,14.758,25.586,14.758
			c3.715,0,7.341-0.636,10.778-1.889c7.244-2.643,13.308-7.895,17.075-14.789c3.455-6.323,4.385-13.205,2.486-18.409
			c-0.261-0.708-0.73-0.94-1.089-0.94c-0.256,0-0.602,0.109-0.788,0.625c-2.927,8.153-10.16,18.363-21.678,22.564
			c-3.563,1.299-7.406,1.958-11.42,1.958c-6.759,0-13.938-1.919-19.697-5.266C4.173,38.214,4.001,38.161,3.838,38.161z"/>
		<path id="path-2_43_" d="M61.493,24.925c-0.741,0-1.386-0.549-1.485-1.304c-0.575-4.359-1.264-11.197-0.588-15.09h-5.523
			c1.385,3.607,3.602,10.7,1.366,14.46c-0.423,0.713-1.345,0.947-2.056,0.523c-0.712-0.424-0.946-1.344-0.523-2.056
			c1.595-2.682-0.623-9.893-2.396-13.808c-0.21-0.464-0.171-1.004,0.105-1.432c0.277-0.428,0.751-0.687,1.261-0.687h9.841
			c0.6,0,1.142,0.357,1.378,0.907c0.237,0.551,0.123,1.19-0.289,1.625c-0.786,1.186-0.439,8.811,0.398,15.167
			c0.109,0.821-0.469,1.574-1.291,1.683C61.625,24.922,61.558,24.925,61.493,24.925z"/>
		<path id="path-3_43_" d="M30.354,51.8c-5.003,0-8.413-1.591-8.655-1.707c-0.747-0.359-1.061-1.255-0.703-2.002
			c0.359-0.745,1.255-1.059,1.999-0.704c0.382,0.181,9.014,4.125,18.855-1.993c0.703-0.437,1.628-0.222,2.066,0.482
			c0.437,0.704,0.222,1.629-0.482,2.066C38.631,50.928,34.056,51.8,30.354,51.8z"/>
	</g>
</g>
<g>
</g>
<g>
</g>
<g>
</g>
<g>
</g>
<g>
</g>
<g>
</g>
<g>
</g>
<g>
</g>
<g>
</g>
<g>
</g>
<g>
</g>
<g>
</g>
<g>
</g>
<g>
</g>
<g>
</g>
</svg>
