<?xml version="1.0" encoding="iso-8859-1"?>
<!-- Generator: Adobe Illustrator 19.1.0, SVG Export Plug-In . SVG Version: 6.00 Build 0)  -->
<svg version="1.1" id="Capa_1" xmlns="http://www.w3.org/2000/svg" xmlns:xlink="http://www.w3.org/1999/xlink" x="0px" y="0px"
	 viewBox="0 0 62.429 62.429" style="enable-background:new 0 0 62.429 62.429;" xml:space="preserve">
<g>
	<g id="group-18svg">
		<path id="path-1_8_" d="M35.169,38.679c-1.257,0-2.559-0.199-3.878-0.594c-1.319,0.395-2.624,0.594-3.884,0.594
			c-4.918,0-8.007-2.951-9.344-4.591c-4.63,1.746-8.065,1.449-10.155-0.756c-1.629-1.719-1.858-4.024-1.878-4.986
			c-3.326-6.887-4.283-11.647-3.012-14.961c1.262-3.287,4.331-4.524,7.298-5.721c2.346-0.946,4.561-1.84,5.9-3.666
			c1.833-2.499,3.884-3.766,6.094-3.766c1.739,0,3.206,0.809,4.281,1.679C27.452,0.541,28.896,0,30.265,0
			c0.41,0,0.766,0.044,1.023,0.09C31.542,0.044,31.892,0,32.294,0c1.343,0,2.761,0.538,3.61,1.898
			c1.068-0.865,2.522-1.666,4.245-1.666c2.203,0,4.25,1.267,6.083,3.766c1.339,1.826,3.551,2.719,5.894,3.665
			c2.963,1.197,6.026,2.433,7.286,5.717c1.27,3.313,0.313,8.073-3.013,14.961c-0.012,0.967-0.224,3.273-1.839,4.993
			c-1.177,1.253-2.796,1.888-4.811,1.888h-0.001c-1.528,0-3.307-0.38-5.3-1.131C43.123,35.737,40.068,38.679,35.169,38.679z
			 M31.291,35.012c0.16,0,0.32,0.026,0.475,0.078c1.174,0.391,2.319,0.589,3.403,0.589c4.954,0,7.429-4.135,7.453-4.176
			c0.381-0.653,1.188-0.921,1.886-0.622c2.076,0.89,3.84,1.341,5.24,1.341h0.001c1.17,0,2.028-0.308,2.624-0.942
			c1.097-1.167,1.024-3.16,1.023-3.18c-0.016-0.259,0.036-0.519,0.15-0.752c3.02-6.178,4.022-10.395,3.064-12.894
			c-0.791-2.064-3.023-2.965-5.607-4.009c-2.506-1.012-5.347-2.159-7.191-4.672c-1.235-1.686-2.468-2.541-3.663-2.541
			c-1.715,0-3.299,1.809-3.717,2.443c-0.363,0.545-1.038,0.795-1.665,0.613c-0.628-0.179-1.068-0.746-1.085-1.401
			C33.63,3,32.793,3,32.294,3c-0.335,0-0.595,0.068-0.598,0.069c-0.259,0.07-0.554,0.073-0.816-0.002v0.001
			C30.879,3.068,30.61,3,30.265,3c-0.678,0-1.406,0.145-1.454,1.887c-0.017,0.653-0.456,1.22-1.083,1.401
			c-0.626,0.179-1.299-0.065-1.663-0.608c-0.46-0.677-2.039-2.448-3.755-2.448c-1.202,0-2.439,0.855-3.674,2.541
			c-1.845,2.514-4.689,3.661-7.198,4.673C8.849,11.49,6.613,12.392,5.82,14.46c-0.959,2.498,0.042,6.714,3.061,12.888
			c0.112,0.229,0.164,0.484,0.15,0.739c-0.001,0.012-0.072,2.006,1.066,3.193c1.334,1.392,4.086,1.235,7.899-0.399
			c0.69-0.297,1.495-0.035,1.88,0.611c0.1,0.165,2.602,4.187,7.531,4.187c1.088,0,2.234-0.198,3.409-0.589
			C30.971,35.038,31.131,35.012,31.291,35.012z"/>
		<path id="path-2_8_" d="M37.264,16.955c-0.143,0-0.287-0.021-0.43-0.063c-0.794-0.237-1.245-1.072-1.009-1.866
			c0.045-0.152,1.147-3.739,4.474-5.383c2.173-1.073,4.714-1.07,7.554,0.009c0.775,0.294,1.164,1.16,0.87,1.935
			c-0.294,0.776-1.161,1.162-1.936,0.869c-2.029-0.772-3.764-0.813-5.159-0.124c-2.134,1.055-2.92,3.526-2.928,3.551
			C38.506,16.533,37.909,16.955,37.264,16.955z"/>
		<path id="path-3_8_" d="M17.463,16.012c-0.143,0-0.286-0.021-0.43-0.063c-0.794-0.236-1.245-1.072-1.009-1.866
			c0.045-0.152,1.147-3.738,4.474-5.383c2.172-1.073,4.714-1.07,7.555,0.009c0.774,0.294,1.163,1.16,0.869,1.935
			c-0.294,0.775-1.16,1.161-1.936,0.869c-2.029-0.771-3.763-0.813-5.159-0.124c-2.134,1.055-2.92,3.526-2.928,3.551
			C18.705,15.591,18.108,16.012,17.463,16.012z"/>
		<path id="path-4_8_" d="M21.234,32.041c-0.142,0-0.286-0.02-0.429-0.063c-0.794-0.236-1.246-1.072-1.009-1.865
			c0.045-0.152,1.146-3.739,4.473-5.384c2.173-1.074,4.714-1.07,7.555,0.009c0.775,0.294,1.163,1.161,0.869,1.935
			c-0.294,0.776-1.16,1.164-1.935,0.87c-2.03-0.772-3.764-0.814-5.159-0.124c-2.134,1.054-2.92,3.525-2.928,3.55
			C22.476,31.62,21.88,32.041,21.234,32.041z"/>
		<path id="path-5_5_" d="M40.093,29.213c-0.143,0-0.286-0.021-0.429-0.063c-0.795-0.237-1.246-1.072-1.01-1.866
			c0.045-0.152,1.147-3.739,4.474-5.383c2.173-1.074,4.714-1.07,7.555,0.008c0.774,0.295,1.163,1.161,0.869,1.935
			c-0.294,0.776-1.161,1.163-1.936,0.87c-2.029-0.771-3.764-0.813-5.159-0.124c-2.134,1.055-2.92,3.525-2.928,3.55
			C41.335,28.791,40.738,29.213,40.093,29.213z"/>
		<path id="path-6_3_" d="M12.748,25.441c-0.143,0-0.286-0.021-0.43-0.063c-0.794-0.237-1.245-1.072-1.008-1.866
			c0.044-0.152,1.146-3.738,4.473-5.383c2.172-1.074,4.714-1.07,7.555,0.009c0.774,0.294,1.163,1.161,0.869,1.935
			c-0.294,0.776-1.16,1.162-1.936,0.87c-2.03-0.772-3.765-0.814-5.159-0.124c-2.134,1.054-2.92,3.525-2.928,3.549
			C13.99,25.019,13.394,25.441,12.748,25.441z"/>
		<path id="path-7_3_" d="M36.276,62.429H26.258c-0.635,0-1.201-0.399-1.413-0.998l-9.814-27.632
			c-0.139-0.391-0.11-0.821,0.08-1.189c0.19-0.369,0.524-0.642,0.922-0.756c0.684-0.194,1.445-0.685,1.711-0.822
			c0.272-0.242,0.626-0.603,0.996-0.603c0.002,0,0.005,0,0.007,0c0.462,0,0.897,0.442,1.181,0.807
			c0.032,0.042,3.506,4.539,8.196,4.539c0.95,0,1.907-0.126,2.844-0.484c0.307-0.116,0.642-0.101,0.96-0.01
			c0.012,0.004,1.613,0.476,3.637,0.476c3.438,0,5.867-1.236,7.221-3.689c0.368-0.666,1.174-0.949,1.881-0.661
			c0.704,0.288,1.082,1.06,0.878,1.792L37.722,61.33C37.541,61.979,36.95,62.429,36.276,62.429z M27.316,59.429h7.821l6.078-21.856
			c-1.601,0.792-3.497,1.198-5.65,1.198c-1.763,0-3.25-0.284-3.988-0.456c-1.134,0.38-2.293,0.572-3.453,0.572
			c-4.658,0-8.199-3.047-9.736-4.647c-0.005,0.002-0.01,0.004-0.015,0.006L27.316,59.429z M33.015,53.015
			c-0.56,0-1.079-0.313-1.336-0.82l-4.872-9.586c-0.237-0.465-0.215-1.019,0.058-1.464c0.273-0.445,0.757-0.716,1.278-0.716h7.387
			c0.465,0,0.904,0.216,1.188,0.584s0.382,0.847,0.263,1.297l-2.514,9.586c-0.158,0.602-0.672,1.044-1.291,1.111
			C33.122,53.012,33.068,53.015,33.015,53.015z M30.589,43.429l1.976,3.891l1.021-3.891H30.589z"/>
	</g>
</g>
<g>
</g>
<g>
</g>
<g>
</g>
<g>
</g>
<g>
</g>
<g>
</g>
<g>
</g>
<g>
</g>
<g>
</g>
<g>
</g>
<g>
</g>
<g>
</g>
<g>
</g>
<g>
</g>
<g>
</g>
</svg>
