<?xml version="1.0" encoding="iso-8859-1"?>
<!-- Generator: Adobe Illustrator 19.1.0, SVG Export Plug-In . SVG Version: 6.00 Build 0)  -->
<svg version="1.1" id="Capa_1" xmlns="http://www.w3.org/2000/svg" xmlns:xlink="http://www.w3.org/1999/xlink" x="0px" y="0px"
	 viewBox="0 0 63 63" style="enable-background:new 0 0 63 63;" xml:space="preserve">
<g>
	<g id="group-52svg">
		<path id="path-1_46_" d="M1.5,49.658c-0.384,0-0.768-0.147-1.061-0.44c-0.586-0.586-0.586-1.535,0-2.121l6.48-6.48
			c0.586-0.586,1.535-0.586,2.121,0c0.586,0.586,0.586,1.535,0,2.121l-6.48,6.48C2.268,49.511,1.884,49.658,1.5,49.658z"/>
		<path id="path-2_46_" d="M41.677,9.481c-0.384,0-0.768-0.147-1.061-0.44c-0.586-0.585-0.586-1.535,0-2.121l6.48-6.48
			c0.586-0.586,1.535-0.586,2.121,0c0.586,0.585,0.586,1.535,0,2.121l-6.48,6.48C42.444,9.334,42.061,9.481,41.677,9.481z"/>
		<path id="path-3_46_" d="M38.556,16.729c-1.43,0-2.766-0.547-3.761-1.543c-2.104-2.104-2.045-5.584,0.13-7.759
			c1.078-1.078,2.498-1.672,3.997-1.672c1.431,0,2.765,0.548,3.761,1.543c1.028,1.028,1.576,2.408,1.542,3.887
			c-0.034,1.453-0.626,2.828-1.671,3.872C41.477,16.135,40.056,16.729,38.556,16.729z M38.923,8.755
			c-0.698,0-1.364,0.282-1.876,0.794c-1.005,1.005-1.064,2.582-0.13,3.516c0.905,0.904,2.544,0.843,3.517-0.13
			c0.496-0.496,0.777-1.142,0.793-1.818c0.015-0.652-0.221-1.254-0.664-1.697C40.133,8.991,39.551,8.755,38.923,8.755z"/>
		<path id="path-4_41_" d="M51.898,30.073c-1.429,0-2.764-0.549-3.759-1.544c-1.029-1.028-1.577-2.408-1.542-3.886
			c0.033-1.453,0.626-2.828,1.671-3.873c1.079-1.078,2.499-1.672,3.998-1.672c1.429,0,2.765,0.548,3.76,1.543
			c2.104,2.104,2.045,5.585-0.13,7.759C54.819,29.479,53.398,30.073,51.898,30.073z M52.266,22.098
			c-0.699,0-1.366,0.282-1.877,0.794c-0.496,0.496-0.778,1.142-0.793,1.819c-0.016,0.651,0.22,1.254,0.664,1.697
			c0.906,0.905,2.543,0.842,3.515-0.129c1.005-1.006,1.064-2.583,0.13-3.517C53.477,22.334,52.895,22.098,52.266,22.098z"/>
		<path id="path-5_33_" d="M27.083,28.202c-1.43,0-2.766-0.548-3.761-1.543c-2.103-2.104-2.045-5.585,0.13-7.759
			c1.078-1.078,2.498-1.672,3.997-1.672c1.431,0,2.766,0.548,3.761,1.543c1.028,1.028,1.576,2.408,1.542,3.887
			c-0.033,1.452-0.626,2.827-1.671,3.872C30.003,27.608,28.583,28.202,27.083,28.202z M27.449,20.228
			c-0.698,0-1.364,0.281-1.876,0.793c-1.005,1.005-1.063,2.583-0.13,3.517c0.906,0.903,2.544,0.843,3.517-0.13
			c0.496-0.496,0.777-1.142,0.793-1.819c0.016-0.651-0.221-1.254-0.664-1.696C28.66,20.463,28.078,20.228,27.449,20.228z"/>
		<path id="path-6_24_" d="M40.426,41.545c-1.43,0-2.765-0.548-3.76-1.544c-1.028-1.027-1.576-2.408-1.542-3.886
			c0.033-1.452,0.626-2.827,1.671-3.872c1.079-1.079,2.499-1.673,3.998-1.673c1.43,0,2.766,0.549,3.761,1.543
			c2.103,2.105,2.045,5.586-0.13,7.759C43.347,40.951,41.926,41.545,40.426,41.545z M40.793,33.57c-0.698,0-1.365,0.283-1.877,0.795
			c-0.496,0.496-0.777,1.142-0.793,1.818c-0.016,0.651,0.221,1.254,0.664,1.697c0.905,0.906,2.543,0.844,3.516-0.129
			c1.005-1.004,1.063-2.582,0.13-3.516C42.005,33.806,41.423,33.57,40.793,33.57z"/>
		<path id="path-7_15_" d="M16.26,39.027c-1.431,0-2.766-0.549-3.761-1.544c-1.028-1.027-1.576-2.408-1.542-3.887
			c0.033-1.452,0.626-2.827,1.671-3.871c1.078-1.079,2.498-1.673,3.998-1.673c1.43,0,2.766,0.548,3.761,1.543
			c2.103,2.105,2.045,5.585-0.13,7.76C19.178,38.433,17.758,39.027,16.26,39.027z M16.625,31.052c-0.698,0-1.365,0.282-1.877,0.794
			c-0.496,0.496-0.777,1.142-0.793,1.819c-0.016,0.652,0.221,1.254,0.664,1.697c0.905,0.905,2.543,0.845,3.516-0.129
			c1.005-1.005,1.063-2.582,0.13-3.516C17.837,31.289,17.254,31.052,16.625,31.052z"/>
		<path id="path-8_13_" d="M29.601,52.371c-1.429,0-2.765-0.549-3.76-1.543c-2.104-2.104-2.046-5.584,0.129-7.76
			c1.079-1.078,2.499-1.673,3.999-1.673c1.429,0,2.764,0.548,3.759,1.544c2.104,2.103,2.046,5.584-0.128,7.758
			C32.521,51.776,31.101,52.371,29.601,52.371z M29.969,44.395c-0.7,0-1.367,0.282-1.878,0.795
			c-1.005,1.005-1.063,2.582-0.129,3.515c0.905,0.905,2.544,0.844,3.517-0.129c1.004-1.005,1.062-2.582,0.128-3.517
			C31.18,44.631,30.597,44.395,29.969,44.395z"/>
		<path id="path-9_12_" d="M34.225,24.709c-0.398,0-0.78-0.158-1.061-0.44l-7.128-7.127c-0.586-0.586-0.586-1.536,0-2.122
			l5.184-5.184c0.562-0.562,1.558-0.562,2.121,0l7.128,7.128c0.586,0.586,0.586,1.535,0,2.121l-5.184,5.184
			C35.005,24.551,34.623,24.709,34.225,24.709z M29.219,16.081l5.007,5.006l3.062-3.062l-5.007-5.006L29.219,16.081z"/>
		<path id="path-10_11_" d="M23.208,35.725c-0.384,0-0.768-0.146-1.061-0.439l-7.128-7.128c-0.585-0.586-0.585-1.536,0-2.121
			l4.537-4.537c0.586-0.585,1.535-0.585,2.121,0l7.128,7.128c0.586,0.586,0.586,1.536,0,2.121l-4.536,4.537
			C23.976,35.579,23.592,35.725,23.208,35.725z M18.201,27.097l5.007,5.007l2.415-2.415l-5.007-5.007L18.201,27.097z"/>
		<path id="path-11_9_" d="M12.193,46.742c-0.383,0-0.767-0.147-1.06-0.44l-7.129-7.129c-0.281-0.281-0.44-0.662-0.44-1.06
			s0.159-0.78,0.44-1.061l4.536-4.535c0.281-0.282,0.663-0.44,1.061-0.44l0,0c0.397,0,0.779,0.158,1.06,0.44l7.128,7.128
			c0.586,0.586,0.586,1.535,0,2.121l-4.535,4.536C12.96,46.595,12.576,46.742,12.193,46.742z M7.186,38.113l5.007,5.008l2.414-2.415
			l-5.006-5.007L7.186,38.113z"/>
		<path id="path-12_7_" d="M47.568,38.052c-0.383,0-0.767-0.146-1.06-0.439l-7.128-7.129c-0.586-0.586-0.586-1.535,0-2.121
			l5.183-5.184c0.563-0.562,1.559-0.562,2.122,0l7.128,7.129c0.282,0.281,0.44,0.662,0.44,1.06c0,0.398-0.158,0.779-0.44,1.061
			l-5.184,5.184C48.335,37.906,47.951,38.052,47.568,38.052z M42.561,29.424l5.007,5.007l3.064-3.063l-5.008-5.007L42.561,29.424z"
			/>
		<path id="path-13_4_" d="M36.551,49.068c-0.384,0-0.768-0.147-1.061-0.44L28.362,41.5c-0.586-0.585-0.586-1.535,0-2.121
			l4.536-4.536c0.586-0.586,1.536-0.586,2.121,0l7.128,7.128c0.586,0.586,0.586,1.536,0,2.121l-4.536,4.536
			C37.319,48.921,36.936,49.068,36.551,49.068z M31.545,40.441l5.007,5.006l2.415-2.414l-5.007-5.008L31.545,40.441z"/>
		<path id="path-14_4_" d="M25.535,60.084c-0.384,0-0.767-0.146-1.06-0.439l-7.128-7.128c-0.586-0.586-0.586-1.535,0-2.121
			l4.536-4.536c0.586-0.586,1.535-0.586,2.121,0l7.128,7.128c0.586,0.586,0.586,1.536,0,2.121l-4.536,4.536
			C26.303,59.938,25.92,60.084,25.535,60.084z M20.528,51.457l5.007,5.006l2.415-2.415l-5.007-5.007L20.528,51.457z"/>
		<path id="path-15_2_" d="M14.844,63c-0.384,0-0.768-0.146-1.061-0.439c-0.586-0.586-0.586-1.536,0-2.121l6.481-6.481
			c0.586-0.585,1.535-0.585,2.121,0c0.586,0.586,0.586,1.537,0,2.123l-6.481,6.479C15.61,62.854,15.227,63,14.844,63z"/>
		<path id="path-16_1_" d="M55.02,22.824c-0.383,0-0.767-0.147-1.06-0.44c-0.586-0.586-0.586-1.535,0-2.121l6.48-6.48
			c0.586-0.586,1.536-0.586,2.121,0c0.586,0.586,0.586,1.536,0,2.121l-6.48,6.48C55.787,22.677,55.403,22.824,55.02,22.824z"/>
	</g>
</g>
<g>
</g>
<g>
</g>
<g>
</g>
<g>
</g>
<g>
</g>
<g>
</g>
<g>
</g>
<g>
</g>
<g>
</g>
<g>
</g>
<g>
</g>
<g>
</g>
<g>
</g>
<g>
</g>
<g>
</g>
</svg>
