<?xml version="1.0" encoding="iso-8859-1"?>
<!-- Generator: Adobe Illustrator 19.1.0, SVG Export Plug-In . SVG Version: 6.00 Build 0)  -->
<svg version="1.1" id="Capa_1" xmlns="http://www.w3.org/2000/svg" xmlns:xlink="http://www.w3.org/1999/xlink" x="0px" y="0px"
	 viewBox="0 0 63 63" style="enable-background:new 0 0 63 63;" xml:space="preserve">
<g>
	<g id="group-30svg">
		<path id="path-1_22_" d="M59,49.25H5c-0.828,0-1.074-0.671-1.074-1.5v-8.203c0-4.024,2.876-7.297,6.936-7.297h41.89
			c4.128,0,8.174,3.41,8.174,7.297v8.203C60.926,48.579,59.828,49.25,59,49.25z M6.926,46.25h51v-6.703
			c0-2.249-2.689-4.297-5.174-4.297h-41.89c-2.364,0-3.936,1.968-3.936,4.297V46.25z"/>
		<path id="path-2_22_" d="M50,34.25H14c-0.828,0-1.074-0.672-1.074-1.5v-2.366c0-3.847,2.46-8.134,6.603-8.134h24.556
			c4.244,0,7.841,4.294,7.841,8.134v2.366C51.926,33.578,50.828,34.25,50,34.25z M15.926,31.25h33v-0.866
			c0-2.311-2.463-5.134-4.841-5.134H19.529c-2.306,0-3.603,2.71-3.603,5.134V31.25z"/>
		<path id="path-3_22_" d="M43,25.25H20c-0.828,0-1.074-0.672-1.074-1.5v-0.969c0-2.843,2.27-5.531,5.122-5.531h15.517
			c3.048,0,5.361,2.871,5.361,5.531v0.969C44.926,24.578,43.828,25.25,43,25.25z M21.584,22.25H41.45c-0.191-1.029-0.912-2-1.885-2
			H24.048C23.034,20.25,21.898,21.229,21.584,22.25z"/>
		<path id="path-4_20_" d="M61.5,55.25h-60c-0.828,0-1.5-0.671-1.5-1.5s0.672-1.5,1.5-1.5h60c0.828,0,1.5,0.671,1.5,1.5
			S62.328,55.25,61.5,55.25z"/>
		<path id="path-5_16_" d="M37.426,19.75c-0.828,0-1.5-0.671-1.5-1.5v-7c0-0.829,0.672-1.5,1.5-1.5c0.829,0,1.5,0.671,1.5,1.5v7
			C38.926,19.079,38.255,19.75,37.426,19.75z"/>
		<path id="path-6_10_" d="M25.426,19.75c-0.828,0-1.5-0.671-1.5-1.5v-7c0-0.829,0.672-1.5,1.5-1.5c0.829,0,1.5,0.671,1.5,1.5v7
			C26.926,19.079,26.255,19.75,25.426,19.75z"/>
		<path id="path-7_6_" d="M31.426,19.75c-0.828,0-1.5-0.671-1.5-1.5v-9c0-0.829,0.672-1.5,1.5-1.5c0.829,0,1.5,0.671,1.5,1.5v9
			C32.926,19.079,32.255,19.75,31.426,19.75z"/>
		<path id="path-8_4_" d="M15.357,45.03c-5.38,0.001-10.863-4.051-11.173-4.283c-0.662-0.497-0.796-1.436-0.3-2.098
			c0.497-0.663,1.436-0.799,2.1-0.302c0.082,0.062,8.424,6.214,12.898,2.503c6.007-4.986,15.913-1.992,16.332-1.863
			c3.242,1.128,9.066,2.326,11.097,0.804c3.947-2.954,11.799-0.514,12.684-0.225c0.787,0.257,1.217,1.102,0.96,1.89
			c-0.256,0.787-1.099,1.221-1.891,0.962c-2.764-0.899-7.912-1.753-9.954-0.226c-3.963,2.968-12.838-0.007-13.835-0.356
			c-0.036-0.009-8.727-2.62-13.477,1.322C19.153,44.522,17.261,45.03,15.357,45.03z"/>
	</g>
</g>
<g>
</g>
<g>
</g>
<g>
</g>
<g>
</g>
<g>
</g>
<g>
</g>
<g>
</g>
<g>
</g>
<g>
</g>
<g>
</g>
<g>
</g>
<g>
</g>
<g>
</g>
<g>
</g>
<g>
</g>
</svg>
