<?xml version="1.0" encoding="iso-8859-1"?>
<!-- Generator: Adobe Illustrator 19.1.0, SVG Export Plug-In . SVG Version: 6.00 Build 0)  -->
<svg version="1.1" id="Capa_1" xmlns="http://www.w3.org/2000/svg" xmlns:xlink="http://www.w3.org/1999/xlink" x="0px" y="0px"
	 viewBox="0 0 63.019 63.019" style="enable-background:new 0 0 63.019 63.019;" xml:space="preserve">
<g>
	<g id="group-60svg">
		<path id="path-1_55_" d="M15.763,63.009L15.763,63.009c-1.43,0-2.801-0.583-3.861-1.643l-2.191-2.19
			c-0.202-0.202-0.342-0.457-0.404-0.736l-0.861-3.874l-3.874-0.861c-0.278-0.062-0.534-0.203-0.735-0.404l-2.193-2.192
			c-1.608-1.609-2.078-3.887-1.226-5.945c1.067-2.576,3.932-3.917,6.636-3.008c0.878,0.294,1.713,0.771,2.607,1.343l6.943-7.097
			c1.127-4.153,10.385-36.393,26.101-36.393c3.059,0,6.147,1.224,9.18,3.637l1.676,0.974c1.997,1.16,3.67,2.828,4.837,4.823
			l0.978,1.672c3.423,4.3,4.44,8.651,3.023,12.934C57.961,37.457,30.426,45.352,26.637,46.38l-7.126,6.972
			c0.583,0.911,1.053,1.735,1.344,2.602c0.563,1.675,0.32,3.422-0.667,4.792C19.17,62.163,17.515,63.009,15.763,63.009z
			 M12.14,57.364l1.883,1.88c0.5,0.5,1.102,0.765,1.74,0.765c0.778,0,1.54-0.388,1.991-1.015c0.297-0.414,0.584-1.111,0.258-2.085
			c-0.273-0.811-0.873-1.716-1.631-2.864c-0.397-0.599-0.363-1.472,0.152-1.974l8.288-8.111c0.187-0.182,0.418-0.313,0.671-0.38
			c0.299-0.077,29.905-7.919,34.06-20.475c1.1-3.329,0.255-6.665-2.585-10.198c-0.047-0.058-0.089-0.12-0.126-0.183l-1.033-1.767
			c-0.905-1.548-2.204-2.843-3.754-3.743l-1.773-1.03c-0.064-0.038-0.127-0.081-0.186-0.128c-2.515-2.021-5.002-3.047-7.39-3.047
			c-11.739,0-20.801,24.932-23.302,34.538c-0.065,0.253-0.196,0.485-0.379,0.671l-8.081,8.261c-0.503,0.514-1.299,0.599-1.9,0.202
			C7.826,45.875,6.916,45.273,6.101,45c-0.287-0.096-0.568-0.145-0.838-0.145c-1.084,0-1.782,0.753-2.073,1.458
			c-0.185,0.446-0.499,1.599,0.575,2.675l1.884,1.883l4.38,0.973c0.568,0.127,1.013,0.57,1.139,1.139L12.14,57.364z"/>
		<path id="path-2_55_" d="M25.671,46.225c-0.384,0-0.768-0.147-1.061-0.44l-7.488-7.487c-0.586-0.585-0.586-1.535,0-2.121
			c0.586-0.586,1.535-0.586,2.121,0l7.488,7.487c0.586,0.586,0.586,1.536,0,2.121C26.438,46.078,26.054,46.225,25.671,46.225z"/>
		<path id="path-3_55_" d="M42.761,32.035c-0.547,0-1.076-0.303-1.34-0.826c-0.372-0.739-0.076-1.641,0.665-2.014
			c6.458-3.256,8.355-6.308,8.809-8.295c0.49-2.141-0.552-3.577-0.562-3.591c-0.504-0.657-0.38-1.599,0.277-2.103
			c0.657-0.504,1.598-0.38,2.104,0.278c0.078,0.102,1.915,2.55,1.106,6.085c-0.87,3.802-4.363,7.269-10.385,10.304
			C43.219,31.983,42.989,32.035,42.761,32.035z"/>
	</g>
</g>
<g>
</g>
<g>
</g>
<g>
</g>
<g>
</g>
<g>
</g>
<g>
</g>
<g>
</g>
<g>
</g>
<g>
</g>
<g>
</g>
<g>
</g>
<g>
</g>
<g>
</g>
<g>
</g>
<g>
</g>
</svg>
