<?xml version="1.0" encoding="iso-8859-1"?>
<!-- Generator: Adobe Illustrator 19.1.0, SVG Export Plug-In . SVG Version: 6.00 Build 0)  -->
<svg version="1.1" id="Capa_1" xmlns="http://www.w3.org/2000/svg" xmlns:xlink="http://www.w3.org/1999/xlink" x="0px" y="0px"
	 viewBox="0 0 63.002 63.002" style="enable-background:new 0 0 63.002 63.002;" xml:space="preserve">
<g>
	<g id="group-46svg">
		<path id="path-1_39_" d="M17.372,59.54c-0.278,0-0.562-0.026-0.855-0.08c-6.42-1.162-12.991-17.32-12.203-22.457
			c0.125-0.82,0.893-1.384,1.71-1.255c0.818,0.125,1.381,0.891,1.255,1.71c-0.626,4.081,5.442,18.266,9.772,19.05
			c1.332,0.253,2.638-2.015,3.479-6.042c1.26-6.026,3.053-11.262,5.334-15.564c0.389-0.733,1.298-1.009,2.027-0.623
			c0.732,0.388,1.011,1.296,0.623,2.028c-2.147,4.053-3.846,9.023-5.047,14.772C22.292,56.7,20.244,59.54,17.372,59.54z"/>
		<path id="path-2_39_" d="M48.992,23.375c-0.906,0-2.12-0.055-3.453-0.266c-0.819-0.13-1.376-0.899-1.247-1.717
			c0.13-0.818,0.9-1.376,1.717-1.246c2.322,0.369,4.265,0.182,4.284,0.18c0.07-0.008,0.144-0.008,0.212-0.007
			c3.274,0.135,9.058-1.354,9.501-2.445l0,0c-0.026,0-0.57-1.741-9.985-4.524c-3.19-0.942-7.373-1.525-9.583-1.789
			c-0.822-0.098-1.41-0.844-1.312-1.667c0.099-0.822,0.844-1.411,1.667-1.311c2.304,0.274,6.677,0.886,10.078,1.891
			c8.953,2.645,12.569,5.011,12.089,7.913c-0.697,4.229-10.704,4.955-12.463,4.932C50.279,23.338,49.742,23.375,48.992,23.375z"/>
		<path id="path-3_39_" d="M39.828,40.621C39.828,40.621,39.828,40.621,39.828,40.621c-1.135,0-2.23-0.269-3.255-0.799
			c-5.27-2.723-10.855-4.104-16.598-4.104c-3.561,0-7.142,0.527-10.643,1.567c-2.827,0.841-5.978-0.18-7.796-2.477
			c-1.356-1.713-1.845-3.914-1.343-6.038C3.721,13.835,23.167,6.313,31.365,3.772c2.546-0.787,5.456-0.047,7.346,1.864
			c8.295,8.382,9.111,20.038,8.334,28.34C46.698,37.703,43.527,40.621,39.828,40.621z M19.975,32.718
			c6.228,0,12.275,1.493,17.975,4.439c0.595,0.308,1.227,0.464,1.878,0.464c2.167,0,4.025-1.723,4.231-3.924
			c0.717-7.666,0.001-18.391-7.48-25.951c-1.119-1.13-2.828-1.572-4.326-1.108C24.548,9.026,6.285,16.031,3.113,29.46
			c-0.294,1.245-0.019,2.483,0.775,3.486c1.073,1.358,2.911,1.962,4.591,1.463C12.257,33.287,16.124,32.718,19.975,32.718z"/>
		<path id="path-4_35_" d="M38.621,28.523c-0.234,0-0.47-0.055-0.692-0.17c-0.734-0.382-1.02-1.288-0.639-2.023
			c0,0,1.331-3.028-1.948-8.856c-2.317-4.121-15.096,1.267-20.923,4.519c-0.725,0.404-1.637,0.145-2.041-0.578
			c-0.403-0.723-0.145-1.637,0.579-2.041c2.094-1.17,20.591-11.21,25-3.371c4.084,7.261,2.221,11.278,1.996,11.712
			C39.685,28.228,39.162,28.523,38.621,28.523z"/>
	</g>
</g>
<g>
</g>
<g>
</g>
<g>
</g>
<g>
</g>
<g>
</g>
<g>
</g>
<g>
</g>
<g>
</g>
<g>
</g>
<g>
</g>
<g>
</g>
<g>
</g>
<g>
</g>
<g>
</g>
<g>
</g>
</svg>
