<?xml version="1.0" encoding="iso-8859-1"?>
<!-- Generator: Adobe Illustrator 19.1.0, SVG Export Plug-In . SVG Version: 6.00 Build 0)  -->
<svg version="1.1" id="Capa_1" xmlns="http://www.w3.org/2000/svg" xmlns:xlink="http://www.w3.org/1999/xlink" x="0px" y="0px"
	 viewBox="0 0 63.324 63.324" style="enable-background:new 0 0 63.324 63.324;" xml:space="preserve">
<g>
	<g id="group-77svg">
		<path id="path-1_73_" d="M31.663,39.206c-0.415,0-0.812-0.172-1.096-0.475L12.322,19.233c-0.973-1.043-1.227-2.495-0.663-3.792
			c0.566-1.306,1.81-2.117,3.246-2.117h33.517c1.436,0,2.68,0.81,3.247,2.113c0.56,1.292,0.306,2.741-0.664,3.781L32.759,38.731
			C32.475,39.033,32.078,39.206,31.663,39.206z M14.905,16.324c-0.313,0-0.444,0.196-0.495,0.312
			c-0.059,0.136-0.089,0.341,0.104,0.548L31.663,35.51l17.149-18.34c0.191-0.204,0.162-0.405,0.105-0.537
			c-0.05-0.115-0.181-0.309-0.495-0.309H14.905z"/>
		<path id="path-2_73_" d="M32.241,61.824c-0.828,0-1.5-0.671-1.5-1.5v-23c0-0.828,0.672-1.5,1.5-1.5c0.828,0,1.5,0.672,1.5,1.5v23
			C33.741,61.153,33.069,61.824,32.241,61.824z"/>
		<path id="path-3_73_" d="M39.314,63.324h-15c-0.828,0-1.5-0.671-1.5-1.5c0-0.828,0.672-1.5,1.5-1.5h15c0.828,0,1.5,0.672,1.5,1.5
			C40.814,62.653,40.142,63.324,39.314,63.324z"/>
		<path id="path-4_64_" d="M35.229,23.848c-0.126,0-0.255-0.016-0.383-0.05c-0.8-0.211-1.279-1.031-1.068-1.833l5.085-19.321
			c0.149-0.572,0.621-1.001,1.203-1.098l9.153-1.525c0.817-0.139,1.59,0.415,1.726,1.233c0.137,0.816-0.416,1.59-1.232,1.726
			l-8.196,1.366l-4.839,18.383C36.502,23.403,35.894,23.848,35.229,23.848z"/>
	</g>
</g>
<g>
</g>
<g>
</g>
<g>
</g>
<g>
</g>
<g>
</g>
<g>
</g>
<g>
</g>
<g>
</g>
<g>
</g>
<g>
</g>
<g>
</g>
<g>
</g>
<g>
</g>
<g>
</g>
<g>
</g>
</svg>
