<?xml version="1.0" encoding="iso-8859-1"?>
<!-- Generator: Adobe Illustrator 19.1.0, SVG Export Plug-In . SVG Version: 6.00 Build 0)  -->
<svg version="1.1" id="Capa_1" xmlns="http://www.w3.org/2000/svg" xmlns:xlink="http://www.w3.org/1999/xlink" x="0px" y="0px"
	 viewBox="0 0 62.998 62.998" style="enable-background:new 0 0 62.998 62.998;" xml:space="preserve">
<g>
	<g id="group-26svg">
		<path id="path-1_17_" d="M34.265,52.99h-5.798c-0.067,0-0.132-0.005-0.198-0.014c-7.935-1.052-8.049-6.356-8.389-22.102
			c-0.044-2.022-0.091-4.235-0.158-6.656C19.112,2.296,30.626,0.103,31.116,0.021c0.164-0.028,0.334-0.028,0.498,0
			c0.49,0.082,12.004,2.275,11.396,24.197c-0.067,2.421-0.115,4.634-0.159,6.656c-0.339,15.746-0.454,21.05-8.389,22.102
			C34.396,52.985,34.331,52.99,34.265,52.99z M28.568,49.99h5.595c4.963-0.688,5.343-3.126,5.689-19.181
			c0.043-2.028,0.091-4.247,0.16-6.674c0.486-17.547-7.095-20.644-8.649-21.093c-1.524,0.439-9.132,3.517-8.643,21.093
			c0.068,2.427,0.116,4.646,0.159,6.674C23.226,46.864,23.605,49.302,28.568,49.99z"/>
		<path id="path-2_17_" d="M30.833,62.998c-0.076,0-0.151-0.006-0.225-0.017c-2.127-0.13-3.282-1.12-3.879-1.938
			c-1.16-1.591-1.111-3.67-0.935-4.925l-2.266-1.581c-0.329-0.23-0.552-0.582-0.62-0.978c-0.05-0.289-0.013-0.583,0.102-0.849
			c-8.9-2.342-13.312-10.814-11.556-22.402c1.317-8.694-2.558-12.509-2.597-12.546c-0.516-0.494-0.613-1.284-0.231-1.888
			c0.382-0.604,1.137-0.854,1.805-0.598c9.39,3.6,11.162,13.731,11.233,14.16c1.642,8.296,2.847,17.705,2.859,17.799l0,0
			c0.004,0,0.654,2.458,6.842,2.458c5.908,0,7.001-2.257,7.126-2.575c0.145-1.112,1.301-9.891,2.852-17.729
			c0.062-0.382,1.835-10.473,11.224-14.072c0.667-0.256,1.424-0.006,1.806,0.599c0.382,0.605,0.283,1.395-0.235,1.888
			c-0.151,0.149-3.893,3.947-2.593,12.524c1.765,11.654-2.719,20.155-11.737,22.429c0.113,0.288,0.135,0.607,0.06,0.911
			c-0.097,0.389-0.345,0.722-0.687,0.927l-2.73,1.627c0.038,1.236-0.129,3.29-1.403,4.85c-0.659,0.806-1.882,1.78-3.992,1.909
			C30.983,62.992,30.909,62.998,30.833,62.998z M26.491,52.946l1.82,1.271c0.522,0.364,0.757,1.017,0.587,1.63
			c-0.156,0.582-0.448,2.471,0.258,3.432c0.118,0.161,0.477,0.647,1.677,0.71c0.86-0.045,1.479-0.312,1.892-0.816
			c0.847-1.037,0.768-2.936,0.673-3.52c-0.098-0.607,0.184-1.213,0.712-1.528l2.235-1.332l-0.32-0.524
			c-0.017-0.029-0.034-0.059-0.049-0.089c-1.239,0.316-2.754,0.513-4.611,0.513c-1.75,0-3.188-0.175-4.371-0.461
			c-0.026,0.045-0.055,0.09-0.085,0.132L26.491,52.946z M49.1,21.019c-3.876,3.738-4.794,8.842-4.806,8.91
			c-1.639,8.281-2.83,17.592-2.842,17.685c-0.041,0.217-0.212,0.93-0.82,1.755c9.411-3.498,8.498-14.953,7.946-18.592
			C47.953,26.65,48.369,23.418,49.1,21.019z M13.896,20.982c0.733,2.405,1.151,5.642,0.525,9.775
			c-0.55,3.627-1.46,15.008,7.819,18.564c-0.551-0.825-0.671-1.527-0.693-1.712c-0.012-0.088-1.204-9.398-2.835-17.638
			C18.694,29.871,17.774,24.734,13.896,20.982z"/>
		<path id="path-3_17_" d="M37.03,10.654c0,0.576-0.467,1.043-1.043,1.043c-0.576,0-1.044-0.467-1.044-1.043
			c0-0.577,0.468-1.044,1.044-1.044C36.563,9.61,37.03,10.077,37.03,10.654z"/>
		<path id="path-4_15_" d="M37.03,13.993c0,0.576-0.467,1.043-1.043,1.043c-0.576,0-1.044-0.467-1.044-1.043
			c0-0.577,0.468-1.044,1.044-1.044C36.563,12.949,37.03,13.416,37.03,13.993z"/>
		<path id="path-5_11_" d="M37.03,17.332c0,0.576-0.467,1.043-1.043,1.043c-0.576,0-1.044-0.467-1.044-1.043
			c0-0.576,0.468-1.043,1.044-1.043C36.563,16.289,37.03,16.756,37.03,17.332z"/>
		<path id="path-6_8_" d="M37.03,20.671c0,0.576-0.467,1.043-1.043,1.043c-0.576,0-1.044-0.467-1.044-1.043s0.468-1.044,1.044-1.044
			C36.563,19.627,37.03,20.095,37.03,20.671z"/>
		<path id="path-7_5_" d="M37.03,24.01c0,0.576-0.467,1.044-1.043,1.044c-0.576,0-1.044-0.468-1.044-1.044s0.468-1.043,1.044-1.043
			C36.563,22.967,37.03,23.434,37.03,24.01z"/>
		<path id="path-8_3_" d="M37.03,27.349c0,0.577-0.467,1.043-1.043,1.043c-0.576,0-1.044-0.466-1.044-1.043
			c0-0.576,0.468-1.043,1.044-1.043C36.563,26.306,37.03,26.773,37.03,27.349z"/>
		<path id="path-9_3_" d="M37.03,30.688c0,0.577-0.467,1.044-1.043,1.044c-0.576,0-1.044-0.467-1.044-1.044
			c0-0.576,0.468-1.043,1.044-1.043C36.563,29.645,37.03,30.112,37.03,30.688z"/>
		<path id="path-10_3_" d="M37.03,34.027c0,0.577-0.467,1.044-1.043,1.044c-0.576,0-1.044-0.467-1.044-1.044
			c0-0.576,0.468-1.043,1.044-1.043C36.563,32.984,37.03,33.451,37.03,34.027z"/>
		<path id="path-11_3_" d="M37.03,37.367c0,0.576-0.467,1.043-1.043,1.043c-0.576,0-1.044-0.467-1.044-1.043
			c0-0.577,0.468-1.044,1.044-1.044C36.563,36.323,37.03,36.79,37.03,37.367z"/>
		<path id="path-12_3_" d="M37.03,40.706c0,0.576-0.467,1.043-1.043,1.043c-0.576,0-1.044-0.467-1.044-1.043
			c0-0.577,0.468-1.044,1.044-1.044C36.563,39.662,37.03,40.129,37.03,40.706z"/>
		<path id="path-13_3_" d="M37.03,44.045c0,0.576-0.467,1.043-1.043,1.043c-0.576,0-1.044-0.467-1.044-1.043
			c0-0.576,0.468-1.044,1.044-1.044C36.563,43.001,37.03,43.469,37.03,44.045z"/>
		<path id="path-14_3_" d="M32.335,10.654c0,0.576-0.467,1.043-1.044,1.043c-0.576,0-1.043-0.467-1.043-1.043
			c0-0.577,0.467-1.044,1.043-1.044C31.868,9.61,32.335,10.077,32.335,10.654z"/>
		<path id="path-15_1_" d="M32.335,13.993c0,0.576-0.467,1.043-1.044,1.043c-0.576,0-1.043-0.467-1.043-1.043
			c0-0.577,0.467-1.044,1.043-1.044C31.868,12.949,32.335,13.416,32.335,13.993z"/>
		<path id="path-16" d="M32.335,17.332c0,0.576-0.467,1.043-1.044,1.043c-0.576,0-1.043-0.467-1.043-1.043
			c0-0.576,0.467-1.043,1.043-1.043C31.868,16.289,32.335,16.756,32.335,17.332z"/>
		<path id="path-17" d="M32.335,20.671c0,0.576-0.467,1.043-1.044,1.043c-0.576,0-1.043-0.467-1.043-1.043s0.467-1.044,1.043-1.044
			C31.868,19.627,32.335,20.095,32.335,20.671z"/>
		<path id="path-18" d="M32.335,24.01c0,0.576-0.467,1.044-1.044,1.044c-0.576,0-1.043-0.468-1.043-1.044s0.467-1.043,1.043-1.043
			C31.868,22.967,32.335,23.434,32.335,24.01z"/>
		<path id="path-19" d="M32.335,27.349c0,0.577-0.467,1.043-1.044,1.043c-0.576,0-1.043-0.466-1.043-1.043
			c0-0.576,0.467-1.043,1.043-1.043C31.868,26.306,32.335,26.773,32.335,27.349z"/>
		<path id="path-20" d="M32.335,30.688c0,0.577-0.467,1.044-1.044,1.044c-0.576,0-1.043-0.467-1.043-1.044
			c0-0.576,0.467-1.043,1.043-1.043C31.868,29.645,32.335,30.112,32.335,30.688z"/>
		<path id="path-21" d="M32.335,34.027c0,0.577-0.467,1.044-1.044,1.044c-0.576,0-1.043-0.467-1.043-1.044
			c0-0.576,0.467-1.043,1.043-1.043C31.868,32.984,32.335,33.451,32.335,34.027z"/>
		<path id="path-22" d="M32.335,37.367c0,0.576-0.467,1.043-1.044,1.043c-0.576,0-1.043-0.467-1.043-1.043
			c0-0.577,0.467-1.044,1.043-1.044C31.868,36.323,32.335,36.79,32.335,37.367z"/>
		<path id="path-23" d="M32.335,40.706c0,0.576-0.467,1.043-1.044,1.043c-0.576,0-1.043-0.467-1.043-1.043
			c0-0.577,0.467-1.044,1.043-1.044C31.868,39.662,32.335,40.129,32.335,40.706z"/>
		<path id="path-24" d="M32.335,44.045c0,0.576-0.467,1.043-1.044,1.043c-0.576,0-1.043-0.467-1.043-1.043
			c0-0.576,0.467-1.044,1.043-1.044C31.868,43.001,32.335,43.469,32.335,44.045z"/>
		<path id="path-25" d="M27.639,10.654c0,0.576-0.467,1.043-1.043,1.043c-0.577,0-1.044-0.467-1.044-1.043
			c0-0.577,0.467-1.044,1.044-1.044C27.172,9.61,27.639,10.077,27.639,10.654z"/>
		<path id="path-26" d="M27.639,13.993c0,0.576-0.467,1.043-1.043,1.043c-0.577,0-1.044-0.467-1.044-1.043
			c0-0.577,0.467-1.044,1.044-1.044C27.172,12.949,27.639,13.416,27.639,13.993z"/>
		<path id="path-27" d="M27.639,17.332c0,0.576-0.467,1.043-1.043,1.043c-0.577,0-1.044-0.467-1.044-1.043
			c0-0.576,0.467-1.043,1.044-1.043C27.172,16.289,27.639,16.756,27.639,17.332z"/>
		<path id="path-28" d="M27.639,20.671c0,0.576-0.467,1.043-1.043,1.043c-0.577,0-1.044-0.467-1.044-1.043s0.467-1.044,1.044-1.044
			C27.172,19.627,27.639,20.095,27.639,20.671z"/>
		<path id="path-29" d="M27.639,24.01c0,0.576-0.467,1.044-1.043,1.044c-0.577,0-1.044-0.468-1.044-1.044s0.467-1.043,1.044-1.043
			C27.172,22.967,27.639,23.434,27.639,24.01z"/>
		<path id="path-30" d="M27.639,27.349c0,0.577-0.467,1.043-1.043,1.043c-0.577,0-1.044-0.466-1.044-1.043
			c0-0.576,0.467-1.043,1.044-1.043C27.172,26.306,27.639,26.773,27.639,27.349z"/>
		<path id="path-31" d="M27.639,30.688c0,0.577-0.467,1.044-1.043,1.044c-0.577,0-1.044-0.467-1.044-1.044
			c0-0.576,0.467-1.043,1.044-1.043C27.172,29.645,27.639,30.112,27.639,30.688z"/>
		<path id="path-32" d="M27.639,34.027c0,0.577-0.467,1.044-1.043,1.044c-0.577,0-1.044-0.467-1.044-1.044
			c0-0.576,0.467-1.043,1.044-1.043C27.172,32.984,27.639,33.451,27.639,34.027z"/>
		<path id="path-33" d="M27.639,37.367c0,0.576-0.467,1.043-1.043,1.043c-0.577,0-1.044-0.467-1.044-1.043
			c0-0.577,0.467-1.044,1.044-1.044C27.172,36.323,27.639,36.79,27.639,37.367z"/>
		<path id="path-34" d="M27.639,40.706c0,0.576-0.467,1.043-1.043,1.043c-0.577,0-1.044-0.467-1.044-1.043
			c0-0.577,0.467-1.044,1.044-1.044C27.172,39.662,27.639,40.129,27.639,40.706z"/>
		<path id="path-35" d="M27.639,44.045c0,0.576-0.467,1.043-1.043,1.043c-0.577,0-1.044-0.467-1.044-1.043
			c0-0.576,0.467-1.044,1.044-1.044C27.172,43.001,27.639,43.469,27.639,44.045z"/>
	</g>
</g>
<g>
</g>
<g>
</g>
<g>
</g>
<g>
</g>
<g>
</g>
<g>
</g>
<g>
</g>
<g>
</g>
<g>
</g>
<g>
</g>
<g>
</g>
<g>
</g>
<g>
</g>
<g>
</g>
<g>
</g>
</svg>
