<?xml version="1.0" encoding="iso-8859-1"?>
<!-- Generator: Adobe Illustrator 19.1.0, SVG Export Plug-In . SVG Version: 6.00 Build 0)  -->
<svg version="1.1" id="Capa_1" xmlns="http://www.w3.org/2000/svg" xmlns:xlink="http://www.w3.org/1999/xlink" x="0px" y="0px"
	 viewBox="0 0 62.767 62.767" style="enable-background:new 0 0 62.767 62.767;" xml:space="preserve">
<g>
	<g id="group-38svg">
		<path id="path-1_30_" d="M42.44,39.91c-1.655,0-3.232-0.58-4.493-1.626c-1.628,1.045-3.688,1.626-5.849,1.626
			c-2.197,0-4.281-0.598-5.918-1.672c-1.268,1.076-2.866,1.672-4.553,1.672c-3.92,0-7.11-3.189-7.11-7.109
			c0-0.686,0.103-1.366,0.307-2.03c-1.032-1.263-1.608-2.846-1.608-4.474c0-2.748,1.624-5.236,4.065-6.398
			c0.39-7.248,5.284-8.407,8.899-9.263c1.736-0.412,3.377-0.8,4.084-1.743c2.198-2.931-0.585-6.411-0.613-6.446
			c-0.393-0.482-0.447-1.157-0.137-1.697c0.312-0.538,0.923-0.829,1.537-0.731c10.567,1.696,13.076,10.975,12.971,16.743
			c3.161,0.722,5.528,3.556,5.528,6.933c0,1.675-0.603,3.286-1.665,4.553c1.062,1.267,1.665,2.878,1.665,4.553
			C49.55,36.721,46.361,39.91,42.44,39.91z M38.083,34.795c0.039,0,0.076,0.002,0.114,0.005c0.414,0.031,0.796,0.232,1.055,0.556
			c0.794,0.988,1.956,1.554,3.188,1.554c2.267,0,4.11-1.843,4.11-4.109c0-1.332-0.63-2.547-1.727-3.334
			c-0.393-0.282-0.626-0.736-0.626-1.219c0-0.484,0.233-0.938,0.626-1.219c1.097-0.787,1.727-2.002,1.727-3.334
			c0-2.266-1.843-4.11-4.11-4.11c-0.426,0-0.831-0.18-1.115-0.497c-0.286-0.316-0.422-0.739-0.376-1.162
			c0.048-0.477,0.991-10.68-7.247-14.081c0.631,2.046,0.676,4.563-1.038,6.848c-1.359,1.812-3.613,2.345-5.792,2.862
			c-3.666,0.868-6.57,1.555-6.616,7.156c0.015,0.098,0.02,0.199,0.014,0.301c-0.039,0.634-0.457,1.182-1.068,1.357
			c-1.758,0.504-2.986,2.119-2.986,3.928c0,1.153,0.482,2.227,1.355,3.024c0.485,0.443,0.626,1.15,0.347,1.745
			c-0.266,0.568-0.401,1.151-0.401,1.735c0,2.266,1.844,4.109,4.11,4.109c1.259,0,2.437-0.585,3.23-1.606
			c0.26-0.334,0.649-0.543,1.071-0.575c0.42-0.031,0.838,0.116,1.146,0.408c1.172,1.11,3.049,1.773,5.024,1.773
			c1.968,0,3.779-0.626,4.972-1.72C37.347,34.935,37.709,34.795,38.083,34.795z"/>
		<path id="path-2_30_" d="M40.082,62.767H23.497c-0.762,0-1.404-0.573-1.49-1.332l-2.602-23c-0.048-0.424,0.087-0.849,0.371-1.167
			c0.285-0.319,0.692-0.501,1.119-0.501h21.789c0.427,0,0.834,0.182,1.119,0.5c0.284,0.319,0.419,0.744,0.371,1.168l-2.601,23
			C41.487,62.194,40.846,62.767,40.082,62.767z M24.837,59.767h13.906l2.261-20H22.575L24.837,59.767z"/>
		<path id="path-3_30_" d="M35.122,54.959c-0.092,0-0.184-0.009-0.277-0.026c-0.814-0.151-1.351-0.935-1.2-1.749l1.824-9.786
			c0.152-0.815,0.94-1.349,1.749-1.199c0.815,0.151,1.352,0.935,1.2,1.749l-1.824,9.786C36.459,54.455,35.83,54.959,35.122,54.959z"
			/>
		<path id="path-4_27_" d="M28.663,57.646c-0.114,0-0.228-0.013-0.343-0.04c-0.807-0.189-1.308-0.996-1.119-1.802l1.825-7.796
			c0.189-0.807,0.991-1.307,1.803-1.119c0.806,0.189,1.307,0.996,1.119,1.803l-1.826,7.795
			C29.96,57.179,29.344,57.646,28.663,57.646z"/>
		<path id="path-5_21_" d="M36.944,22.616c-0.402,0-0.802-0.16-1.097-0.477c-0.565-0.605-0.532-1.555,0.073-2.12
			c1.188-1.108,0.481-4.818-0.372-6.977c-0.303-0.77,0.075-1.641,0.845-1.945c0.769-0.305,1.642,0.073,1.946,0.844
			c0.293,0.742,2.773,7.338-0.372,10.272C37.678,22.483,37.311,22.616,36.944,22.616z"/>
		<path id="path-6_13_" d="M26.52,32.902c-3.253,0-5.4-0.895-6.386-2.663c-1.517-2.72,0.547-6.078,0.787-6.451
			c0.448-0.697,1.378-0.899,2.074-0.451c0.695,0.447,0.897,1.373,0.452,2.07c-0.448,0.708-1.204,2.461-0.692,3.374
			c0.422,0.75,1.888,1.143,4.044,1.119c0.832-0.031,1.512,0.643,1.528,1.472c0.014,0.828-0.645,1.512-1.473,1.527
			C26.742,32.901,26.63,32.902,26.52,32.902z"/>
	</g>
</g>
<g>
</g>
<g>
</g>
<g>
</g>
<g>
</g>
<g>
</g>
<g>
</g>
<g>
</g>
<g>
</g>
<g>
</g>
<g>
</g>
<g>
</g>
<g>
</g>
<g>
</g>
<g>
</g>
<g>
</g>
</svg>
