<?xml version="1.0" encoding="iso-8859-1"?>
<!-- Generator: Adobe Illustrator 19.1.0, SVG Export Plug-In . SVG Version: 6.00 Build 0)  -->
<svg version="1.1" id="Capa_1" xmlns="http://www.w3.org/2000/svg" xmlns:xlink="http://www.w3.org/1999/xlink" x="0px" y="0px"
	 viewBox="0 0 62.875 62.875" style="enable-background:new 0 0 62.875 62.875;" xml:space="preserve">
<g>
	<g id="group-17svg">
		<path id="path-1_7_" d="M21.634,62.762c-0.001,0-0.002,0-0.002,0c-8.275,0-13.912-8.174-15.015-15.975
			c-1.148-8.132,2.427-14.36,9.331-16.352c14.464-4.174,21.98-15.816,22.054-15.933c0.411-0.65,1.243-0.869,1.934-0.528
			l12.237,6.069c0.496,0.246,0.817,0.75,0.833,1.303c0.424,14.329-2.889,25.291-9.845,32.577
			c-5.353,5.608-12.877,8.711-21.184,8.952C21.861,62.879,21.748,62.762,21.634,62.762z M39.765,17.252
			c-2.351,3.212-9.991,12.376-22.985,16.125c-8.063,2.326-7.544,10.622-7.192,13.109c0.938,6.642,5.7,13.513,12.044,13.514
			l0.257-0.004c4.351-0.126,12.619-1.352,19.102-8.142c6.241-6.536,9.279-16.464,9.038-29.517L39.765,17.252z"/>
		<path id="path-2_7_" d="M54.279,23.682c-0.214,0-0.428-0.046-0.628-0.138l-16.846-7.76c-0.735-0.338-1.069-1.198-0.755-1.943
			c1.566-3.73,4.913-5.957,8.952-5.957c1.632,0,3.255,0.367,4.827,1.091c5.552,2.558,8.06,8.485,5.833,13.787
			c-0.157,0.375-0.46,0.67-0.839,0.818C54.648,23.648,54.464,23.682,54.279,23.682z M39.508,13.726L53.345,20.1
			c0.614-3.35-1.25-6.778-4.772-8.4c-1.175-0.541-2.376-0.815-3.571-0.815C42.709,10.885,40.738,11.924,39.508,13.726z"/>
		<path id="path-3_7_" d="M49.202,11.838c-0.434,0-0.865-0.188-1.162-0.55c-0.523-0.64-0.431-1.581,0.206-2.107
			c0.374-0.313,3.539-3.131,1.181-6.883c-0.442-0.702-0.231-1.627,0.471-2.068c0.701-0.44,1.627-0.231,2.068,0.471
			c3.057,4.865,0.149,9.19-1.815,10.797C49.872,11.727,49.536,11.838,49.202,11.838z"/>
		<path id="path-4_7_" d="M14.834,51.313c-0.531,0-1.046-0.283-1.317-0.782c-3.285-6.022,0.859-11.411,3.508-13.418
			c0.662-0.501,1.601-0.372,2.102,0.289c0.5,0.659,0.371,1.599-0.287,2.099c-0.242,0.186-5.548,4.354-2.691,9.593
			c0.398,0.728,0.129,1.639-0.597,2.036C15.323,51.254,15.077,51.313,14.834,51.313z"/>
	</g>
</g>
<g>
</g>
<g>
</g>
<g>
</g>
<g>
</g>
<g>
</g>
<g>
</g>
<g>
</g>
<g>
</g>
<g>
</g>
<g>
</g>
<g>
</g>
<g>
</g>
<g>
</g>
<g>
</g>
<g>
</g>
</svg>
