<?xml version="1.0" encoding="iso-8859-1"?>
<!-- Generator: Adobe Illustrator 19.1.0, SVG Export Plug-In . SVG Version: 6.00 Build 0)  -->
<svg version="1.1" id="Capa_1" xmlns="http://www.w3.org/2000/svg" xmlns:xlink="http://www.w3.org/1999/xlink" x="0px" y="0px"
	 viewBox="0 0 62.993 62.993" style="enable-background:new 0 0 62.993 62.993;" xml:space="preserve">
<g>
	<g id="group-14svg">
		<path id="path-1_4_" d="M38.78,52.83c-0.001,0-0.002,0-0.003,0c-2.511,0-4.958-0.164-7.28-0.74
			c-2.323,0.576-4.771,0.931-7.28,0.931c-11.315,0-22.301-5.989-23.992-13.116c-0.64-2.703-0.448-7.858,8.035-12.12
			C26.858,18.441,30.003,5.201,30.032,5.069c0.153-0.685,0.763-1.239,1.464-1.239c0.002,0,0.004,0,0.006,0
			c0.703,0,1.311,0.564,1.461,1.252c0.028,0.127,3.172,13.338,21.771,22.682c8.484,4.263,8.675,9.325,8.034,12.028
			C61.078,46.919,50.093,52.83,38.78,52.83z M31.497,49.17c0.128,0,0.256-0.111,0.381-0.078c2.186,0.574,4.508,0.738,6.899,0.738
			c0.001,0,0.002,0,0.003,0c9.856,0,19.699-4.937,21.069-10.712c0.966-4.075-2.981-6.951-6.462-8.7
			c-13.702-6.883-19.536-15.634-21.89-20.661c-2.355,5.027-8.189,13.825-21.89,20.709c-3.481,1.749-7.427,4.696-6.462,8.771
			c1.369,5.775,11.215,10.844,21.072,10.844c2.39,0,4.712-0.289,6.899-0.864C31.241,49.184,31.369,49.17,31.497,49.17z"/>
		<path id="path-2_4_" d="M34.41,52.766c-0.632,0-1.22-0.403-1.426-1.036c-0.257-0.788,0.174-1.635,0.961-1.891
			c7.711-2.513,11.914-5.847,12.491-9.909c0.97-6.82-8.554-14.937-12.306-17.49c-0.685-0.466-0.862-1.399-0.397-2.084
			c0.466-0.685,1.399-0.862,2.084-0.396c0.614,0.417,15.018,10.343,13.589,20.392c-0.751,5.29-5.64,9.442-14.531,12.339
			C34.721,52.742,34.563,52.766,34.41,52.766z"/>
		<path id="path-3_4_" d="M28.975,52.766c-0.153,0-0.31-0.024-0.464-0.075c-8.891-2.897-13.781-7.049-14.533-12.339
			C12.55,30.303,26.953,20.377,27.567,19.96c0.684-0.467,1.617-0.288,2.083,0.396c0.467,0.684,0.289,1.617-0.394,2.084
			c-0.136,0.092-13.477,9.289-12.307,17.493c0.579,4.06,4.781,7.394,12.491,9.906c0.787,0.256,1.218,1.103,0.961,1.891
			C30.195,52.363,29.607,52.766,28.975,52.766z"/>
		<path id="path-4_4_" d="M22.944,56.656c-0.7,0-1.326-0.493-1.469-1.206c-0.163-0.812,0.365-1.603,1.177-1.765
			c4.782-0.957,6.4-3.225,6.414-3.248c0.456-0.691,1.388-0.88,2.079-0.423c0.691,0.457,0.88,1.388,0.423,2.079
			c-0.089,0.135-2.257,3.319-8.328,4.533C23.141,56.646,23.042,56.656,22.944,56.656z"/>
		<path id="path-5_4_" d="M31.498,59.162c-0.024,0-0.046-0.001-0.07-0.001c-0.827-0.039-1.467-0.74-1.429-1.568l0.294-6.397
			c0.029-0.648,0.472-1.204,1.098-1.377c0.627-0.174,1.291,0.077,1.651,0.618c0.055,0.077,1.666,2.298,6.415,3.248
			c0.812,0.162,1.34,0.953,1.177,1.765c-0.162,0.812-0.952,1.338-1.765,1.176c-2.552-0.509-4.413-1.368-5.722-2.201l-0.152,3.306
			C32.959,58.535,32.295,59.162,31.498,59.162z"/>
	</g>
</g>
<g>
</g>
<g>
</g>
<g>
</g>
<g>
</g>
<g>
</g>
<g>
</g>
<g>
</g>
<g>
</g>
<g>
</g>
<g>
</g>
<g>
</g>
<g>
</g>
<g>
</g>
<g>
</g>
<g>
</g>
</svg>
