<?xml version="1.0" encoding="iso-8859-1"?>
<!-- Generator: Adobe Illustrator 19.1.0, SVG Export Plug-In . SVG Version: 6.00 Build 0)  -->
<svg version="1.1" id="Capa_1" xmlns="http://www.w3.org/2000/svg" xmlns:xlink="http://www.w3.org/1999/xlink" x="0px" y="0px"
	 viewBox="0 0 62.531 62.531" style="enable-background:new 0 0 62.531 62.531;" xml:space="preserve">
<g>
	<g id="group-9svg">
		<path id="path-1_87_" d="M31.265,59.052c-14.114,0-24.358-9.303-24.358-22.121c0-14.167,11.382-26.594,24.358-26.594
			c12.975,0,24.358,12.427,24.358,26.594C55.624,49.749,45.38,59.052,31.265,59.052z M31.265,13.337
			c-11.178,0-21.358,11.246-21.358,23.594c0,11.258,8.783,19.121,21.358,19.121s21.358-7.863,21.358-19.121
			C52.624,24.583,42.444,13.337,31.265,13.337z"/>
		<path id="path-2_87_" d="M25.129,14.362c-0.396,0-0.788-0.158-1.077-0.457c-0.452-0.466-0.553-1.171-0.249-1.745
			c0.998-1.886-1.442-5.422-2.375-6.513c-0.411-0.48-0.479-1.167-0.166-1.716c0.312-0.549,0.932-0.844,1.557-0.739
			c1.764,0.303,3.105,0.958,4.058,1.603c0.525-1.038,1.359-2.265,2.685-4.337C29.835,0.029,30.307,0,30.815,0
			c0.003,0,0.006,0,0.01,0c0.504,0,0.975,0.019,1.253,0.439c1.384,2.101,2.249,3.457,2.79,4.499c0.965-0.652,2.33-1.38,4.12-1.688
			c0.627-0.108,1.251,0.163,1.562,0.716c0.31,0.553,0.238,1.228-0.179,1.706c-1.195,1.371-3.365,4.756-2.445,6.496
			c0.302,0.571,0.203,1.267-0.244,1.735c-0.448,0.467-1.146,0.593-1.728,0.315c-0.765-0.364-3.262-1.394-4.894-1.14
			c-0.155,0.024-0.315,0.023-0.469-0.001c-1.632-0.259-4.064,0.771-4.803,1.132C25.578,14.312,25.353,14.362,25.129,14.362z
			 M31.571,10.04c1.06,0,2.189,0.239,3.159,0.524c0.066-0.699,0.241-1.395,0.479-2.06c-0.391,0.313-0.923,0.415-1.411,0.253
			c-0.58-0.193-0.982-0.716-1.024-1.319c-0.131-0.503-0.959-1.994-1.929-3.577c-0.94,1.584-1.74,3.071-1.863,3.57
			c-0.041,0.61-0.448,1.14-1.037,1.33c-0.488,0.157-1.015,0.053-1.402-0.26c0.232,0.662,0.401,1.353,0.464,2.048
			c1.178-0.346,2.615-0.604,3.818-0.468C31.064,10.054,31.314,10.04,31.571,10.04z"/>
		<path id="path-3_86_" d="M39.721,62.531c-0.189,0-0.38-0.036-0.566-0.112L31.2,59.174l-7.815,3.242
			c-0.769,0.316-1.644-0.046-1.961-0.811c-0.318-0.765,0.046-1.642,0.81-1.96l8.386-3.479c0.366-0.15,0.776-0.152,1.142-0.002
			l8.525,3.478c0.768,0.313,1.136,1.189,0.822,1.956C40.873,62.179,40.312,62.531,39.721,62.531z"/>
		<path id="path-4_76_" d="M46.775,34.384c0,0.926-0.75,1.677-1.677,1.677c-0.926,0-1.677-0.751-1.677-1.677
			c0-0.926,0.751-1.677,1.677-1.677C46.025,32.707,46.775,33.458,46.775,34.384z"/>
		<path id="path-5_58_" d="M34.477,43.329c0,0.925-0.751,1.676-1.677,1.676c-0.927,0-1.678-0.751-1.678-1.676
			c0-0.927,0.751-1.678,1.678-1.678C33.726,41.651,34.477,42.402,34.477,43.329z"/>
		<path id="path-6_43_" d="M24.413,28.794c0,0.926-0.751,1.677-1.677,1.677c-0.926,0-1.676-0.751-1.676-1.677
			c0-0.926,0.75-1.677,1.676-1.677C23.662,27.117,24.413,27.868,24.413,28.794z"/>
		<path id="path-7_26_" d="M22.177,46.683c0,0.926-0.75,1.676-1.677,1.676c-0.926,0-1.677-0.75-1.677-1.676
			c0-0.927,0.751-1.678,1.677-1.678C21.427,45.005,22.177,45.756,22.177,46.683z"/>
	</g>
</g>
<g>
</g>
<g>
</g>
<g>
</g>
<g>
</g>
<g>
</g>
<g>
</g>
<g>
</g>
<g>
</g>
<g>
</g>
<g>
</g>
<g>
</g>
<g>
</g>
<g>
</g>
<g>
</g>
<g>
</g>
</svg>
