<?xml version="1.0" encoding="iso-8859-1"?>
<!-- Generator: Adobe Illustrator 19.1.0, SVG Export Plug-In . SVG Version: 6.00 Build 0)  -->
<svg version="1.1" id="Capa_1" xmlns="http://www.w3.org/2000/svg" xmlns:xlink="http://www.w3.org/1999/xlink" x="0px" y="0px"
	 viewBox="0 0 63.185 63.185" style="enable-background:new 0 0 63.185 63.185;" xml:space="preserve">
<g>
	<g id="group-54svg">
		<path id="path-1_48_" d="M27.197,48.904c-0.388,0-0.805-0.058-1.238-0.175c-2.095-0.566-5.883-2.639-6.611-3.043
			c-0.854-0.356-5.232-2.333-5.619-5.68c-0.22-1.899,0.838-3.68,3.143-5.293c1.729-1.21,3.458-1.824,5.139-1.824
			c4.93,0,7.406,5.143,7.509,5.362c0.028,0.059,0.052,0.12,0.071,0.181c0.495,1.543,1.968,6.764,0.195,9.194
			C29.184,48.45,28.265,48.904,27.197,48.904z M22.011,35.889c-1.053,0-2.204,0.431-3.419,1.282
			c-0.75,0.524-1.992,1.546-1.882,2.491c0.157,1.364,2.708,2.821,3.846,3.277c0.061,0.024,0.119,0.051,0.175,0.083
			c1.145,0.64,4.455,2.391,6.008,2.81c0.491,0.133,0.6,0.055,0.599,0.055c0.532-0.395,0.371-3.423-0.57-6.432
			C26.5,38.942,24.785,35.889,22.011,35.889z"/>
		<path id="path-2_48_" d="M32.237,55.423c-0.646,0-1.349-0.102-2.09-0.301c-4.112-1.107-12.027-5.471-12.971-5.995
			c-1.063-0.439-9.714-4.199-10.407-10.185c-0.371-3.211,1.533-6.304,5.659-9.193c3.204-2.242,6.375-3.379,9.426-3.379
			c8.925,0,13.483,9.468,13.672,9.87c0.027,0.06,0.052,0.119,0.071,0.182c0.408,1.272,3.888,12.565,0.609,17.059
			C35.278,54.751,33.906,55.423,32.237,55.423z M21.854,29.37c-2.423,0-5.016,0.954-7.705,2.837
			c-3.154,2.208-4.635,4.357-4.399,6.39c0.429,3.723,6.379,6.882,8.634,7.784c0.061,0.023,0.12,0.051,0.175,0.082
			c0.084,0.047,8.443,4.705,12.368,5.763c0.488,0.131,0.928,0.197,1.31,0.197c0.909,0,1.303-0.38,1.545-0.71
			c1.785-2.446,0.341-10.002-1.009-14.272C32.353,36.611,28.493,29.37,21.854,29.37z"/>
		<path id="path-3_48_" d="M36.603,63.094c-0.883,0-1.849-0.14-2.874-0.416c-5.988-1.612-17.648-8.057-18.84-8.719
			c-1.315-0.541-13.851-5.902-14.828-14.347c-0.511-4.42,2.175-8.723,7.983-12.789c4.564-3.195,9.066-4.815,13.381-4.815
			c12.613,0,19.09,13.459,19.36,14.031c0.027,0.06,0.052,0.12,0.071,0.182c0.585,1.826,5.581,18.025,0.988,24.318
			C40.625,62.211,38.812,63.094,36.603,63.094z M21.425,25.008c-3.687,0-7.611,1.437-11.661,4.273
			c-4.836,3.385-7.097,6.744-6.722,9.988c0.668,5.78,9.65,10.581,13.054,11.942c0.061,0.023,0.119,0.052,0.175,0.083
			c0.124,0.069,12.415,6.919,18.237,8.487c2.344,0.631,3.932,0.334,4.914-1.01c3.115-4.27,0.083-16.886-1.39-21.533
			C37.502,36.179,31.664,25.008,21.425,25.008z"/>
		<path id="path-4_43_" d="M39.282,39.142c-0.57,0-1.115-0.327-1.366-0.88c-0.343-0.754-0.01-1.644,0.745-1.986
			c16.83-7.648,20.594-13.782,21.34-16.757c0.59-2.355-0.396-3.68-0.438-3.735c-0.2-0.261-0.327-0.605-0.327-0.935
			c0-0.056-0.09-6.145-4.768-9.483C50.202,2.321,43.464,2.318,34.44,5.362c-13.348,4.501-18.215,9.843-19.948,13.532
			c-1.693,3.606-0.731,6.202-0.689,6.311c0.295,0.767-0.08,1.637-0.844,1.94c-0.766,0.304-1.628-0.06-1.939-0.82
			c-0.062-0.152-1.497-3.781,0.693-8.569C14.546,11.561,21.87,6.435,33.481,2.519c10.01-3.375,17.669-3.23,22.762,0.428
			c5.118,3.675,5.866,9.65,5.974,11.41c0.66,1.083,1.332,3.127,0.738,5.71c-1.448,6.274-9.204,12.646-23.054,18.94
			C39.7,39.098,39.489,39.142,39.282,39.142z"/>
		<path id="path-5_35_" d="M47.275,35.112c-0.163,0-0.33-0.026-0.493-0.083c-0.782-0.272-1.195-1.127-0.924-1.909
			c1.23-3.537-1.048-7.869-1.071-7.912c-0.033-0.061-0.063-0.124-0.087-0.189c-4.832-12.793-26.886-10.867-27.108-10.847
			c-0.824,0.083-1.555-0.528-1.633-1.353c-0.078-0.824,0.527-1.556,1.352-1.633c0.996-0.094,24.468-2.129,30.161,12.683
			c0.406,0.78,2.797,5.701,1.22,10.236C48.476,34.725,47.896,35.112,47.275,35.112z"/>
	</g>
</g>
<g>
</g>
<g>
</g>
<g>
</g>
<g>
</g>
<g>
</g>
<g>
</g>
<g>
</g>
<g>
</g>
<g>
</g>
<g>
</g>
<g>
</g>
<g>
</g>
<g>
</g>
<g>
</g>
<g>
</g>
</svg>
