<?xml version="1.0" encoding="iso-8859-1"?>
<!-- Generator: Adobe Illustrator 19.1.0, SVG Export Plug-In . SVG Version: 6.00 Build 0)  -->
<svg version="1.1" id="Capa_1" xmlns="http://www.w3.org/2000/svg" xmlns:xlink="http://www.w3.org/1999/xlink" x="0px" y="0px"
	 viewBox="0 0 63 63" style="enable-background:new 0 0 63 63;" xml:space="preserve">
<g>
	<g id="group-24svg">
		<path id="path-1_15_" d="M30.317,63L30.317,63c-2.396,0-4.934-1.234-5.216-1.374c-0.08-0.04-0.157-0.088-0.229-0.142
			c-11.73-8.797-12.427-21.292-12.405-24.459c-4.513-4.431-3.35-9.032-1.745-11.423c-1.476-5.249,2.368-9.508,5.349-11.552
			c-0.379-1.961,0.149-3.394,0.72-4.3c1.437-2.283,4.278-3.237,5.952-3.614c0.504-4.798,3.884-5.349,5.402-5.349
			c1.171,0,2.249,0.287,2.926,0.517C32.841,0.427,34.38,0,35.76,0c1.475,0,2.754,0.516,3.702,1.493
			c0.982,1.014,1.439,2.334,1.65,3.409C41.84,4.768,42.527,4.7,43.167,4.7c2.548,0,4.018,1.078,4.803,1.983
			c1.612,1.856,1.714,4.406,1.652,5.646c3.58,4.334,4.814,8.276,3.669,11.723c-1.114,3.352-4.242,5.387-6.764,6.526
			c2.525,1.949,3.142,4.703,3.04,6.234c-0.053,0.78-0.695,1.389-1.478,1.4c-7.394,0.094-12.188,1.883-14.25,5.318
			c-2.958,4.93,0.556,11.855,0.592,11.924c0.06,0.117,0.105,0.241,0.133,0.368c0.557,2.551,0.332,4.405-0.686,5.67
			C33.324,62.18,32.256,63,30.317,63z M26.557,58.997C27.247,59.322,28.97,60,30.317,60l0,0c0.605,0,1.016-0.131,1.224-0.389
			c0.179-0.223,0.542-0.953,0.129-2.972c-0.636-1.317-3.938-8.762-0.403-14.653c2.455-4.09,7.53-6.348,15.099-6.723
			c-0.369-1.15-1.379-2.718-4.112-3.477c-0.664-0.184-1.117-0.797-1.098-1.484c0.017-0.689,0.502-1.276,1.174-1.426
			c0.064-0.014,6.722-1.559,8.116-5.777c0.828-2.504-0.353-5.633-3.509-9.3c-0.282-0.328-0.409-0.762-0.349-1.19
			c0.096-0.707,0.123-2.809-0.89-3.968c-0.959-1.095-2.835-1.229-5.48-0.437c-0.461,0.138-0.961,0.047-1.344-0.247
			c-0.383-0.294-0.601-0.754-0.585-1.236c0.012-0.576-0.139-2.277-0.988-3.146c-0.964-0.988-2.837-0.7-5.429,0.692
			c-0.414,0.223-0.907,0.238-1.333,0.043c-0.007-0.003-1.182-0.523-2.394-0.523c-0.801,0-2.466,0-2.466,3.618
			c0,0.764-0.575,1.406-1.334,1.491c-1.041,0.12-3.978,0.797-5.018,2.457c-0.481,0.766-0.514,1.709-0.103,2.883
			c0.241,0.688-0.048,1.449-0.683,1.804c-0.276,0.156-6.798,3.921-4.746,9.306c0.198,0.519,0.092,1.104-0.273,1.522
			c-0.345,0.406-3.288,4.155,1.464,8.407c0.345,0.308,0.527,0.757,0.497,1.217C15.474,36.625,14.773,50.069,26.557,58.997z"/>
		<path id="path-2_15_" d="M32.387,62.366c-0.379,0-0.758-0.143-1.05-0.431c-0.213-0.209-21.023-21.32,3.162-50.08
			c0.534-0.634,1.48-0.716,2.114-0.182c0.634,0.533,0.716,1.479,0.182,2.113C14.436,40.375,32.658,59.02,33.444,59.8
			c0.587,0.583,0.593,1.532,0.011,2.121C33.162,62.217,32.775,62.366,32.387,62.366z"/>
		<path id="path-3_15_" d="M38.195,24.036c-0.616,0-1.193-0.382-1.413-0.996c-0.466-0.55-3.759-0.954-6.739-0.771
			c-0.82,0.051-1.539-0.577-1.59-1.404c-0.051-0.826,0.577-1.538,1.403-1.59c2.577-0.16,8.691-0.216,9.752,2.757
			c0.278,0.78-0.129,1.638-0.909,1.916C38.533,24.008,38.362,24.036,38.195,24.036z"/>
		<path id="path-4_13_" d="M42.018,18.302c-0.616,0-1.193-0.382-1.412-0.995c-0.466-0.55-3.753-0.955-6.74-0.772
			c-0.812,0.05-1.538-0.577-1.59-1.404c-0.051-0.826,0.577-1.538,1.403-1.59c2.576-0.16,8.691-0.215,9.751,2.756
			c0.28,0.78-0.127,1.639-0.907,1.918C42.356,18.274,42.186,18.302,42.018,18.302z"/>
		<path id="path-5_9_" d="M25.92,31.082c-0.578,0-1.127-0.335-1.375-0.897l-3.491-7.948c-0.333-0.758,0.012-1.643,0.77-1.977
			c0.761-0.331,1.643,0.012,1.976,0.771l3.492,7.947c0.333,0.759-0.012,1.644-0.77,1.977C26.326,31.041,26.121,31.082,25.92,31.082z
			"/>
		<path id="path-6_6_" d="M24.976,38.343c-0.413,0-0.824-0.169-1.121-0.501c-0.551-0.619-0.496-1.567,0.122-2.119l4.975-4.432
			c0.619-0.552,1.565-0.496,2.118,0.122c0.551,0.618,0.496,1.567-0.122,2.118l-4.975,4.433
			C25.687,38.218,25.331,38.343,24.976,38.343z"/>
		<path id="path-7_4_" d="M24.975,47.97c-0.387,0-0.772-0.149-1.065-0.444l-4.459-4.503c-0.583-0.589-0.579-1.538,0.01-2.121
			c0.589-0.583,1.539-0.578,2.121,0.01l4.459,4.502c0.583,0.589,0.579,1.539-0.01,2.122C25.738,47.825,25.357,47.97,24.975,47.97z"
			/>
	</g>
</g>
<g>
</g>
<g>
</g>
<g>
</g>
<g>
</g>
<g>
</g>
<g>
</g>
<g>
</g>
<g>
</g>
<g>
</g>
<g>
</g>
<g>
</g>
<g>
</g>
<g>
</g>
<g>
</g>
<g>
</g>
</svg>
