<?xml version="1.0" encoding="iso-8859-1"?>
<!-- Generator: Adobe Illustrator 19.1.0, SVG Export Plug-In . SVG Version: 6.00 Build 0)  -->
<svg version="1.1" id="Capa_1" xmlns="http://www.w3.org/2000/svg" xmlns:xlink="http://www.w3.org/1999/xlink" x="0px" y="0px"
	 viewBox="0 0 62.975 62.975" style="enable-background:new 0 0 62.975 62.975;" xml:space="preserve">
<g>
	<g id="group-74svg">
		<path id="path-1_70_" d="M46.77,26.975H16.088c-0.608,0-1.155-0.366-1.386-0.927c-0.233-0.561-0.104-1.206,0.326-1.635L30.369,9.1
			c0.586-0.584,1.533-0.584,2.119,0L47.83,24.413c0.429,0.429,0.558,1.074,0.326,1.635C47.925,26.609,47.378,26.975,46.77,26.975z
			 M19.714,23.975h23.43L31.428,12.281L19.714,23.975z"/>
		<path id="path-2_70_" d="M51.564,62.975h-41c-0.828,0-1.073-0.672-1.073-1.5V22.824c0-0.386-0.064-0.76,0.205-1.039L30.089,0.441
			c0.566-0.588,1.544-0.588,2.11,0l20.687,21.344c0.269,0.279,0.605,0.653,0.605,1.039v38.651
			C53.491,62.303,52.392,62.975,51.564,62.975z M12.491,59.975h38V23.428l-19-19.781l-19,19.781V59.975z"/>
		<path id="path-3_70_" d="M20.844,52.582l-1.943-7.724v8.369c0,0.462-0.103,0.811-0.309,1.043c-0.207,0.23-0.482,0.347-0.824,0.347
			c-0.331,0-0.601-0.115-0.81-0.344c-0.21-0.228-0.315-0.578-0.315-1.046v-9.594c0-0.529,0.138-0.885,0.414-1.07
			c0.276-0.186,0.648-0.278,1.117-0.278h0.76c0.458,0,0.79,0.041,0.996,0.125c0.207,0.082,0.361,0.231,0.46,0.446
			c0.099,0.214,0.212,0.566,0.339,1.05l1.762,6.641l1.761-6.641c0.127-0.484,0.24-0.836,0.34-1.05
			c0.098-0.215,0.252-0.364,0.459-0.446c0.206-0.084,0.538-0.125,0.996-0.125h0.76c0.469,0,0.841,0.092,1.118,0.278
			c0.275,0.185,0.413,0.541,0.413,1.07v9.594c0,0.462-0.104,0.811-0.311,1.043c-0.206,0.23-0.483,0.347-0.831,0.347
			c-0.325,0-0.593-0.117-0.802-0.347c-0.21-0.232-0.314-0.581-0.314-1.043v-8.369l-1.944,7.724c-0.126,0.502-0.23,0.869-0.31,1.104
			c-0.08,0.234-0.228,0.449-0.442,0.64c-0.215,0.194-0.513,0.291-0.893,0.291c-0.287,0-0.529-0.062-0.729-0.187
			c-0.198-0.123-0.352-0.282-0.462-0.475c-0.111-0.193-0.198-0.406-0.261-0.64C20.975,53.08,20.911,52.836,20.844,52.582z"/>
		<path id="path-4_61_" d="M31.844,44.387c-0.314,0-0.583-0.098-0.806-0.291c-0.224-0.192-0.335-0.465-0.335-0.819
			c0-0.318,0.114-0.582,0.343-0.789c0.229-0.207,0.495-0.31,0.798-0.31c0.293,0,0.551,0.094,0.778,0.281
			c0.225,0.188,0.339,0.461,0.339,0.818c0,0.348-0.111,0.62-0.331,0.815C32.409,44.289,32.147,44.387,31.844,44.387z M32.961,46.719
			v6.525c0,0.451-0.108,0.794-0.323,1.026c-0.215,0.23-0.488,0.347-0.819,0.347s-0.6-0.119-0.807-0.355
			c-0.206-0.238-0.309-0.576-0.309-1.018v-6.459c0-0.447,0.103-0.783,0.309-1.01c0.207-0.226,0.476-0.339,0.807-0.339
			s0.604,0.113,0.819,0.339C32.853,46.002,32.961,46.317,32.961,46.719z"/>
		<path id="path-5_48_" d="M35.293,53.244v-9.793c0-0.451,0.1-0.793,0.301-1.025c0.202-0.231,0.474-0.348,0.816-0.348
			c0.342,0,0.617,0.115,0.827,0.344c0.209,0.228,0.314,0.572,0.314,1.029v9.793c0,0.457-0.106,0.801-0.319,1.029
			c-0.212,0.229-0.486,0.344-0.822,0.344c-0.331,0-0.6-0.119-0.807-0.355C35.396,54.024,35.293,53.686,35.293,53.244z"/>
		<path id="path-6_35_" d="M45.507,53.582l-1.994-3.275l-1.223,1.158v1.795c0,0.435-0.114,0.771-0.344,1.006
			c-0.229,0.234-0.492,0.351-0.789,0.351c-0.348,0-0.621-0.117-0.819-0.347c-0.199-0.232-0.298-0.575-0.298-1.026v-9.627
			c0-0.502,0.096-0.883,0.29-1.146c0.192-0.262,0.468-0.393,0.827-0.393c0.347,0,0.622,0.119,0.826,0.356
			c0.204,0.238,0.307,0.588,0.307,1.05v5.475l2.539-2.662c0.313-0.332,0.554-0.557,0.719-0.678c0.166-0.121,0.367-0.183,0.604-0.183
			c0.281,0,0.516,0.089,0.703,0.27c0.187,0.179,0.28,0.403,0.28,0.673c0,0.332-0.305,0.771-0.918,1.324l-1.199,1.1l2.317,3.638
			c0.171,0.27,0.293,0.475,0.368,0.616c0.074,0.14,0.111,0.275,0.111,0.402c0,0.357-0.097,0.641-0.294,0.848
			c-0.195,0.207-0.453,0.31-0.773,0.31c-0.276,0-0.488-0.074-0.637-0.224C45.962,54.244,45.76,53.975,45.507,53.582z"/>
	</g>
</g>
<g>
</g>
<g>
</g>
<g>
</g>
<g>
</g>
<g>
</g>
<g>
</g>
<g>
</g>
<g>
</g>
<g>
</g>
<g>
</g>
<g>
</g>
<g>
</g>
<g>
</g>
<g>
</g>
<g>
</g>
</svg>
