<?xml version="1.0" encoding="iso-8859-1"?>
<!-- Generator: Adobe Illustrator 19.1.0, SVG Export Plug-In . SVG Version: 6.00 Build 0)  -->
<svg version="1.1" id="Capa_1" xmlns="http://www.w3.org/2000/svg" xmlns:xlink="http://www.w3.org/1999/xlink" x="0px" y="0px"
	 viewBox="0 0 63 63" style="enable-background:new 0 0 63 63;" xml:space="preserve">
<g>
	<g id="group-22svg">
		<path id="path-1_13_" d="M49.205,32.513c-0.101,0-0.202-0.01-0.301-0.03c-0.1-0.021-10.146-2.059-17.404-2.059
			c-7.264,0-17.304,2.038-17.404,2.059c-0.099,0.02-0.2,0.03-0.301,0.03c-3.412,0-13.795,0-13.795-9.86
			C0,14.995,7.36,7.059,16.407,4.961C16.834,4.872,26.12,2.955,31.5,2.955c5.391,0,15.314,2.215,15.734,2.309
			c0.044,0.01,0.088,0.022,0.131,0.036C57.447,8.546,63,14.708,63,22.652C63,32.513,52.617,32.513,49.205,32.513z M31.5,27.423
			c7.153,0,16.501,1.818,17.853,2.089C56.813,29.485,60,27.429,60,22.652c0-6.612-4.664-11.617-13.488-14.475
			C45.639,7.984,36.342,5.955,31.5,5.955c-5.074,0-14.355,1.917-14.448,1.936C9.45,9.654,3,16.417,3,22.652
			c0,4.777,3.187,6.833,10.646,6.86C14.999,29.241,24.347,27.423,31.5,27.423z"/>
		<path id="path-2_13_" d="M37.647,60.045H27.066c-2.596,0-4.371-0.757-5.274-2.25c-1.77-2.925,0.6-7.448,2.69-11.438
			c0.513-0.978,0.996-1.903,1.368-2.708c1.479-3.214,1.283-9.352,0.605-14.025c-0.062-0.431,0.072-0.887,0.357-1.216
			c0.435-0.503,0.654-0.755,5.564-0.755c4.991,0,5.211,0.255,5.649,0.763c0.286,0.331,0.419,0.788,0.355,1.22
			c-0.704,4.671-0.93,10.803,0.548,14.014c0.364,0.791,0.836,1.696,1.336,2.655c2.087,4.007,4.453,8.548,2.672,11.484
			C42.027,59.285,40.249,60.045,37.647,60.045z M29.618,30.703c0.395,3.449,0.827,10.136-1.044,14.2
			c-0.402,0.875-0.903,1.832-1.434,2.845c-1.464,2.794-3.675,7.015-2.782,8.493c0.423,0.698,1.878,0.803,2.708,0.803h10.581
			c0.833,0,2.295-0.106,2.723-0.812c0.905-1.492-1.305-5.734-2.767-8.541c-0.517-0.993-1.005-1.93-1.4-2.788
			c-1.871-4.065-1.406-10.747-0.993-14.198c-0.69-0.03-1.649-0.053-2.834-0.053C31.226,30.652,30.293,30.674,29.618,30.703z"/>
		<path id="path-3_13_" d="M9.613,24.89c-0.789,0-1.45-0.616-1.496-1.414c-0.175-3.023,0.776-5.68,2.823-7.898
			C17.018,9,30.88,8.624,31.468,8.612c0.783-0.036,1.513,0.637,1.531,1.466c0.019,0.828-0.638,1.514-1.466,1.533
			c-0.131,0.002-13.182,0.362-18.391,6.006c-1.494,1.618-2.158,3.478-2.031,5.686c0.048,0.828-0.584,1.537-1.411,1.584
			C9.671,24.889,9.642,24.89,9.613,24.89z"/>
	</g>
</g>
<g>
</g>
<g>
</g>
<g>
</g>
<g>
</g>
<g>
</g>
<g>
</g>
<g>
</g>
<g>
</g>
<g>
</g>
<g>
</g>
<g>
</g>
<g>
</g>
<g>
</g>
<g>
</g>
<g>
</g>
</svg>
