<?xml version="1.0" encoding="iso-8859-1"?>
<!-- Generator: Adobe Illustrator 19.1.0, SVG Export Plug-In . SVG Version: 6.00 Build 0)  -->
<svg version="1.1" id="Capa_1" xmlns="http://www.w3.org/2000/svg" xmlns:xlink="http://www.w3.org/1999/xlink" x="0px" y="0px"
	 viewBox="0 0 63 63" style="enable-background:new 0 0 63 63;" xml:space="preserve">
<g>
	<g id="group-89svg">
		<path id="path-1_86_" d="M31.5,56.282c-17.075,0-31.5-14.425-31.5-31.5c0-0.828,0.672-1.5,1.5-1.5h60c0.828,0,1.5,0.672,1.5,1.5
			C63,41.857,48.575,56.282,31.5,56.282z M3.041,26.282c0.81,14.785,13.513,27,28.459,27s27.648-12.215,28.459-27H3.041z"/>
		<path id="path-2_86_" d="M35.414,33.282h-33c-0.828,0-1.5-0.671-1.5-1.5c0-0.828,0.672-1.5,1.5-1.5h33c0.828,0,1.5,0.672,1.5,1.5
			C36.914,32.611,36.242,33.282,35.414,33.282z"/>
		<path id="path-3_85_" d="M40.434,43.282h-0.286c-0.109,0-0.003-0.011-0.105-0.033c-1.954-0.211-4.202-1.397-4.202-3.638V24.782
			c0-0.828,0.245-1.5,1.073-1.5h11c0.828,0,1.927,0.672,1.927,1.5v7c0,0.829-1.099,1.5-1.927,1.5h-4.073v6.329
			c0,2.675-1.666,3.433-2.795,3.619C40.918,43.264,40.572,43.282,40.434,43.282z M38.841,26.282v13.329
			c0,0.148,0.758,0.61,1.652,0.666c0.027-0.002,0.157-0.005,0.175-0.008c0.027-0.089,0.173-0.284,0.173-0.658v-7.829
			c0-0.828,0.245-1.5,1.073-1.5h4.927v-4H38.841z"/>
		<path id="path-4_75_" d="M31.741,50.149c-7.228,0-12.254-2.84-12.529-2.999c-0.718-0.414-0.963-1.332-0.549-2.049
			c0.413-0.717,1.332-0.961,2.046-0.551l0,0c0.079,0.045,7.993,4.473,17.831,1.635c0.8-0.231,1.628,0.229,1.857,1.025
			c0.23,0.797-0.229,1.628-1.025,1.858C36.655,49.851,34.083,50.149,31.741,50.149z"/>
		<path id="path-5_57_" d="M33.632,26.227c-0.444,0-0.883-0.197-1.179-0.572c-0.513-0.65-0.401-1.593,0.249-2.107L53.648,7.04
			c0.652-0.513,1.594-0.401,2.107,0.249c0.512,0.652,0.401,1.595-0.249,2.107L34.559,25.905
			C34.284,26.122,33.957,26.227,33.632,26.227z"/>
		<path id="path-6_42_" d="M21.915,26.227c-0.443,0-0.883-0.197-1.179-0.572c-0.512-0.65-0.401-1.593,0.249-2.107l14.557-11.472
			c0.65-0.512,1.594-0.401,2.106,0.249c0.513,0.652,0.402,1.595-0.249,2.108L22.843,25.905
			C22.567,26.122,22.24,26.227,21.915,26.227z"/>
	</g>
</g>
<g>
</g>
<g>
</g>
<g>
</g>
<g>
</g>
<g>
</g>
<g>
</g>
<g>
</g>
<g>
</g>
<g>
</g>
<g>
</g>
<g>
</g>
<g>
</g>
<g>
</g>
<g>
</g>
<g>
</g>
</svg>
