<?xml version="1.0" encoding="iso-8859-1"?>
<!-- Generator: Adobe Illustrator 19.1.0, SVG Export Plug-In . SVG Version: 6.00 Build 0)  -->
<svg version="1.1" id="Capa_1" xmlns="http://www.w3.org/2000/svg" xmlns:xlink="http://www.w3.org/1999/xlink" x="0px" y="0px"
	 viewBox="0 0 63.001 63.001" style="enable-background:new 0 0 63.001 63.001;" xml:space="preserve">
<g>
	<g id="group-12svg">
		<path id="path-1_2_" d="M31.5,63.001c-12.94,0-23.467-10.528-23.467-23.467S18.56,16.067,31.5,16.067
			c12.939,0,23.467,10.528,23.467,23.467S44.439,63.001,31.5,63.001z M31.5,19.067c-11.285,0-20.467,9.181-20.467,20.467
			S20.215,60.001,31.5,60.001s20.467-9.181,20.467-20.467S42.785,19.067,31.5,19.067z"/>
		<path id="path-2_2_" d="M31.966,11.744c-0.64,0-1.232-0.411-1.432-1.053c-0.247-0.791,0.194-1.632,0.984-1.879
			c0.234-0.073,5.751-1.769,9.742-0.998c0.814,0.157,1.346,0.944,1.189,1.757c-0.157,0.814-0.95,1.346-1.757,1.188
			c-2.711-0.524-6.895,0.485-8.279,0.917C32.263,11.722,32.113,11.744,31.966,11.744z"/>
		<path id="path-3_2_" d="M42.467,15.239c-1.258,0-2.674-0.268-4.207-0.797c-0.186-0.07-3.858-1.437-6.917-2.833
			c-0.514-0.235-0.853-0.739-0.876-1.304c-0.006-0.14-0.117-3.468,2.033-5.708c1.758-1.833,4.422-2.389,7.823-1.594
			c3.032,0.708,5.319,0.599,6.111-0.211c0.22-0.226,0.277-0.483,0.277-0.485c-0.022-0.789,0.573-1.459,1.359-1.533
			c0.785-0.073,1.494,0.475,1.62,1.254c0.048,0.294,1.131,7.241-2.015,10.937C46.409,14.453,44.608,15.239,42.467,15.239z
			 M33.527,9.299c2.745,1.201,5.713,2.306,5.746,2.318c2.806,0.969,4.908,0.821,6.114-0.593c1.042-1.221,1.419-3.224,1.505-5.039
			c-1.728,0.679-4.15,0.663-7.251-0.06c-2.3-0.537-3.974-0.294-4.977,0.75C33.917,7.453,33.634,8.541,33.527,9.299z"/>
		<path id="path-4_2_" d="M22.129,15.003C22.129,15.003,22.129,15.003,22.129,15.003c-3.097,0-4.816-1.385-5.712-2.546
			c-3.042-3.942-1.232-11.036-1.154-11.336c0.201-0.763,1.402-1.244,2.178-1.093c0.775,0.147,1.652,0.871,1.652,1.654
			c0-0.001,0-0.001,0-0.001s-0.429,0.299-0.136,0.601c0.322,0.332,0.979,0.889,3.241,0.889c0.75,0,1.487-0.063,2.408-0.187
			c3.333-0.45,5.793,0.271,7.396,2.108c2.137,2.451,1.658,5.951,1.638,6.099c-0.077,0.56-0.476,1.029-1.01,1.214
			c-3.179,1.099-6.972,2.11-7.132,2.153C24.266,14.857,23.139,15.003,22.129,15.003z M17.672,5.325
			c-0.092,1.884,0.111,3.996,1.122,5.302c0.716,0.926,1.807,1.376,3.334,1.376c0.001,0,0.001,0,0.001,0
			c0.773,0,1.656-0.119,2.624-0.352c0.004-0.002,3.06-0.818,5.907-1.753c-0.036-0.804-0.231-1.989-0.985-2.846
			c-0.906-1.027-2.544-1.397-4.78-1.095C21.742,6.38,19.331,6.17,17.672,5.325z"/>
		<path id="path-5_2_" d="M32.125,12.487c-0.194,0-0.39-0.038-0.579-0.117c-0.048-0.02-4.871-2.014-8.158-1.7
			c-0.832,0.082-1.556-0.526-1.635-1.351s0.525-1.557,1.35-1.636c4.047-0.385,9.379,1.826,9.604,1.921
			c0.763,0.321,1.122,1.199,0.801,1.963C33.267,12.141,32.711,12.487,32.125,12.487z"/>
		<path id="path-6_1_" d="M31.499,17.948c-0.653,0-1.253-0.429-1.442-1.088c-0.807-2.825,0.415-7.746,0.557-8.299
			c0.207-0.801,1.023-1.286,1.826-1.078c0.802,0.206,1.285,1.023,1.08,1.825c-0.458,1.784-1.018,5.186-0.578,6.728
			c0.228,0.796-0.233,1.626-1.03,1.854C31.774,17.929,31.635,17.948,31.499,17.948z"/>
		<path id="path-7_1_" d="M40.732,24.857c0,1.046-0.848,1.894-1.894,1.894c-1.046,0-1.893-0.848-1.893-1.894
			s0.847-1.893,1.893-1.893C39.884,22.964,40.732,23.811,40.732,24.857z"/>
		<path id="path-8_1_" d="M32.896,30.454c0,1.046-0.848,1.894-1.894,1.894s-1.893-0.848-1.893-1.894s0.847-1.893,1.893-1.893
			S32.896,29.408,32.896,30.454z"/>
		<path id="path-9_1_" d="M32.896,39.41c0,1.045-0.848,1.893-1.894,1.893s-1.893-0.848-1.893-1.893c0-1.046,0.847-1.894,1.893-1.894
			S32.896,38.364,32.896,39.41z"/>
		<path id="path-10_1_" d="M48.568,40.529c0,1.046-0.848,1.894-1.894,1.894c-1.046,0-1.894-0.848-1.894-1.894
			c0-1.046,0.848-1.894,1.894-1.894C47.72,38.635,48.568,39.483,48.568,40.529z"/>
		<path id="path-11_1_" d="M18.343,40.529c0,1.046-0.848,1.894-1.894,1.894s-1.893-0.848-1.893-1.894
			c0-1.046,0.847-1.894,1.893-1.894S18.343,39.483,18.343,40.529z"/>
		<path id="path-12_1_" d="M45.21,32.693c0,1.046-0.848,1.894-1.894,1.894s-1.894-0.848-1.894-1.894S42.27,30.8,43.316,30.8
			S45.21,31.647,45.21,32.693z"/>
		<path id="path-13_1_" d="M23.511,24.857c0,1.046,0.848,1.894,1.894,1.894c1.046,0,1.894-0.848,1.894-1.894
			s-0.848-1.893-1.894-1.893C24.359,22.964,23.511,23.811,23.511,24.857z"/>
		<path id="path-14_1_" d="M19.033,32.693c0,1.046,0.848,1.894,1.894,1.894c1.046,0,1.894-0.848,1.894-1.894
			S21.973,30.8,20.927,30.8C19.881,30.8,19.033,31.647,19.033,32.693z"/>
	</g>
</g>
<g>
</g>
<g>
</g>
<g>
</g>
<g>
</g>
<g>
</g>
<g>
</g>
<g>
</g>
<g>
</g>
<g>
</g>
<g>
</g>
<g>
</g>
<g>
</g>
<g>
</g>
<g>
</g>
<g>
</g>
</svg>
