<?xml version="1.0" encoding="iso-8859-1"?>
<!-- Generator: Adobe Illustrator 19.1.0, SVG Export Plug-In . SVG Version: 6.00 Build 0)  -->
<svg version="1.1" id="Capa_1" xmlns="http://www.w3.org/2000/svg" xmlns:xlink="http://www.w3.org/1999/xlink" x="0px" y="0px"
	 viewBox="0 0 63 63" style="enable-background:new 0 0 63 63;" xml:space="preserve">
<g>
	<g id="group-10svg">
		<path id="path-1" d="M35.786,55.674c-1.456,0-2.896-0.207-4.286-0.618c-1.391,0.411-2.83,0.618-4.286,0.618
			c-8.75,0-15.87-7.501-15.87-16.722s7.12-16.722,15.87-16.722c1.457,0,2.896,0.207,4.286,0.617c1.389-0.41,2.829-0.617,4.286-0.617
			c8.75,0,15.869,7.501,15.869,16.722S44.536,55.674,35.786,55.674z M31.5,51.985c0.159,0,0.317,0.026,0.47,0.076
			c1.232,0.407,2.515,0.613,3.816,0.613c7.096,0,12.869-6.156,12.869-13.722S42.882,25.23,35.786,25.23
			c-1.302,0-2.585,0.206-3.816,0.613c-0.304,0.101-0.636,0.101-0.941,0c-1.23-0.407-2.514-0.613-3.815-0.613
			c-7.096,0-12.869,6.156-12.869,13.722s5.773,13.722,12.869,13.722c1.3,0,2.584-0.206,3.815-0.613
			C31.182,52.011,31.341,51.985,31.5,51.985z"/>
		<path id="path-2" d="M37.849,63c-2.16,0-4.294-0.318-6.349-0.946C29.444,62.682,27.31,63,25.15,63
			C12.587,63,2.366,52.212,2.366,38.952c0-13.261,10.221-24.049,22.784-24.049c2.16,0,4.293,0.318,6.35,0.947
			c2.056-0.629,4.189-0.947,6.349-0.947c12.564,0,22.785,10.788,22.785,24.049C60.634,52.212,50.413,63,37.849,63z M31.5,58.98
			c0.159,0,0.318,0.025,0.47,0.075C33.866,59.682,35.843,60,37.849,60c10.91,0,19.785-9.442,19.785-21.048
			c0-11.607-8.875-21.049-19.785-21.049c-2.005,0-3.982,0.318-5.879,0.945c-0.304,0.101-0.636,0.101-0.941,0
			c-1.896-0.627-3.874-0.945-5.879-0.945c-10.909,0-19.784,9.442-19.784,21.049C5.366,50.558,14.241,60,25.15,60
			c2.006,0,3.984-0.318,5.879-0.945C31.181,59.005,31.341,58.98,31.5,58.98z"/>
		<path id="path-3" d="M31.218,47.534c-3.581,0-6.385-3.913-6.385-8.908s2.804-8.907,6.385-8.907c3.58,0,6.383,3.912,6.383,8.907
			S34.798,47.534,31.218,47.534z M31.218,32.718c-1.601,0-3.385,2.427-3.385,5.908c0,3.482,1.784,5.908,3.385,5.908
			c1.6,0,3.383-2.426,3.383-5.908C34.601,35.145,32.818,32.718,31.218,32.718z"/>
		<path id="path-4" d="M46.415,12.48c-2.315,0-4.739-0.573-7.202-1.703c-0.162-0.078-3.269-1.593-5.835-3.082
			c-0.489-0.283-0.777-0.818-0.745-1.382C32.757,4.13,34.216,0,38.856,0c0.999,0,2.1,0.202,3.274,0.599
			C49.218,3,55.733,5.58,55.799,5.606c0.436,0.173,0.766,0.541,0.891,0.994c0.126,0.452,0.032,0.937-0.253,1.311
			C56.295,8.097,52.873,12.48,46.415,12.48z M35.771,5.605c2.271,1.264,4.696,2.447,4.723,2.46c2.038,0.934,4.041,1.415,5.921,1.415
			c2.756,0,4.788-1.023,6.061-1.945c-2.491-0.954-6.782-2.562-11.309-4.094C40.304,3.148,39.527,3,38.856,3
			C36.784,3,36.039,4.541,35.771,5.605z"/>
		<path id="path-5" d="M31.498,17.903c-0.783,0-1.443-0.608-1.495-1.401c-0.126-1.927,1.022-9.015,1.153-9.817
			c0.007-0.039,0.015-0.077,0.023-0.116c0.04-0.159,1.009-3.929,5.176-6.192c0.728-0.395,1.638-0.126,2.034,0.602
			s0.125,1.639-0.602,2.034c-2.776,1.508-3.571,3.859-3.683,4.236c-0.475,2.91-1.185,7.872-1.107,9.055
			c0.053,0.827-0.572,1.542-1.399,1.596C31.565,17.902,31.531,17.903,31.498,17.903z"/>
	</g>
</g>
<g>
</g>
<g>
</g>
<g>
</g>
<g>
</g>
<g>
</g>
<g>
</g>
<g>
</g>
<g>
</g>
<g>
</g>
<g>
</g>
<g>
</g>
<g>
</g>
<g>
</g>
<g>
</g>
<g>
</g>
</svg>
