<?xml version="1.0" encoding="iso-8859-1"?>
<!-- Generator: Adobe Illustrator 19.1.0, SVG Export Plug-In . SVG Version: 6.00 Build 0)  -->
<svg version="1.1" id="Capa_1" xmlns="http://www.w3.org/2000/svg" xmlns:xlink="http://www.w3.org/1999/xlink" x="0px" y="0px"
	 viewBox="0 0 63 63" style="enable-background:new 0 0 63 63;" xml:space="preserve">
<g>
	<g id="group-21svg">
		<path id="path-1_12_" d="M45.48,36.656c-0.387,0-0.776-0.15-1.069-0.448c-2.069-2.105-3.822-4.296-2.653-6.066
			c0.409-0.621,1.653-2.507,9.823,0.682c0.771,0.302,1.152,1.172,0.851,1.943c-0.3,0.771-1.171,1.154-1.942,0.852
			c-2.139-0.834-4.455-1.461-5.722-1.586c0.299,0.438,0.832,1.106,1.782,2.072c0.581,0.59,0.573,1.54-0.018,2.121
			C46.24,36.513,45.86,36.656,45.48,36.656z"/>
		<path id="path-2_12_" d="M46.782,49.557c-6.317,0-9.401-4.732-9.442-4.799c-0.443-0.7-0.233-1.627,0.468-2.069
			c0.698-0.439,1.62-0.233,2.065,0.463c0.189,0.291,4.463,6.619,14.052,1.225c0.721-0.406,1.636-0.15,2.042,0.572
			c0.407,0.722,0.15,1.637-0.572,2.043C52.051,48.875,49.183,49.557,46.782,49.557z"/>
		<path id="path-3_12_" d="M45.48,54.715c-9.66,0-17.519-7.86-17.519-17.52S35.82,19.676,45.48,19.676S63,27.535,63,37.195
			S55.14,54.715,45.48,54.715z M45.48,22.676c-8.006,0-14.519,6.513-14.519,14.519s6.513,14.52,14.519,14.52S60,45.201,60,37.195
			S53.486,22.676,45.48,22.676z"/>
		<path id="path-4_12_" d="M14.154,36.592C6.349,36.592,0,30.243,0,22.438C0,14.634,6.349,8.284,14.154,8.284
			s14.154,6.35,14.154,14.154C28.308,30.243,21.959,36.592,14.154,36.592z M14.154,11.284C8.004,11.284,3,16.288,3,22.438
			c0,6.151,5.004,11.154,11.154,11.154s11.154-5.003,11.154-11.154C25.308,16.288,20.304,11.284,14.154,11.284z"/>
		<path id="path-5_8_" d="M14.154,22.328c-0.388,0-0.776-0.15-1.069-0.449c-1.728-1.757-3.181-3.601-2.135-5.186
			c0.359-0.543,1.449-2.194,8.138,0.42c0.771,0.301,1.152,1.171,0.851,1.942c-0.302,0.771-1.171,1.154-1.942,0.852
			c-1.261-0.491-2.66-0.905-3.671-1.109c0.224,0.266,0.517,0.59,0.897,0.978c0.581,0.591,0.574,1.541-0.017,2.121
			C14.914,22.185,14.534,22.328,14.154,22.328z"/>
		<path id="path-6_5_" d="M15.181,32.521c-5.159,0-7.689-3.886-7.723-3.94c-0.443-0.701-0.233-1.627,0.469-2.069
			c0.695-0.439,1.619-0.235,2.062,0.46c0.341,0.52,3.498,4.905,10.681,0.864c0.721-0.404,1.636-0.15,2.043,0.573
			c0.406,0.722,0.149,1.636-0.573,2.043C19.443,31.968,17.125,32.521,15.181,32.521z"/>
	</g>
</g>
<g>
</g>
<g>
</g>
<g>
</g>
<g>
</g>
<g>
</g>
<g>
</g>
<g>
</g>
<g>
</g>
<g>
</g>
<g>
</g>
<g>
</g>
<g>
</g>
<g>
</g>
<g>
</g>
<g>
</g>
</svg>
