<?xml version="1.0" encoding="iso-8859-1"?>
<!-- Generator: Adobe Illustrator 19.1.0, SVG Export Plug-In . SVG Version: 6.00 Build 0)  -->
<svg version="1.1" id="Capa_1" xmlns="http://www.w3.org/2000/svg" xmlns:xlink="http://www.w3.org/1999/xlink" x="0px" y="0px"
	 viewBox="0 0 63.001 63.001" style="enable-background:new 0 0 63.001 63.001;" xml:space="preserve">
<g>
	<g id="group-15svg">
		<path id="path-1_5_" d="M41.357,63.001c-2.149,0-2.857-0.632-3.624-1.523c-0.081-0.095-0.164-0.191-0.254-0.29
			c-1.958,1.189-4.176,1.813-6.48,1.813c-2.125,0-4.187-0.526-6.026-1.53c-0.056,0.067-0.109,0.134-0.162,0.201
			c-0.709,0.9-1.367,1.329-3.186,1.329c-6.975,0-12.656-5.579-12.712-12.457L5.914,28.216c-0.009-0.067-0.014-0.133-0.014-0.2
			c0-6.926,5.707-12.561,12.722-12.561c2.181,0,4.423,0.582,6.293,1.616c1.877-1.06,3.988-1.616,6.162-1.616
			c2.33,0,4.647,0.668,6.631,1.896c1.986-1.228,4.317-1.896,6.67-1.896c7.015,0,12.722,5.635,12.722,12.561
			c0,0.067-0.005,0.133-0.014,0.2l-2.998,22.328C54.029,57.307,48.223,63.001,41.357,63.001z M37.608,57.792
			c0.316,0,0.632,0.1,0.898,0.299c0.761,0.569,1.19,1.067,1.502,1.432c0.396,0.46,0.411,0.478,1.349,0.478
			c5.275,0,9.731-4.379,9.731-9.561c0-0.067,0.005-0.133,0.014-0.2l2.997-22.32c-0.055-5.14-4.483-9.465-9.721-9.465
			c-2.075,0-4.126,0.679-5.772,1.91c-0.531,0.398-1.262,0.399-1.797,0.001c-1.647-1.232-3.683-1.911-5.732-1.911
			c-1.904,0-3.743,0.56-5.322,1.619c-0.505,0.339-1.166,0.34-1.671,0c-1.533-1.029-3.523-1.619-5.462-1.619
			c-5.238,0-9.666,4.325-9.721,9.464l2.998,22.321c0.009,0.067,0.014,0.133,0.014,0.2c0,5.182,4.447,9.561,9.712,9.561
			c0.436,0,0.639-0.031,0.722-0.049c0.035-0.041,0.069-0.088,0.108-0.136c0.268-0.342,0.673-0.857,1.533-1.433
			c0.506-0.34,1.166-0.34,1.672,0c1.577,1.058,3.423,1.618,5.339,1.618c2.066,0,4.041-0.66,5.71-1.91
			C36.976,57.892,37.292,57.792,37.608,57.792z"/>
		<path id="path-2_5_" d="M21.491,55.501c-0.624,0-1.207-0.392-1.42-1.015c-3.26-9.548-0.197-31.58-0.066-32.513
			c0.118-0.82,0.884-1.383,1.696-1.276c0.82,0.117,1.391,0.876,1.275,1.696c-0.031,0.221-3.095,22.252-0.065,31.123
			c0.267,0.784-0.152,1.637-0.936,1.904C21.815,55.475,21.651,55.501,21.491,55.501z"/>
		<path id="path-3_5_" d="M41.895,55.501c-0.161,0-0.324-0.026-0.484-0.081c-0.785-0.267-1.203-1.12-0.936-1.904
			c3.029-8.871-0.034-30.902-0.065-31.123c-0.117-0.82,0.455-1.579,1.275-1.696c0.813-0.112,1.578,0.455,1.695,1.276
			c0.132,0.933,3.195,22.965-0.065,32.513C43.102,55.109,42.519,55.501,41.895,55.501z"/>
		<path id="path-4_5_" d="M35.127,14.263h-5.455c-0.798,0-1.458-0.627-1.498-1.424C27.66,2.632,41.289,0.125,41.87,0.023
			c0.437-0.077,1.098,0.044,1.437,0.329s0.748,0.706,0.748,1.149v5.227c0,0.796-0.834,1.453-1.628,1.498
			c-2.566,0.145-5.132,3.823-5.862,5.227C36.306,13.95,35.686,14.263,35.127,14.263z M31.243,11.263h3.008
			c0.952-1.58,2.804-4.836,6.804-5.78v-2.07C38.055,4.269,31.99,6.519,31.243,11.263z"/>
	</g>
</g>
<g>
</g>
<g>
</g>
<g>
</g>
<g>
</g>
<g>
</g>
<g>
</g>
<g>
</g>
<g>
</g>
<g>
</g>
<g>
</g>
<g>
</g>
<g>
</g>
<g>
</g>
<g>
</g>
<g>
</g>
</svg>
