<?xml version="1.0" encoding="iso-8859-1"?>
<!-- Generator: Adobe Illustrator 19.1.0, SVG Export Plug-In . SVG Version: 6.00 Build 0)  -->
<svg version="1.1" id="Capa_1" xmlns="http://www.w3.org/2000/svg" xmlns:xlink="http://www.w3.org/1999/xlink" x="0px" y="0px"
	 viewBox="0 0 63 63" style="enable-background:new 0 0 63 63;" xml:space="preserve">
<g>
	<g id="group-13svg">
		<path id="path-1_3_" d="M37.675,19.369h-3.69c-0.791,0-1.446-0.615-1.497-1.405l-0.115-1.809c-0.009-0.144,0.003-0.29,0.035-0.431
			c0.504-2.194,2.653-6.343,7.174-6.343c1.774,0,3.74,0.646,5.844,1.92c0.533,0.322,0.811,0.94,0.699,1.553
			c-0.112,0.613-0.591,1.092-1.204,1.205c-1.489,0.279-5.746,1.578-5.746,3.81C39.175,18.698,38.504,19.369,37.675,19.369z
			 M35.394,16.369h1.019c0.611-1.849,2.303-3.103,3.973-3.921c-0.278-0.044-0.545-0.067-0.803-0.067c-2.876,0-3.965,3.04-4.199,3.83
			L35.394,16.369z"/>
		<path id="path-2_3_" d="M32.257,18.864c-0.152,0-0.306-0.023-0.456-0.071c-0.622-0.198-1.044-0.777-1.044-1.429
			c0-4.846-7.165-8.969-9.926-10.149c-0.571-0.244-0.934-0.816-0.909-1.437c0.023-0.621,0.427-1.163,1.016-1.363
			c2.106-0.716,4.096-1.078,5.913-1.078c6.922,0,10.092,5.303,10.801,8.108c0.108,0.425,0.024,0.878-0.231,1.235l-3.941,5.552
			C33.194,18.636,32.734,18.864,32.257,18.864z M25.667,6.398c2.576,1.597,5.814,4.124,7.291,7.389l1.578-2.223
			c-0.592-1.508-2.569-5.227-7.684-5.227C26.468,6.337,26.073,6.357,25.667,6.398z"/>
		<path id="path-3_3_" d="M32.257,18.864c-0.059,0-0.118-0.004-0.178-0.011l-4.842-0.576c-0.535-0.064-0.995-0.41-1.205-0.907
			c-0.405-0.963-2.518-1.732-3.818-1.948c-0.588-0.098-1.064-0.534-1.209-1.112c-0.147-0.577,0.061-1.186,0.531-1.552
			c2.918-2.271,5.77-2.61,7.209-2.61c0.8,0,1.306,0.098,1.399,0.117c0.28,0.059,0.537,0.197,0.74,0.396
			c2.171,2.125,2.794,6.047,2.857,6.487c0.068,0.462-0.085,0.928-0.41,1.262C33.048,18.702,32.66,18.864,32.257,18.864z
			 M28.334,15.386l1.964,0.234c-0.276-0.859-0.672-1.789-1.198-2.462c-0.556-0.032-1.623-0.013-2.951,0.445
			C26.973,14.035,27.773,14.615,28.334,15.386z"/>
		<path id="path-4_3_" d="M35.221,11.069c-0.555,0-1.068-0.307-1.327-0.801c-0.542-1.027-1.38-2.154-1.776-2.4
			c-0.446-0.047-0.858-0.292-1.106-0.67c-0.277-0.425-0.331-0.959-0.128-1.423C30.987,5.539,33.515,0,42.049,0
			c1.173,0,2.422,0.108,3.711,0.321c0.654,0.108,1.16,0.633,1.244,1.292c0.083,0.658-0.276,1.293-0.885,1.561
			c-3.115,1.372-8.455,4.481-9.517,6.982c-0.227,0.533-0.741,0.887-1.319,0.912C35.262,11.069,35.241,11.069,35.221,11.069z
			 M34.399,5.889c0.307,0.284,0.594,0.607,0.858,0.945c1.22-1.38,2.9-2.634,4.523-3.661C36.894,3.635,35.249,4.933,34.399,5.889z"/>
		<path id="path-5_3_" d="M31.5,63c-11.283,0-18.026-13.367-18.026-26.29c0-12.691,6.402-19.68,18.026-19.68
			c11.288,0,18.027,7.357,18.027,19.68C49.527,49.353,42.635,63,31.5,63z M31.5,20.03c-9.83,0-15.026,5.768-15.026,16.68
			C16.474,47.911,22.219,60,31.5,60c8.989,0,15.027-12.043,15.027-23.29C46.527,26.11,41.049,20.03,31.5,20.03z"/>
		<path id="path-6_2_" d="M42.203,40.177c-0.407,0-0.813-0.166-1.109-0.491l-2.091-2.299l-2.351,2.351
			c-0.586,0.586-1.535,0.586-2.121,0c-0.586-0.586-0.586-1.536,0-2.121l3.463-3.463c0.289-0.29,0.684-0.464,1.096-0.439
			c0.41,0.01,0.799,0.187,1.074,0.49l3.149,3.463c0.557,0.613,0.512,1.561-0.101,2.119C42.925,40.048,42.564,40.177,42.203,40.177z"
			/>
		<path id="path-7_2_" d="M27.094,40.177c-0.407,0-0.814-0.166-1.11-0.491l-2.09-2.299l-2.351,2.351
			c-0.586,0.586-1.535,0.586-2.121,0c-0.586-0.586-0.586-1.536,0-2.121l3.463-3.463c0.289-0.29,0.688-0.464,1.096-0.439
			c0.41,0.01,0.798,0.187,1.074,0.49l3.148,3.463c0.558,0.613,0.513,1.561-0.1,2.119C27.815,40.048,27.454,40.177,27.094,40.177z"/>
		<path id="path-8_2_" d="M34.647,44.899c-0.407,0-0.813-0.165-1.109-0.491l-2.091-2.298l-2.349,2.35
			c-0.586,0.586-1.535,0.585-2.121,0c-0.586-0.586-0.586-1.535,0-2.121l3.462-3.463c0.29-0.29,0.668-0.464,1.095-0.439
			c0.41,0.01,0.799,0.187,1.074,0.49l3.149,3.463c0.558,0.613,0.513,1.562-0.101,2.119C35.369,44.77,35.008,44.899,34.647,44.899z"
			/>
		<path id="path-9_2_" d="M42.203,29.789c-0.407,0-0.813-0.166-1.109-0.491l-2.091-2.299l-2.351,2.35
			c-0.586,0.586-1.535,0.586-2.121,0c-0.586-0.585-0.586-1.535,0-2.121l3.463-3.463c0.289-0.29,0.684-0.458,1.096-0.439
			c0.41,0.01,0.799,0.187,1.074,0.491l3.149,3.463c0.557,0.613,0.512,1.562-0.101,2.119C42.925,29.66,42.564,29.789,42.203,29.789z"
			/>
		<path id="path-10_2_" d="M27.094,29.789c-0.407,0-0.814-0.166-1.11-0.491l-2.09-2.299l-2.351,2.35
			c-0.586,0.586-1.535,0.586-2.121,0c-0.586-0.585-0.586-1.535,0-2.121l3.463-3.463c0.289-0.29,0.688-0.458,1.096-0.439
			c0.41,0.01,0.798,0.187,1.074,0.491l3.148,3.463c0.558,0.613,0.513,1.562-0.1,2.119C27.815,29.66,27.454,29.789,27.094,29.789z"/>
		<path id="path-11_2_" d="M34.647,34.511c-0.407,0-0.813-0.166-1.109-0.491l-2.091-2.299l-2.349,2.351
			c-0.586,0.585-1.535,0.585-2.121,0c-0.586-0.586-0.586-1.536,0-2.122l3.462-3.462c0.29-0.29,0.668-0.458,1.095-0.439
			c0.41,0.009,0.799,0.187,1.074,0.49l3.149,3.463c0.558,0.613,0.513,1.562-0.101,2.119C35.369,34.382,35.008,34.511,34.647,34.511z
			"/>
		<path id="path-12_2_" d="M42.203,50.566c-0.407,0-0.813-0.166-1.109-0.491l-2.091-2.299l-2.351,2.35
			c-0.586,0.586-1.535,0.586-2.121,0c-0.586-0.585-0.586-1.535,0-2.121l3.463-3.463c0.289-0.29,0.684-0.452,1.096-0.439
			c0.41,0.01,0.799,0.187,1.074,0.491l3.149,3.462c0.557,0.614,0.512,1.562-0.101,2.12C42.925,50.437,42.564,50.566,42.203,50.566z"
			/>
		<path id="path-13_2_" d="M27.094,50.566c-0.407,0-0.814-0.166-1.11-0.491l-2.09-2.299l-2.351,2.35
			c-0.586,0.586-1.535,0.586-2.121,0c-0.586-0.585-0.586-1.535,0-2.121l3.463-3.463c0.289-0.29,0.688-0.452,1.096-0.439
			c0.41,0.01,0.798,0.187,1.074,0.491l3.148,3.462c0.558,0.614,0.513,1.562-0.1,2.12C27.815,50.437,27.454,50.566,27.094,50.566z"/>
		<path id="path-14_2_" d="M34.647,55.287c-0.407,0-0.813-0.165-1.109-0.49l-2.091-2.299l-2.349,2.35
			c-0.586,0.586-1.535,0.586-2.121,0c-0.586-0.585-0.586-1.535,0-2.121l3.462-3.463c0.29-0.29,0.668-0.452,1.095-0.438
			c0.41,0.009,0.799,0.186,1.074,0.49l3.149,3.462c0.558,0.613,0.513,1.562-0.101,2.119C35.369,55.159,35.008,55.287,34.647,55.287z
			"/>
	</g>
</g>
<g>
</g>
<g>
</g>
<g>
</g>
<g>
</g>
<g>
</g>
<g>
</g>
<g>
</g>
<g>
</g>
<g>
</g>
<g>
</g>
<g>
</g>
<g>
</g>
<g>
</g>
<g>
</g>
<g>
</g>
</svg>
