<?xml version="1.0" encoding="iso-8859-1"?>
<!-- Generator: Adobe Illustrator 19.1.0, SVG Export Plug-In . SVG Version: 6.00 Build 0)  -->
<svg version="1.1" id="Capa_1" xmlns="http://www.w3.org/2000/svg" xmlns:xlink="http://www.w3.org/1999/xlink" x="0px" y="0px"
	 viewBox="0 0 62.938 62.938" style="enable-background:new 0 0 62.938 62.938;" xml:space="preserve">
<g>
	<g id="group-49svg">
		<path id="path-1_42_" d="M52.21,56.619c-0.24,0-0.483-0.057-0.709-0.178L0.79,29.206c-0.5-0.268-0.806-0.796-0.789-1.363
			c0.016-0.568,0.35-1.077,0.863-1.317l53.191-24.87c0.67-0.313,1.464-0.093,1.877,0.517c0.174,0.257,17.217,26.052-2.498,53.815
			C53.144,56.396,52.683,56.619,52.21,56.619z M4.843,27.977l46.898,25.187c15.406-22.779,5.255-43.307,2.378-48.226L4.843,27.977z"
			/>
		<path id="path-2_42_" d="M50.935,61.424c-0.234,0-0.47-0.054-0.692-0.169L14.708,42.769c-0.734-0.382-1.021-1.288-0.639-2.023
			c0.383-0.735,1.288-1.02,2.024-0.638l35.535,18.485c0.734,0.383,1.02,1.288,0.639,2.023C51.999,61.13,51.476,61.424,50.935,61.424
			z"/>
		<path id="path-3_42_" d="M49.355,19.728c-0.528,0-1.04-0.28-1.313-0.775c-0.4-0.723-0.14-1.634,0.583-2.036
			c0.159-0.09,3.736-2.145,2.608-4.957c-0.307-0.77,0.066-1.643,0.834-1.951c0.769-0.308,1.642,0.064,1.952,0.834
			c1.692,4.221-1.836,7.535-3.939,8.697C49.851,19.667,49.602,19.728,49.355,19.728z"/>
		<path id="path-4_38_" d="M53.584,38.266c-0.103,0-0.208-0.011-0.312-0.034l-5.906-1.25c-0.81-0.171-1.328-0.967-1.157-1.777
			c0.172-0.811,0.976-1.329,1.778-1.157l5.906,1.25c0.81,0.171,1.328,0.967,1.157,1.778C54.9,37.781,54.277,38.266,53.584,38.266z"
			/>
		<path id="path-5_30_" d="M40.598,43.726c-0.454-1.134,0.107-2.417,1.254-2.867c1.147-0.449,2.445,0.106,2.9,1.24
			c0.454,1.134-0.107,2.417-1.254,2.867C42.351,45.415,41.053,44.86,40.598,43.726z"/>
		<path id="path-6_22_" d="M52.273,24.896c-0.454-1.134,0.108-2.417,1.254-2.867c1.148-0.449,2.446,0.106,2.9,1.24
			c0.455,1.134-0.107,2.418-1.253,2.867C54.026,26.585,52.729,26.03,52.273,24.896z"/>
		<path id="path-7_14_" d="M32.46,22.896c-0.528,0-1.04-0.28-1.314-0.775c-0.4-0.724-0.139-1.634,0.583-2.036l0,0
			c0.153-0.086,3.737-2.142,2.609-4.957c-0.308-0.77,0.065-1.643,0.835-1.951c0.764-0.308,1.641,0.065,1.95,0.834
			c1.692,4.221-1.837,7.535-3.938,8.697C32.955,22.835,32.706,22.896,32.46,22.896z"/>
		<path id="path-8_12_" d="M36.688,41.434c-0.104,0-0.208-0.011-0.313-0.033l-5.904-1.251c-0.811-0.171-1.328-0.967-1.158-1.777
			c0.171-0.812,0.972-1.332,1.779-1.157l5.904,1.25c0.811,0.171,1.328,0.967,1.157,1.778C38.004,40.95,37.381,41.434,36.688,41.434z
			"/>
		<path id="path-9_11_" d="M35.378,28.064c-0.455-1.134,0.106-2.417,1.254-2.867c1.146-0.449,2.444,0.106,2.899,1.24
			c0.454,1.134-0.106,2.418-1.254,2.867C37.131,29.753,35.832,29.198,35.378,28.064z"/>
		<path id="path-10_10_" d="M1.534,49.101c-0.828,0-1.5-0.672-1.5-1.5v-20c0-0.829,0.672-1.5,1.5-1.5s1.5,0.671,1.5,1.5v20
			C3.034,48.429,2.362,49.101,1.534,49.101z"/>
		<path id="path-11_8_" d="M8.534,53.101c-0.828,0-1.5-0.672-1.5-1.5v-20c0-0.829,0.672-1.5,1.5-1.5s1.5,0.671,1.5,1.5v20
			C10.034,52.429,9.362,53.101,8.534,53.101z"/>
		<path id="path-12_6_" d="M19.537,28.064c-0.454-1.134,0.108-2.417,1.254-2.867c1.148-0.449,2.445,0.106,2.9,1.24
			c0.455,1.134-0.107,2.418-1.253,2.867C21.29,29.753,19.992,29.198,19.537,28.064z"/>
	</g>
</g>
<g>
</g>
<g>
</g>
<g>
</g>
<g>
</g>
<g>
</g>
<g>
</g>
<g>
</g>
<g>
</g>
<g>
</g>
<g>
</g>
<g>
</g>
<g>
</g>
<g>
</g>
<g>
</g>
<g>
</g>
</svg>
