<?xml version="1.0" encoding="iso-8859-1"?>
<!-- Generator: Adobe Illustrator 19.1.0, SVG Export Plug-In . SVG Version: 6.00 Build 0)  -->
<svg version="1.1" id="Capa_1" xmlns="http://www.w3.org/2000/svg" xmlns:xlink="http://www.w3.org/1999/xlink" x="0px" y="0px"
	 viewBox="0 0 63 63" style="enable-background:new 0 0 63 63;" xml:space="preserve">
<g>
	<g id="group-16svg">
		<path id="path-1_6_" d="M31.5,52.968C14.13,52.968,0,43.016,0,30.784c0-11.557,5.956-17.868,19.312-20.46
			c1.002-0.194,2.026-0.293,3.048-0.293c5.707,0,10.476,2.976,14.308,5.368c1.497,0.934,2.79,1.741,3.885,2.212
			c2.365,1.015,5.171,1.82,7.886,2.597C55.597,22.258,63,24.378,63,30.784C63,43.016,48.869,52.968,31.5,52.968z M22.36,13.031
			c-0.83,0-1.662,0.08-2.476,0.238C8.049,15.566,3,20.806,3,30.784c0,10.578,12.785,19.184,28.5,19.184
			c15.714,0,28.5-8.606,28.5-19.184c0-4.144-6.017-5.868-12.387-7.692c-2.805-0.803-5.705-1.634-8.243-2.725
			c-1.307-0.561-2.756-1.466-4.291-2.423C31.572,15.755,27.208,13.031,22.36,13.031z"/>
		<path id="path-2_6_" d="M38.267,27.592c-0.225,0-0.454-0.052-0.67-0.159l-5.657-2.829c-0.741-0.37-1.041-1.271-0.671-2.012
			c0.371-0.741,1.273-1.039,2.013-0.671l5.657,2.828c0.741,0.371,1.041,1.272,0.671,2.013
			C39.347,27.288,38.817,27.592,38.267,27.592z"/>
		<path id="path-3_6_" d="M33.806,43.909c-0.312,0-0.628-0.097-0.898-0.299c-0.663-0.497-0.798-1.437-0.302-2.1l4.025-5.376
			c0.497-0.664,1.435-0.8,2.101-0.302c0.663,0.497,0.798,1.437,0.302,2.1l-4.026,5.376C34.713,43.701,34.262,43.909,33.806,43.909z"
			/>
		<path id="path-4_6_" d="M15.78,31.176c-0.587,0-1.145-0.347-1.385-0.922l-2.575-6.159c-0.319-0.764,0.041-1.643,0.805-1.962
			c0.767-0.321,1.643,0.041,1.962,0.805l2.576,6.159c0.319,0.764-0.041,1.643-0.805,1.962C16.169,31.138,15.972,31.176,15.78,31.176
			z"/>
	</g>
</g>
<g>
</g>
<g>
</g>
<g>
</g>
<g>
</g>
<g>
</g>
<g>
</g>
<g>
</g>
<g>
</g>
<g>
</g>
<g>
</g>
<g>
</g>
<g>
</g>
<g>
</g>
<g>
</g>
<g>
</g>
</svg>
