<?xml version="1.0" encoding="iso-8859-1"?>
<!-- Generator: Adobe Illustrator 19.1.0, SVG Export Plug-In . SVG Version: 6.00 Build 0)  -->
<svg version="1.1" id="Capa_1" xmlns="http://www.w3.org/2000/svg" xmlns:xlink="http://www.w3.org/1999/xlink" x="0px" y="0px"
	 viewBox="0 0 63.001 63.001" style="enable-background:new 0 0 63.001 63.001;" xml:space="preserve">
<g>
	<g id="group-57svg">
		<path id="path-1_51_" d="M22.556,56.26c-4.35,0-8.481-1.534-11.05-4.103c-5.164-5.164-6.049-16.286,0.551-22.885l15.704-15.705
			c3.002-3.001,7.206-4.654,11.836-4.654c4.349,0,8.48,1.534,11.05,4.104c5.164,5.164,6.048,16.285-0.551,22.885L34.392,51.606
			C31.39,54.608,27.186,56.26,22.556,56.26z M39.597,11.913c-3.829,0-7.279,1.341-9.715,3.776L14.178,31.393
			c-5.316,5.316-4.648,14.546-0.551,18.643c2.02,2.019,5.358,3.224,8.929,3.224c3.829,0,7.279-1.34,9.715-3.775l15.704-15.704
			c5.315-5.316,4.647-14.546,0.551-18.643C46.506,13.118,43.168,11.913,39.597,11.913z"/>
		<path id="path-2_51_" d="M60.088,14.398L60.088,14.398c-0.094,0-0.188-0.004-0.284-0.014l-8.815-0.036
			c-1.204-0.178-2.138-1.143-2.324-2.401l-0.016-0.206l-0.076-8.545c-0.081-0.776,0.16-1.533,0.688-2.145
			c1.067-1.236,3.113-1.396,4.233-0.276L62.2,9.481c0.803,0.803,1.021,1.977,0.57,3.066C62.304,13.672,61.251,14.398,60.088,14.398z
			 M51.646,11.365l8.214,0.019l-8.288-8.288L51.646,11.365z"/>
		<path id="path-3_51_" d="M11.539,62.979L11.539,62.979c-0.741,0-1.449-0.3-1.993-0.844L0.84,53.429
			c-0.813-0.812-1.061-2.007-0.632-3.042c0.463-1.116,1.573-1.799,2.85-1.657l8.591,0.235c1.245,0.183,2.202,1.124,2.381,2.342
			l0.017,0.186l0.189,8.436c0.088,0.785-0.136,1.531-0.636,2.11C13.084,62.636,12.333,62.979,11.539,62.979z M3.393,51.739
			l7.835,7.835l-0.172-7.635L3.393,51.739z"/>
		<path id="path-4_46_" d="M29.759,47.195c-0.384,0-0.768-0.146-1.061-0.438c-0.586-0.585-0.586-1.536-0.001-2.122l10.488-10.487
			c8.724-8.725,3.822-14.139,3.771-14.192c-0.568-0.603-0.54-1.553,0.064-2.12c0.603-0.568,1.551-0.541,2.12,0.063
			c0.07,0.075,6.926,7.611-3.834,18.37L30.82,46.756C30.527,47.049,30.143,47.195,29.759,47.195z"/>
		<path id="path-5_37_" d="M52.876,45.264c-0.64,0-1.232-0.411-1.433-1.054c-0.586-1.887,0.48-3.597,1.956-5.964
			c1.038-1.664,2.33-3.736,3.656-6.652c3.365-7.4-6.797-17.561-6.9-17.663c-0.589-0.582-0.595-1.532-0.013-2.121
			c0.583-0.59,1.532-0.595,2.121-0.013c0.481,0.475,11.745,11.754,7.522,21.039c-1.407,3.095-2.813,5.351-3.841,6.998
			c-1.013,1.626-1.814,2.91-1.635,3.484c0.246,0.791-0.196,1.633-0.987,1.879C53.174,45.243,53.024,45.264,52.876,45.264z"/>
	</g>
</g>
<g>
</g>
<g>
</g>
<g>
</g>
<g>
</g>
<g>
</g>
<g>
</g>
<g>
</g>
<g>
</g>
<g>
</g>
<g>
</g>
<g>
</g>
<g>
</g>
<g>
</g>
<g>
</g>
<g>
</g>
</svg>
