<?xml version="1.0" encoding="iso-8859-1"?>
<!-- Generator: Adobe Illustrator 19.1.0, SVG Export Plug-In . SVG Version: 6.00 Build 0)  -->
<svg version="1.1" id="Capa_1" xmlns="http://www.w3.org/2000/svg" xmlns:xlink="http://www.w3.org/1999/xlink" x="0px" y="0px"
	 viewBox="0 0 63.003 63.003" style="enable-background:new 0 0 63.003 63.003;" xml:space="preserve">
<g>
	<g id="group-66svg">
		<path id="path-1_61_" d="M50.242,55.957c-0.041,0-0.082-0.001-0.123-0.005c-19.087-1.566-31.07-7.423-35.613-17.41
			C7.115,22.295,22.224,1.488,22.871,0.611c0.41-0.555,1.145-0.76,1.782-0.497c0.637,0.264,1.012,0.928,0.909,1.611
			c-2.063,13.634-0.75,23.29,3.904,28.701c2.882,3.351,7.063,5.05,12.427,5.05c5.652,0,10.581-1.936,10.63-1.955
			c0.564-0.226,1.211-0.086,1.633,0.348c0.15,0.156,3.68,3.879,3.68,10.817c0,7.212-6.589,10.93-6.87,11.085
			C50.744,55.894,50.495,55.957,50.242,55.957z M21.826,7.964c-3.888,7.043-9.097,19.438-4.585,29.343
			c4.023,8.837,15.001,14.089,32.632,15.614c1.196-0.793,4.963-3.654,4.963-8.235c0-4.108-1.439-6.793-2.266-7.997
			c-1.877,0.623-6.004,1.787-10.677,1.787c-6.277,0-11.224-2.051-14.701-6.094C22.786,27.259,20.989,19.062,21.826,7.964z"/>
		<path id="path-2_61_" d="M50.241,55.957c-0.333,0-0.667-0.109-0.946-0.336c-3.334-2.711-4.984-5.826-4.905-9.258
			c0.161-6.936,7.486-12.425,7.797-12.656c0.666-0.491,1.603-0.35,2.097,0.315c0.492,0.665,0.352,1.604-0.313,2.097
			c-0.064,0.048-6.462,4.86-6.582,10.323c-0.053,2.453,1.225,4.758,3.799,6.852c0.643,0.523,0.74,1.467,0.218,2.11
			C51.109,55.769,50.676,55.957,50.241,55.957z"/>
		<path id="path-3_61_" d="M14.275,49.484c-1.337,0-2.36-0.399-3.105-1.193c-2.986-3.184,1.243-10.917,2.611-13.212
			c0.424-0.711,1.344-0.941,2.055-0.519c0.711,0.423,0.945,1.343,0.522,2.056c-2.204,3.703-3.954,8.606-2.999,9.623
			c0.049,0.051,1.251,1.217,7.76-2.116c0.736-0.376,1.64-0.086,2.018,0.652c0.378,0.738,0.086,1.641-0.651,2.019
			C18.973,48.592,16.273,49.484,14.275,49.484z"/>
		<path id="path-4_54_" d="M13.481,26.269c-0.189,0-0.383-0.036-0.569-0.113c-3.491-1.436-8.089-3.724-7.726-7.011
			c0.443-4.005,8.282-5.658,10.674-6.068c0.821-0.137,1.592,0.409,1.731,1.225c0.141,0.816-0.407,1.592-1.223,1.732
			c-4.098,0.707-8.083,2.379-8.199,3.44c-0.002,0.015-0.088,1.451,5.883,3.908c0.767,0.314,1.132,1.191,0.818,1.957
			C14.63,25.919,14.072,26.269,13.481,26.269z"/>
		<path id="path-5_44_" d="M33.091,63.003c-0.213,0-0.426-0.019-0.64-0.059c-4.295-0.778-5.506-9.507-5.775-12.165
			c-0.084-0.823,0.517-1.559,1.341-1.643c0.831-0.078,1.561,0.518,1.644,1.342c0.436,4.287,1.952,9.266,3.325,9.515
			c0.078,0.012,1.73,0.23,4.972-6.323c0.367-0.743,1.266-1.048,2.009-0.68s1.047,1.267,0.68,2.01
			C37.959,60.432,35.541,63.003,33.091,63.003z"/>
		<path id="path-6_32_" d="M33.928,35.476c-0.224,0-0.453-0.052-0.668-0.158c-0.741-0.37-1.043-1.27-0.674-2.011
			c1.92-3.859,3.299-8.878,2.27-9.822c-0.05-0.047-1.342-1.117-7.58,2.691c-0.707,0.431-1.63,0.209-2.062-0.499
			c-0.431-0.707-0.208-1.63,0.499-2.062c5.623-3.432,9.174-4.175,11.172-2.34c3.216,2.952-0.422,10.98-1.613,13.37
			C35.009,35.171,34.479,35.476,33.928,35.476z"/>
		<path id="path-7_21_" d="M31.208,42.689c-6.021,0-8.476-4.007-8.581-4.182c-0.423-0.712-0.19-1.633,0.522-2.057
			c0.708-0.419,1.622-0.193,2.05,0.511c0.089,0.142,1.888,2.894,6.345,2.723c0.836-0.036,1.52,0.625,1.546,1.452
			c0.027,0.828-0.624,1.52-1.452,1.547C31.493,42.687,31.349,42.689,31.208,42.689z"/>
	</g>
</g>
<g>
</g>
<g>
</g>
<g>
</g>
<g>
</g>
<g>
</g>
<g>
</g>
<g>
</g>
<g>
</g>
<g>
</g>
<g>
</g>
<g>
</g>
<g>
</g>
<g>
</g>
<g>
</g>
<g>
</g>
</svg>
