<?xml version="1.0" encoding="iso-8859-1"?>
<!-- Generator: Adobe Illustrator 19.1.0, SVG Export Plug-In . SVG Version: 6.00 Build 0)  -->
<svg version="1.1" id="Capa_1" xmlns="http://www.w3.org/2000/svg" xmlns:xlink="http://www.w3.org/1999/xlink" x="0px" y="0px"
	 viewBox="0 0 63.158 63.158" style="enable-background:new 0 0 63.158 63.158;" xml:space="preserve">
<g>
	<g id="group-71svg">
		<path id="path-1_67_" d="M47.085,56.802h-32v-6.081c-5-0.297-8.137-1.94-10.658-4.894c-5.862-6.862-4.241-18.276-4.165-18.76
			l0.094-1.265h60.407l0.25,1.192c0.1,0.472,2.574,11.625-3.049,18.551c-2.557,3.148-6.879,4.887-10.879,5.181V56.802z
			 M18.085,53.802h26v-6h1.073c4.588,0,8.038-1.398,10.257-4.125c3.761-4.623,3.234-12.009,2.852-14.875H2.981
			c-0.247,2.973-0.415,10.501,3.519,15.1c2.206,2.578,5.456,3.9,9.658,3.9h1.927V53.802z"/>
		<path id="path-2_67_" d="M61.658,15.802h-32c-0.828,0-1.5-0.671-1.5-1.5c0-0.828,0.672-1.5,1.5-1.5h32c0.828,0,1.5,0.672,1.5,1.5
			C63.158,15.131,62.486,15.802,61.658,15.802z"/>
		<path id="path-3_67_" d="M19.917,22.917c-6.598,0-14.969-3.899-14.969-8.281c0-4.381,8.371-8.28,14.969-8.28
			c6.94,0,10.571,4.165,10.571,8.28C30.488,18.752,26.857,22.917,19.917,22.917z M19.917,9.356c-6.183,0-11.969,3.632-11.969,5.28
			c0,1.651,5.786,5.281,11.969,5.281c5.554,0,7.571-3.158,7.571-5.281C27.488,12.514,25.471,9.356,19.917,9.356z"/>
		<path id="path-4_60_" d="M43.477,42.5c-0.828,0-1.5-0.672-1.5-1.5c0-0.829,0.672-1.5,1.5-1.5c2.863,0,4.952-0.703,6.212-2.09
			c0.771-0.848,1.114-1.832,1.266-2.608H35.658c-0.828,0-1.5-0.671-1.5-1.5c0-0.828,0.672-1.5,1.5-1.5H53.92l0.13,1.357
			c0.013,0.145,0.31,3.572-2.141,6.268C50.057,41.467,47.22,42.5,43.477,42.5z"/>
	</g>
</g>
<g>
</g>
<g>
</g>
<g>
</g>
<g>
</g>
<g>
</g>
<g>
</g>
<g>
</g>
<g>
</g>
<g>
</g>
<g>
</g>
<g>
</g>
<g>
</g>
<g>
</g>
<g>
</g>
<g>
</g>
</svg>
