<?xml version="1.0" encoding="iso-8859-1"?>
<!-- Generator: Adobe Illustrator 19.1.0, SVG Export Plug-In . SVG Version: 6.00 Build 0)  -->
<svg version="1.1" id="Capa_1" xmlns="http://www.w3.org/2000/svg" xmlns:xlink="http://www.w3.org/1999/xlink" x="0px" y="0px"
	 viewBox="0 0 63 63" style="enable-background:new 0 0 63 63;" xml:space="preserve">
<g>
	<g id="group-88svg">
		<path id="path-1_85_" d="M15.076,27.09c-0.381,0-0.763-0.145-1.055-0.434l-9.787-9.89C3.95,16.483,4.002,16.1,4.002,15.699V1.5
			c0-0.828,0.246-1.5,1.074-1.5h20c0.828,0,1.926,0.672,1.926,1.5v14.199c0,0.401-0.373,0.784-0.658,1.067l-10.107,9.89
			C15.945,26.945,15.457,27.09,15.076,27.09z M7.002,15.072l8.5,8.407l8.5-8.407V3h-17V15.072z"/>
		<path id="path-2_85_" d="M54.761,59H42.557c-1.841,0-3.555-1.582-3.555-3.621V38.46c0-0.616,0.376-1.169,0.949-1.396l2.051-0.81
			V32h-1.517c-0.828,0-1.5-0.672-1.5-1.5c0-4.185,3.312-6.784,8.644-6.784c0.376,0,0.663,0.014,0.822,0.025
			c0.158-0.011,0.445-0.025,0.821-0.025c5.215,0,8.498,2.487,8.64,6.51c0.016,0.089,0.024,0.18,0.024,0.274
			c0,0.828-0.671,1.5-1.5,1.5c-0.004,0-0.012,0-0.02,0h-0.414v4.254l2.052,0.81c0.572,0.227,0.948,0.78,0.948,1.396v16.919
			C59.002,57.273,56.757,59,54.761,59z M42.002,39.48v15.899c0,0.203,0.157,0.621,0.555,0.621h12.204
			c0.375,0,1.241-0.41,1.241-0.621V39.48l-2.051-0.812c-0.573-0.227-0.949-0.779-0.949-1.395V30.5c0-0.828,0.246-1.5,1.074-1.5
			h0.545c-0.83-1.849-3.253-2.284-5.349-2.284c-0.397,0-0.655,0.02-0.685,0.023c-0.09,0.008-0.185,0.008-0.276,0
			c-0.026-0.003-0.284-0.023-0.682-0.023c-2.095,0-4.519,0.435-5.348,2.284h0.795c0.828,0,1.926,0.672,1.926,1.5v6.773
			c0,0.616-0.376,1.168-0.948,1.395L42.002,39.48z"/>
		<path id="path-3_84_" d="M15.076,27.09c-0.381,0-0.763-0.145-1.055-0.434l-9.787-9.89C3.95,16.483,4.002,16.1,4.002,15.699V1.5
			c0-0.828,0.246-1.5,1.074-1.5h20c0.828,0,1.926,0.672,1.926,1.5v14.199c0,0.401-0.373,0.784-0.658,1.067l-10.107,9.89
			C15.945,26.945,15.457,27.09,15.076,27.09z M7.002,15.072l8.5,8.407l8.5-8.407V3h-17V15.072z"/>
		<path id="path-4_74_" d="M15.502,34.5c-0.828,0-1.5-0.672-1.5-1.5v-8c0-0.828,0.672-1.5,1.5-1.5c0.829,0,1.5,0.672,1.5,1.5v8
			C17.002,33.828,16.331,34.5,15.502,34.5z"/>
		<path id="path-5_56_" d="M20.002,61.5c0,0.828-0.671,1.5-1.5,1.5h-6c-0.828,0-1.5-0.672-1.5-1.5v-28c0-0.828,0.672-1.5,1.5-1.5h6
			c0.829,0,1.5,0.672,1.5,1.5V61.5z M14.002,60h3V35h-3V60z"/>
		<path id="path-6_41_" d="M19.502,22.5c-0.828,0-1.5-0.672-1.5-1.5V2c0-0.828,0.672-1.5,1.5-1.5c0.829,0,1.5,0.672,1.5,1.5v19
			C21.002,21.828,20.331,22.5,19.502,22.5z"/>
		<path id="path-7_25_" d="M12.502,22.5c-0.828,0-1.5-0.672-1.5-1.5V3c0-0.828,0.672-1.5,1.5-1.5c0.829,0,1.5,0.672,1.5,1.5v18
			C14.002,21.828,13.331,22.5,12.502,22.5z"/>
	</g>
</g>
<g>
</g>
<g>
</g>
<g>
</g>
<g>
</g>
<g>
</g>
<g>
</g>
<g>
</g>
<g>
</g>
<g>
</g>
<g>
</g>
<g>
</g>
<g>
</g>
<g>
</g>
<g>
</g>
<g>
</g>
</svg>
