<?xml version="1.0" encoding="iso-8859-1"?>
<!-- Generator: Adobe Illustrator 19.1.0, SVG Export Plug-In . SVG Version: 6.00 Build 0)  -->
<svg version="1.1" id="Capa_1" xmlns="http://www.w3.org/2000/svg" xmlns:xlink="http://www.w3.org/1999/xlink" x="0px" y="0px"
	 viewBox="0 0 63 63" style="enable-background:new 0 0 63 63;" xml:space="preserve">
<g>
	<g id="group-8svg">
		<path id="path-1_76_" d="M31.5,43.169c-14.705,0-26.669-11.964-26.669-26.669c0-0.829,0.672-1.5,1.5-1.5h50.338
			c0.828,0,1.5,0.671,1.5,1.5C58.169,31.205,46.205,43.169,31.5,43.169z M7.878,18C8.654,30.356,18.952,40.169,31.5,40.169
			S54.345,30.356,55.122,18H7.878z"/>
		<path id="path-2_76_" d="M31.5,48C13.837,48,0,34.164,0,16.5C0,15.671,0.672,15,1.5,15h60c0.828,0,1.5,0.671,1.5,1.5
			C63,34.164,49.163,48,31.5,48z M3.037,18C3.792,33.258,16.022,45,31.5,45c15.477,0,27.708-11.742,28.463-27H3.037z"/>
		<path id="path-3_76_" d="M41.338,26.983l0.192-4.786l2.692,3.962c0.491,0.722,0.303,1.704-0.419,2.194
			c-0.721,0.491-1.704,0.303-2.194-0.419C41.412,27.644,41.325,27.31,41.338,26.983z"/>
		<path id="path-4_66_" d="M34.203,26.983l0.192-4.786l2.693,3.962c0.49,0.722,0.302,1.704-0.419,2.194
			c-0.722,0.491-1.704,0.303-2.194-0.419C34.277,27.644,34.189,27.31,34.203,26.983z"/>
		<path id="path-5_50_" d="M26.176,26.983l0.193-4.786l2.692,3.962c0.49,0.722,0.303,1.704-0.419,2.194
			c-0.721,0.491-1.703,0.303-2.194-0.419C26.251,27.644,26.163,27.31,26.176,26.983z"/>
		<path id="path-6_36_" d="M37.77,35.01l0.193-4.786l2.692,3.961c0.49,0.722,0.303,1.705-0.419,2.195s-1.704,0.303-2.194-0.419
			C37.844,35.67,37.757,35.336,37.77,35.01z"/>
		<path id="path-7_22_" d="M30.635,35.01l0.194-4.786l2.691,3.961c0.49,0.722,0.303,1.705-0.419,2.195
			c-0.721,0.49-1.704,0.303-2.194-0.419C30.71,35.67,30.623,35.336,30.635,35.01z"/>
		<path id="path-8_18_" d="M22.609,35.01l0.192-4.786l2.693,3.961c0.49,0.722,0.303,1.705-0.419,2.195s-1.703,0.303-2.194-0.419
			C22.683,35.67,22.596,35.336,22.609,35.01z"/>
		<path id="path-9_15_" d="M19.042,26.983l0.193-4.786l2.691,3.962c0.491,0.722,0.303,1.704-0.418,2.194
			c-0.722,0.491-1.705,0.303-2.194-0.419C19.116,27.644,19.029,27.31,19.042,26.983z"/>
	</g>
</g>
<g>
</g>
<g>
</g>
<g>
</g>
<g>
</g>
<g>
</g>
<g>
</g>
<g>
</g>
<g>
</g>
<g>
</g>
<g>
</g>
<g>
</g>
<g>
</g>
<g>
</g>
<g>
</g>
<g>
</g>
</svg>
