<?xml version="1.0" encoding="iso-8859-1"?>
<!-- Generator: Adobe Illustrator 19.1.0, SVG Export Plug-In . SVG Version: 6.00 Build 0)  -->
<svg version="1.1" id="Capa_1" xmlns="http://www.w3.org/2000/svg" xmlns:xlink="http://www.w3.org/1999/xlink" x="0px" y="0px"
	 viewBox="0 0 63 63" style="enable-background:new 0 0 63 63;" xml:space="preserve">
<g>
	<g id="group-81svg">
		<path id="path-1_78_" d="M47.505,32.016c-0.45,0-0.895-0.202-1.19-0.585c-0.506-0.657-0.383-1.599,0.274-2.104l13.996-10.768
			c0.656-0.504,1.598-0.383,2.103,0.274c0.506,0.656,0.383,1.599-0.273,2.103L48.419,31.705
			C48.146,31.914,47.824,32.016,47.505,32.016z"/>
		<path id="path-2_78_" d="M52.093,54.5H22.958c-1.27,0-2.334-0.477-2.921-1.306c-0.492-0.696-0.595-1.555-0.289-2.422
			c2.717-8.098,6.783-20.262,7.294-21.901l0.192-12.394c-2.014-0.18-3.213-1.404-3.213-3.042v-1c0-1.913,1.603-3.935,3.521-3.935
			h18.976c0.91,0,1.776,0.369,2.438,1.039c0.686,0.695,1.074,1.647,1.062,2.611l0.201,1.107c-0.021,1.822-1.198,3.202-3.198,3.242
			v12.558c0,1.719,4.994,13.752,8.072,21.787c0.442,1.243,0.021,2.066-0.316,2.544C54.418,53.894,53.573,54.5,52.093,54.5z
			 M22.676,51.476c0.077,0.014,0.17,0.024,0.282,0.024h28.961c-8.325-21.731-7.898-21.824-7.898-22.202V15
			c0-0.828,0.245-1.5,1.073-1.5h1.413c0.185,0,0.497-0.035,0.5-0.276l0.011-1.107c0.002-0.168-0.071-0.343-0.197-0.47
			c-0.054-0.055-0.166-0.147-0.303-0.147H27.542c-0.306,0.024-0.521,0.631-0.521,0.941v0.86c0,0.086,0.075,0.199,0.521,0.199h0.977
			c0.827,0,1.499,0.67,1.5,1.498l0.023,14.08C30.042,29.407,30.042,29.517,22.676,51.476z"/>
		<path id="path-3_78_" d="M4.914,54.501c-1.737,0-2.121-1.167-2.206-1.668L0.034,36.689c-0.133-0.787,0.126-1.683,0.675-2.333
			C1.176,33.805,1.798,33.5,2.46,33.5h13.464c0.63,0,1.227,0.295,1.679,0.83c0.587,0.693,0.887,1.72,0.746,2.555l-2.674,15.691
			c-0.194,1.15-1.168,1.924-2.424,1.924L4.914,54.501z M5.527,51.5h7.289l2.555-15H3.043L5.527,51.5z"/>
		<path id="path-4_68_" d="M44.571,49.199c-0.607,0-1.179-0.371-1.404-0.974l-6.263-17.276c-0.064-0.168,0.117-0.346,0.117-0.525
			V18.5c0-0.828,0.672-1.5,1.5-1.5c0.828,0,1.5,0.672,1.5,1.5v11.651l6.168,17.021c0.291,0.775-0.209,1.64-0.985,1.931
			C45.031,49.168,44.746,49.199,44.571,49.199z"/>
		<path id="path-5_51_" d="M9.193,49.681c-0.121,0-0.244-0.015-0.368-0.046c-0.803-0.203-1.29-1.018-1.087-1.822l1.63-6.464
			c0.201-0.802,1.011-1.289,1.821-1.087c0.803,0.202,1.29,1.017,1.087,1.82l-1.63,6.465C10.475,49.226,9.864,49.681,9.193,49.681z"
			/>
	</g>
</g>
<g>
</g>
<g>
</g>
<g>
</g>
<g>
</g>
<g>
</g>
<g>
</g>
<g>
</g>
<g>
</g>
<g>
</g>
<g>
</g>
<g>
</g>
<g>
</g>
<g>
</g>
<g>
</g>
<g>
</g>
</svg>
